<svg version="1.0" xmlns="http://www.w3.org/2000/svg" width="521.000000pt" height="479.000000pt" viewBox="0 0 521.000000 479.000000" preserveAspectRatio="xMidYMid meet" style="width: 560.525px; height: auto;"> <g transform="translate(0.000000,479.000000) scale(0.100000,-0.100000)" fill="#000000" stroke="none"> <path d="M3145 4096 c-33 -12 -109 -50 -170 -85 -60 -34 -129 -68 -153 -74 -45 -12 -42 -13 -247 46 -95 27 -267 28 -345 2 -87 -28 -211 -94 -260 -137 -175 -154 -288 -357 -472 -848 -38 -102 -94 -235 -124 -297 -47 -99 -65 -124 -149 -211 -52 -55 -95 -102 -95 -106 0 -4 33 -51 73 -104 41 -53 86 -116 101 -140 43 -69 105 -217 137 -331 46 -159 103 -247 213 -328 118 -88 229 -129 407 -153 47 -6 91 -15 97 -19 6 -4 18 -40 27 -81 34 -163 118 -380 192 -493 111 -173 253 -276 454 -329 113 -30 351 -32 479 -4 186 42 348 134 482 275 91 96 144 179 202 313 153 360 97 925 -127 1268 -45 69 -136 180 -250 303 -76 82 -87 99 -78 115 30 56 123 363 142 467 36 197 27 411 -23 550 -6 17 -32 75 -59 130 -78 163 -165 262 -248 285 -59 16 -141 11 -206 -14z m131 -19 c-11 21 36 28 51 7 7 -10 13 -14 13 -10 0 5 9 -2 20 -15 17 -21 19 -22 20 -6 0 18 2 18 33 -2 19 -12 31 -27 29 -37 -2 -10 1 -13 9 -8 8 4 10 3 5 -5 -5 -7 -17 -9 -29 -5 -12 3 -20 5 -17 3 3 -2 15 -13 28 -24 13 -11 22 -15 20 -10 -3 11 4 15 24 15 9 0 9 -3 0 -12 -17 -17 -15 -33 3 -18 12 10 15 9 16 -6 1 -11 1 -22 0 -26 0 -5 5 -7 12 -5 6 1 11 -4 10 -10 -2 -7 2 -13 7 -13 6 0 10 -5 10 -11 0 -6 7 -17 15 -25 19 -20 19 -38 0 -54 -13 -11 -14 -10 -9 5 6 14 4 16 -6 10 -9 -5 -11 -4 -6 4 4 6 13 9 19 5 7 -3 -9 14 -35 38 -38 35 -45 47 -35 57 9 10 9 12 -3 10 -14 -3 -38 13 -82 54 -10 10 -49 28 -86 40 -37 12 -70 26 -74 32 -5 6 -11 6 -19 -2 -9 -9 -16 -10 -26 -2 -9 8 -13 8 -13 0 0 -6 -8 -11 -18 -11 -10 0 -27 -7 -40 -15 -20 -15 -21 -15 -16 2 5 15 3 15 -13 -2 -21 -24 -52 -39 -72 -36 -7 1 -11 -2 -7 -7 7 -12 -80 -51 -94 -42 -8 5 -9 10 -2 14 6 3 12 2 14 -4 2 -6 15 1 31 15 15 14 27 23 27 20 0 -4 7 1 16 10 9 9 23 14 30 11 9 -3 14 1 14 12 0 15 2 15 10 2 6 -10 10 -11 10 -3 0 17 93 63 138 69 19 2 38 6 40 9 3 3 11 -3 19 -13 8 -9 12 -12 9 -5z m49 -81 c62 -28 147 -105 180 -160 64 -110 95 -251 100 -466 3 -110 6 -136 19 -138 8 -2 18 -18 21 -35 4 -18 9 -41 11 -52 4 -16 3 -17 -5 -5 -9 13 -11 13 -11 -2 0 -10 -11 -19 -30 -23 -16 -4 -30 -11 -30 -16 0 -10 18 -7 60 9 12 5 12 1 -3 -21 -19 -29 -22 -41 -8 -33 4 3 6 -6 3 -19 -2 -14 -9 -22 -15 -18 -6 4 -8 -4 -5 -20 3 -16 1 -24 -5 -20 -5 3 -7 0 -5 -8 3 -8 -6 -45 -19 -84 -13 -38 -25 -81 -28 -94 -5 -26 -15 -41 -15 -23 0 7 -4 12 -10 12 -12 0 -9 -22 5 -32 6 -5 6 -8 -1 -8 -10 0 -12 -6 -16 -49 -1 -11 -6 -17 -10 -15 -10 7 -10 3 3 -34 6 -18 15 -30 19 -27 9 6 55 -53 48 -60 -10 -10 -47 27 -41 40 4 11 1 13 -11 9 -11 -4 -16 -1 -16 11 0 9 -4 14 -9 11 -5 -4 -11 -2 -13 2 -1 5 -21 20 -43 35 -22 15 -35 27 -30 27 6 0 19 -7 29 -15 11 -8 25 -15 30 -15 6 0 -4 9 -21 20 -18 11 -39 17 -47 14 -7 -3 -16 2 -19 10 -4 9 -15 16 -25 16 -26 0 -58 25 -44 34 7 4 12 15 11 24 0 12 -3 11 -9 -5 -10 -23 -25 -30 -34 -15 -3 5 -18 7 -34 4 -16 -2 -43 3 -61 12 -25 14 -31 23 -31 51 0 28 11 44 71 104 40 39 67 71 62 71 -21 0 -134 -126 -145 -163 l-12 -38 -108 4 c-68 3 -146 -1 -211 -10 -56 -8 -111 -16 -122 -18 -22 -3 -45 -10 -90 -30 -16 -7 -47 -16 -67 -20 -20 -4 -44 -15 -52 -24 -14 -15 -13 -20 3 -45 21 -31 30 -34 42 -14 7 10 9 9 9 -4 0 -11 6 -15 20 -11 11 3 20 1 20 -5 0 -6 15 -14 33 -18 17 -4 26 -9 19 -11 -6 -3 -10 -8 -7 -13 3 -4 -4 -6 -16 -3 -16 5 -18 8 -7 15 9 7 6 8 -10 5 -13 -3 -41 5 -68 19 -25 13 -51 24 -58 24 -7 0 -30 9 -52 19 -22 11 -54 18 -72 17 -17 -1 -33 2 -35 7 -1 5 -70 9 -152 9 -203 1 -213 0 -195 -12 14 -9 -17 -14 -92 -14 -9 0 -16 -4 -15 -9 1 -5 -8 -11 -21 -13 -13 -2 -30 -11 -39 -19 -8 -8 -18 -13 -23 -10 -5 3 -12 0 -16 -6 -4 -8 -3 -9 4 -5 7 4 12 5 12 2 0 -3 -10 -10 -21 -17 -17 -9 -20 -8 -14 3 3 7 -1 4 -9 -6 -9 -11 -16 -16 -16 -11 0 4 -8 1 -18 -8 -10 -10 -23 -14 -27 -10 -5 5 -4 0 3 -9 12 -14 10 -16 -13 -13 -19 2 -25 -2 -21 -11 3 -8 1 -14 -4 -14 -6 0 -9 -3 -9 -7 3 -20 -2 -26 -11 -13 -5 8 -10 10 -10 4 0 -15 34 -45 57 -49 10 -2 20 -4 23 -5 3 -1 14 -1 26 -1 11 1 26 -5 33 -13 8 -9 17 -13 22 -10 5 3 9 0 9 -5 0 -6 8 -11 18 -11 10 0 31 -13 47 -30 16 -17 33 -30 38 -30 17 0 77 -71 71 -82 -5 -7 -2 -8 6 -3 10 6 12 4 7 -8 -3 -10 -2 -17 2 -17 19 0 53 -69 46 -92 -7 -23 -7 -23 10 -3 9 11 13 14 9 6 -3 -7 -3 -16 2 -20 13 -9 37 -54 26 -47 -6 3 1 -17 14 -44 14 -28 22 -55 19 -60 -8 -12 6 -41 16 -34 5 3 9 -13 9 -36 0 -23 4 -39 9 -36 5 4 7 -3 4 -14 -9 -35 -23 -33 -40 7 -9 21 -16 42 -15 46 2 5 -7 23 -18 42 -11 18 -20 38 -20 44 0 7 -12 28 -26 47 -17 21 -24 40 -20 51 4 10 4 14 0 10 -9 -9 -45 43 -38 55 5 7 -10 12 -28 9 -8 -1 -12 14 -9 38 2 7 -2 10 -7 7 -6 -3 -12 -3 -14 1 -1 5 -18 20 -36 36 -19 15 -30 27 -26 27 4 0 -3 9 -16 20 -25 22 -35 26 -25 10 3 -5 2 -10 -4 -10 -5 0 -14 6 -18 14 -4 7 -37 26 -73 42 -36 16 -67 32 -68 36 -2 5 -8 6 -13 3 -4 -3 -19 1 -32 10 -13 8 -27 12 -30 8 -4 -3 -7 -1 -7 6 0 8 -6 11 -16 7 -9 -4 -13 -2 -8 5 4 8 -1 9 -17 4 -21 -7 -22 -6 -10 8 7 9 17 14 22 11 5 -3 8 -2 7 3 -4 12 69 82 78 75 4 -4 5 0 2 9 -6 15 28 46 45 41 5 -1 6 2 2 8 -4 6 5 20 19 31 14 11 26 25 26 30 0 18 43 68 53 62 6 -4 8 0 4 10 -3 10 -2 17 4 17 6 0 8 4 4 9 -3 6 3 18 13 28 11 10 31 44 47 76 26 55 48 71 58 45 4 -8 6 -9 6 -2 1 6 -6 17 -14 24 -22 19 -18 32 8 25 17 -6 20 -5 10 5 -9 10 -9 19 3 42 12 24 18 27 30 17 10 -9 11 -15 3 -25 -6 -7 -12 -24 -13 -38 -2 -19 1 -23 13 -18 14 5 14 4 1 -13 -14 -17 -14 -18 17 -2 21 11 34 13 38 6 5 -7 11 -6 21 2 11 9 17 9 29 -1 10 -9 15 -9 15 -1 0 6 3 10 8 9 14 -4 122 54 116 63 -6 11 -1 11 20 3 9 -3 14 -10 11 -14 -7 -11 78 -24 108 -17 55 13 121 35 108 36 -17 1 -9 12 11 15 7 1 26 14 42 29 16 15 33 24 39 20 5 -3 7 -1 3 5 -3 6 -2 13 4 17 5 3 10 -3 10 -14 0 -11 5 -23 12 -27 7 -4 8 -3 4 4 -5 8 -2 10 8 6 9 -3 13 -10 10 -15 -3 -5 2 -6 11 -2 10 3 20 2 24 -3 9 -13 73 -34 105 -34 15 0 25 -4 21 -10 -4 -7 2 -7 19 0 14 5 33 7 41 4 8 -4 15 -2 15 4 0 6 9 8 20 5 10 -3 26 2 35 11 9 9 22 16 29 16 7 0 25 14 40 31 20 22 31 28 40 20 7 -6 16 -8 20 -4 4 4 11 2 15 -5 5 -9 37 -14 92 -16 87 -3 149 7 149 25 0 6 4 8 9 5 5 -3 11 1 15 9 3 8 10 15 16 15 6 0 8 -5 4 -12 -4 -7 -3 -8 4 -4 7 4 12 14 12 22 0 8 4 13 9 10 5 -3 15 2 22 12 13 15 12 16 -3 3 -22 -17 -24 2 -3 19 12 10 24 11 50 2 20 -6 35 -6 35 -1 0 5 7 9 15 9 8 0 15 -5 15 -11 0 -5 -6 -7 -12 -3 -7 4 -10 4 -6 -1 4 -4 1 -14 -7 -22 -13 -13 -19 -40 -18 -80 1 -7 -3 -13 -8 -13 -13 0 -11 -34 3 -48 19 -19 29 -14 16 8 -15 24 -2 39 15 18 6 -9 29 -19 50 -22 32 -6 41 -3 62 20 14 15 25 39 25 55 0 15 6 30 13 33 9 5 9 7 -1 12 -23 11 -52 47 -52 65 0 10 -4 20 -9 23 -5 4 -7 -2 -4 -13 3 -12 -2 -20 -14 -23 -21 -5 -43 0 -43 11 0 9 52 35 64 32 5 -1 15 7 23 19 8 11 21 20 29 20 17 0 18 29 2 67 -6 15 -12 31 -12 34 -1 4 -16 29 -33 56 -87 134 -221 153 -498 74 -189 -54 -254 -67 -485 -96 -315 -38 -373 -60 -512 -193 -81 -78 -130 -146 -193 -272 -43 -85 -133 -228 -177 -280 -17 -19 -70 -76 -118 -126 l-88 -91 41 -12 c60 -18 163 -59 228 -91 120 -61 213 -159 284 -301 39 -77 117 -307 109 -321 -3 -5 -3 -17 1 -26 7 -14 9 -13 15 8 4 14 2 31 -3 38 -5 7 -7 15 -4 19 4 3 13 -9 21 -28 13 -30 13 -37 -1 -58 -14 -21 -14 -34 3 -135 9 -61 16 -113 13 -116 -8 -10 -115 3 -168 21 -65 22 -75 23 -66 9 4 -6 4 -19 0 -28 -6 -16 -8 -15 -21 2 -8 11 -14 14 -14 8 0 -7 -6 -12 -12 -12 -7 1 -2 10 12 22 15 12 20 23 13 25 -6 2 -24 15 -40 29 -32 28 -43 30 -43 9 0 -8 -5 -15 -11 -15 -5 0 -7 -5 -4 -10 6 -10 -22 -27 -30 -18 -9 9 8 48 21 48 8 0 14 7 14 15 0 8 -4 15 -9 15 -4 0 -31 23 -59 50 -50 51 -107 147 -135 230 -49 143 -118 283 -170 346 -26 32 -34 41 -76 97 -25 32 -67 78 -95 103 l-50 43 25 21 c136 114 273 307 373 525 28 61 95 243 110 299 43 155 130 356 197 451 49 71 135 144 211 180 148 70 240 79 443 45 115 -20 334 -37 308 -24 -23 10 -14 21 23 27 19 3 77 27 127 53 159 81 201 87 302 40z m-815 -30 c30 -4 61 -12 70 -17 12 -8 11 -9 -5 -4 -16 5 -18 4 -7 -7 10 -10 16 -10 33 0 12 8 24 11 27 8 3 -3 0 -6 -6 -6 -7 0 -12 -3 -12 -7 0 -5 17 -9 37 -10 60 -3 73 -6 73 -16 0 -5 -17 -7 -37 -3 -73 11 -98 15 -153 26 -68 13 -224 14 -267 1 -33 -10 -39 -6 -25 16 17 27 139 35 272 19z m-286 -21 c-9 -21 -72 -55 -91 -48 -11 4 -14 3 -9 -5 5 -8 1 -10 -11 -5 -10 3 -15 3 -11 -2 10 -11 -23 -34 -39 -28 -7 3 -13 10 -13 16 0 6 3 8 6 4 6 -5 14 0 47 29 7 6 18 9 25 6 6 -2 12 1 12 8 0 6 4 9 9 5 5 -3 12 -1 16 5 3 5 15 10 26 10 10 0 19 5 19 10 0 6 4 10 10 10 5 0 7 -7 4 -15z m626 -35 c0 -5 -5 -10 -11 -10 -5 0 -7 5 -4 10 3 6 8 10 11 10 2 0 4 -4 4 -10z m-48 -22 c-7 -7 -12 -8 -12 -2 0 6 3 14 7 17 3 4 9 5 12 2 2 -3 -1 -11 -7 -17z m-757 -38 c3 -6 -1 -7 -9 -4 -18 7 -21 14 -7 14 6 0 13 -4 16 -10z m-15 -21 c0 -5 -4 -9 -9 -9 -5 0 -19 -11 -32 -25 -13 -13 -30 -25 -36 -25 -7 0 -13 -6 -13 -14 0 -8 -14 -26 -31 -40 -17 -14 -26 -26 -20 -26 6 0 -5 -22 -24 -49 -19 -26 -35 -56 -35 -65 0 -10 -4 -14 -10 -11 -5 3 -10 -3 -10 -14 0 -11 -5 -23 -10 -26 -6 -4 -8 -11 -5 -16 4 -5 -5 -9 -19 -9 -14 0 -26 5 -26 10 0 6 5 10 11 10 6 0 8 9 4 21 -5 14 -3 19 3 15 6 -3 13 2 17 12 3 11 15 24 28 31 13 7 14 9 4 6 -11 -3 -16 -1 -12 6 4 6 13 8 21 5 8 -3 11 0 7 9 -3 8 -10 12 -16 8 -6 -4 -7 -1 -3 6 5 7 14 10 22 7 9 -3 11 0 7 11 -5 12 -3 14 7 8 9 -5 11 -4 6 3 -4 7 4 22 18 35 14 13 23 27 19 30 -3 4 3 10 13 14 22 8 74 60 74 73 0 5 8 6 17 3 12 -5 15 -2 10 10 -4 11 -2 14 9 10 7 -3 14 -9 14 -14z m1570 -69 c11 -8 21 -42 10 -35 -6 3 -7 -1 -4 -9 3 -9 11 -13 18 -9 6 3 8 3 4 -2 -4 -4 -3 -14 2 -21 6 -6 10 -16 9 -20 -1 -5 0 -16 4 -24 24 -63 44 -386 23 -373 -5 3 -7 -8 -4 -26 2 -17 2 -31 -2 -31 -17 0 -30 58 -29 128 1 100 -10 239 -22 270 -5 14 -7 27 -5 30 3 2 1 13 -5 23 -7 14 -6 19 3 19 8 1 5 6 -6 15 -11 8 -17 18 -13 21 4 4 2 13 -4 21 -6 7 -8 13 -3 13 4 0 -1 7 -12 16 -10 8 -13 13 -6 9 7 -4 12 1 12 12 1 16 2 16 12 -2 6 -11 14 -22 18 -25z m-1823 -299 c-6 -14 -15 -29 -20 -32 -4 -3 -7 -10 -5 -15 1 -5 -3 -19 -10 -32 -7 -12 -11 -26 -8 -31 3 -5 -1 -14 -9 -21 -8 -7 -15 -23 -15 -36 0 -39 -24 -105 -36 -100 -7 3 -10 -3 -7 -15 3 -11 0 -19 -7 -19 -10 0 -10 -3 0 -15 17 -21 5 -31 -17 -14 -16 13 -17 12 -5 -3 9 -12 10 -18 2 -23 -7 -4 -9 -18 -6 -30 3 -13 2 -26 -3 -29 -5 -3 -12 -18 -16 -33 -3 -15 -17 -52 -31 -81 -13 -29 -24 -55 -24 -57 0 -3 -12 -24 -27 -48 -15 -23 -38 -62 -51 -87 -13 -25 -42 -65 -65 -89 -23 -24 -36 -40 -28 -36 9 5 12 3 9 -6 -3 -8 -10 -13 -16 -12 -6 2 -9 -4 -5 -13 3 -9 0 -14 -8 -12 -8 2 -13 -3 -12 -9 2 -7 -3 -12 -10 -10 -6 1 -11 -4 -10 -10 3 -15 -13 -17 -22 -3 -3 6 -1 10 5 10 6 0 8 5 5 10 -3 6 1 13 9 16 18 7 60 72 62 97 1 9 9 26 19 37 9 10 14 24 10 29 -3 6 -1 11 4 11 6 0 10 3 9 8 -3 14 14 62 23 62 5 0 9 11 9 24 0 14 5 28 12 32 7 4 8 3 4 -4 -4 -7 -2 -12 5 -12 7 0 9 10 7 24 -3 15 0 27 8 30 8 3 14 11 14 18 0 9 -3 8 -10 -2 -6 -9 -10 -10 -10 -3 0 6 4 14 9 18 5 3 13 19 16 36 4 18 15 50 25 72 10 23 16 45 14 49 -3 4 0 8 6 8 6 0 8 5 5 10 -3 6 -1 10 5 10 6 0 8 5 5 10 -6 9 8 15 29 11 5 -1 1 10 -9 25 -15 23 -15 26 -2 21 11 -4 14 -2 11 8 -3 7 2 25 11 39 10 14 14 26 11 26 -4 0 -1 12 8 28 23 43 46 99 46 111 0 6 5 11 11 11 6 0 9 6 6 13 -2 6 1 18 8 24 10 10 14 9 19 -3 4 -10 2 -13 -6 -8 -7 4 -8 3 -4 -5 6 -9 11 -9 22 0 16 13 19 23 4 14 -6 -4 -10 -3 -9 2 4 21 -2 34 -13 27 -6 -4 -8 -3 -5 3 3 5 20 8 36 5 28 -4 29 -6 18 -31z m1594 14 c12 -11 19 -14 15 -7 -4 6 -2 12 4 12 6 0 13 -7 16 -15 4 -8 14 -15 23 -15 21 0 64 -56 55 -72 -4 -6 -3 -8 3 -5 14 8 25 -7 45 -59 16 -44 11 -66 -21 -83 -14 -8 -18 -6 -18 7 0 9 4 23 10 30 6 8 6 12 -2 12 -6 0 -18 18 -27 40 -9 22 -20 38 -24 35 -4 -3 -13 2 -19 9 -9 11 -9 16 0 22 8 4 9 3 5 -4 -4 -7 -2 -12 3 -12 16 0 13 16 -6 31 -11 10 -14 10 -9 2 11 -19 -9 -15 -27 5 -9 10 -31 20 -49 22 -79 9 -200 -2 -206 -20 -2 -5 -8 -8 -13 -4 -13 7 -50 -6 -44 -16 3 -4 -7 -11 -22 -15 -15 -3 -51 -18 -81 -32 -36 -17 -62 -23 -80 -19 -19 5 -23 4 -13 -3 11 -7 5 -11 -25 -18 -44 -9 -106 -9 -374 0 -119 4 -178 2 -165 -4 16 -7 14 -9 -12 -6 -18 2 -30 0 -27 -4 4 -7 -45 -23 -73 -24 -6 0 -15 -4 -20 -9 -5 -5 -2 -6 6 -1 9 5 12 4 8 -2 -4 -6 -19 -9 -34 -7 -16 2 -20 1 -9 -2 16 -5 8 -13 -37 -38 -31 -18 -54 -36 -50 -41 5 -4 3 -5 -3 -2 -7 4 -24 -9 -39 -28 -16 -21 -31 -33 -38 -28 -7 4 -6 0 2 -10 11 -14 11 -17 -1 -17 -7 0 -22 -14 -32 -30 -9 -17 -21 -28 -27 -25 -5 3 -6 -2 -2 -11 4 -11 2 -15 -7 -12 -23 7 -22 26 1 33 12 4 17 10 11 14 -7 4 -6 12 2 23 7 10 17 14 21 10 5 -4 5 2 1 13 -4 11 -4 16 0 12 4 -4 18 9 31 28 13 19 31 35 39 35 8 0 12 4 9 10 -4 6 1 7 11 3 13 -5 15 -3 9 7 -6 10 -4 12 8 7 12 -4 14 -2 10 10 -5 13 -2 15 11 10 10 -4 15 -3 11 3 -8 13 85 72 103 65 7 -2 10 -1 7 5 -6 10 57 29 119 36 23 2 66 8 96 13 30 5 78 12 105 14 28 3 64 8 80 11 23 5 26 4 10 -3 -17 -8 -17 -10 -3 -10 9 -1 20 4 23 9 3 6 18 10 32 10 15 0 42 5 60 12 27 10 38 10 54 -1 12 -7 24 -10 27 -7 3 3 -1 6 -9 6 -22 1 45 27 82 33 19 3 76 19 127 36 52 16 118 32 149 35 30 2 56 6 58 8 2 2 30 3 64 3 45 -1 65 -6 82 -20z m-23 -80 c53 -23 81 -52 109 -114 13 -29 23 -54 21 -55 -2 -1 -16 -12 -32 -24 -31 -24 -85 -29 -104 -10 -7 7 -12 23 -13 38 0 23 -1 23 -9 5 -5 -11 -11 -32 -14 -46 -15 -70 -97 -112 -221 -112 -92 0 -138 22 -129 60 5 18 4 24 -5 19 -6 -4 -11 -14 -11 -21 0 -23 -60 -85 -98 -100 -50 -21 -161 -19 -223 4 -70 27 -89 46 -89 90 l0 36 -16 -30 c-36 -70 -123 -131 -212 -147 -75 -14 -109 2 -114 54 l-3 33 -19 -38 c-23 -46 -59 -73 -117 -86 -60 -13 -119 -21 -119 -15 0 3 17 31 39 62 81 119 203 219 314 256 78 26 151 30 331 16 205 -15 257 -7 421 65 171 74 244 88 313 60z m170 -280 c28 -32 28 -63 -1 -96 -18 -21 -27 -24 -55 -18 -60 12 -82 74 -42 117 28 30 71 28 98 -3z m-401 -349 c147 -26 269 -78 350 -149 46 -40 217 -235 269 -307 149 -204 234 -511 234 -849 0 -331 -85 -578 -259 -752 -89 -88 -173 -139 -310 -185 -197 -66 -401 -80 -556 -38 -197 53 -380 218 -477 431 -78 173 -143 423 -174 668 -30 243 -74 409 -150 564 -46 93 -68 126 -127 186 -82 82 -153 121 -240 133 l-58 7 53 37 c184 129 249 150 468 152 113 1 150 -3 225 -23 305 -81 442 -203 610 -545 86 -176 136 -318 179 -506 l23 -105 8 76 c20 210 -69 498 -232 748 -109 167 -225 274 -368 335 -42 19 -78 36 -81 38 -7 7 197 68 277 83 99 18 236 18 336 1z m-463 -191 c-4 -8 -1 -15 5 -15 6 0 11 5 11 11 0 5 5 7 11 3 8 -5 6 -10 -6 -16 -20 -12 -41 4 -31 21 10 16 16 13 10 -4z m66 -43 c16 -10 27 -22 22 -26 -4 -4 0 -7 8 -6 28 4 41 0 35 -10 -4 -6 4 -19 16 -29 16 -13 20 -23 15 -37 -8 -19 -8 -19 -19 0 -7 11 -19 27 -28 37 -11 10 -13 21 -8 26 6 6 1 9 -13 8 -27 -3 -61 23 -51 38 4 6 0 8 -11 4 -10 -4 -15 -3 -11 3 8 13 10 13 45 -8z m-1405 -12 c3 -6 -1 -13 -9 -16 -9 -3 -16 -12 -16 -20 0 -7 -11 -16 -25 -20 -14 -3 -23 -10 -20 -14 3 -5 1 -11 -4 -14 -5 -4 -12 -2 -15 2 -6 10 30 52 44 52 5 0 12 9 15 20 7 22 20 26 30 10z m2324 -22 c11 -18 21 -29 21 -25 0 4 6 2 14 -5 15 -14 12 -28 -5 -28 -6 0 -8 3 -6 8 4 7 -27 41 -40 43 -5 1 -7 6 -5 12 2 5 -3 14 -10 18 -8 6 -9 9 -1 9 6 0 20 -15 32 -32z m-2437 -91 c-20 -21 -20 -24 -6 -39 14 -14 14 -16 0 -21 -10 -4 -13 -1 -9 8 3 8 -2 18 -12 21 -14 6 -14 9 6 30 12 13 27 24 32 24 6 0 1 -10 -11 -23z m1659 -2 c5 4 6 0 3 -8 -3 -8 2 -20 11 -27 8 -7 15 -18 15 -24 0 -7 7 -21 16 -32 14 -18 15 -18 4 4 -7 13 -10 26 -7 28 2 2 9 -7 15 -20 9 -19 8 -27 -4 -36 -9 -8 -14 -9 -14 -2 0 6 -6 17 -14 25 -8 8 -22 31 -30 51 -11 26 -20 35 -28 30 -8 -5 -8 -1 2 10 8 11 16 14 18 7 2 -6 8 -9 13 -6z m885 -37 c8 -15 20 -27 27 -25 6 1 11 -4 10 -10 -2 -7 2 -13 8 -13 5 0 8 -4 5 -8 -3 -5 4 -15 15 -22 10 -8 19 -23 19 -33 0 -11 4 -15 12 -11 6 4 8 3 5 -3 -4 -5 3 -20 14 -31 11 -12 15 -22 9 -22 -5 0 -10 -5 -10 -11 0 -5 3 -8 8 -6 8 6 26 -13 30 -32 1 -7 10 -20 18 -28 8 -9 13 -22 10 -29 -3 -8 0 -14 5 -14 6 0 9 -9 6 -20 -3 -11 -1 -18 3 -15 5 3 14 -12 20 -32 7 -21 16 -42 20 -47 5 -5 4 -19 -1 -33 -5 -13 -5 -22 0 -19 5 3 12 -4 16 -17 4 -12 8 -24 9 -27 2 -3 6 -23 10 -45 4 -22 14 -73 22 -113 20 -103 14 -425 -10 -502 -10 -30 -17 -64 -17 -75 0 -10 -5 -25 -11 -32 -6 -7 -7 -13 -3 -13 4 0 2 -6 -4 -13 -6 -8 -8 -17 -4 -20 3 -4 -3 -7 -15 -7 -24 0 -23 16 5 120 21 75 24 451 4 570 -8 47 -15 94 -16 105 -1 11 -7 32 -13 47 -6 15 -12 47 -14 72 -2 24 -7 44 -12 43 -5 -1 -12 12 -16 28 -4 17 -18 51 -33 77 -14 25 -23 49 -20 52 3 3 1 12 -5 19 -7 8 -10 16 -7 19 3 3 -1 11 -10 18 -8 7 -15 21 -15 32 0 12 -4 17 -12 12 -7 -4 -8 -3 -4 5 5 7 -1 20 -15 32 -12 10 -19 19 -16 19 4 0 -1 9 -10 19 -9 11 -20 18 -25 15 -7 -5 -9 -1 -12 32 -1 6 -8 20 -16 30 -14 18 -14 18 3 5 10 -8 25 -27 33 -43z m-1885 -5 c13 -16 12 -17 -3 -4 -10 7 -18 15 -18 17 0 8 8 3 21 -13z m-618 -61 c-6 -15 -5 -16 12 -2 17 14 18 13 12 -2 -4 -11 -2 -18 6 -18 17 -1 49 -48 41 -62 -4 -6 -3 -8 2 -5 5 3 25 -13 44 -35 19 -22 43 -48 52 -58 24 -26 38 -55 39 -82 1 -18 2 -19 6 -5 5 18 5 18 19 0 7 -10 14 -25 14 -34 0 -20 28 -76 41 -84 5 -4 6 -11 3 -17 -4 -6 -1 -14 5 -18 7 -4 13 -21 13 -38 1 -18 5 -32 10 -32 4 0 8 -5 8 -12 0 -6 14 -40 30 -75 17 -34 30 -66 30 -69 0 -3 11 -19 25 -36 14 -16 25 -37 25 -45 0 -9 3 -14 6 -10 7 6 34 -16 34 -28 0 -9 23 -31 35 -33 18 -3 10 -25 -12 -33 -18 -6 -23 -5 -23 7 0 11 -6 14 -16 10 -8 -3 -13 -2 -10 2 3 4 -4 14 -16 21 -16 10 -19 10 -12 -1 4 -7 -8 2 -29 21 -20 19 -33 39 -30 45 3 6 3 8 -2 4 -9 -8 -35 15 -35 31 0 6 -7 11 -15 11 -8 0 -15 8 -15 19 0 10 -7 24 -15 31 -8 7 -15 19 -15 26 0 8 -4 22 -9 32 -14 24 -66 195 -64 209 0 7 -4 10 -9 7 -6 -4 -7 2 -3 16 4 14 3 20 -3 16 -15 -9 -23 36 -9 53 10 12 9 13 -1 7 -9 -5 -15 -1 -19 13 -3 12 -9 21 -14 21 -5 0 -9 9 -9 19 0 11 -5 23 -12 27 -7 5 -8 2 -3 -7 5 -8 4 -10 0 -6 -12 10 -16 39 -5 32 5 -3 12 -1 15 5 4 6 3 10 -2 9 -22 -4 -31 3 -26 20 3 10 0 22 -6 25 -7 5 -8 1 -4 -11 4 -10 -9 0 -28 21 -18 22 -33 43 -32 47 1 3 -7 15 -17 24 -11 10 -20 24 -20 32 0 7 -3 12 -7 12 -17 -3 -24 2 -18 11 11 17 45 -8 38 -28z m1697 -21 c0 -5 -3 -11 -7 -14 -5 -2 -2 -2 4 -1 14 3 53 -64 53 -90 0 -8 4 -18 10 -21 6 -4 7 1 4 12 -6 15 -4 15 9 -2 11 -14 12 -24 5 -33 -6 -7 -8 -15 -4 -19 3 -3 6 -1 6 5 0 7 5 12 12 12 9 0 9 -3 0 -12 -15 -15 -15 -29 0 -25 6 1 16 -14 22 -34 6 -20 17 -44 25 -53 8 -9 14 -30 15 -46 1 -17 4 -30 7 -30 10 0 30 -51 24 -61 -4 -5 -3 -14 1 -21 4 -7 9 -26 11 -43 l2 -30 -15 35 c-8 19 -13 43 -10 52 2 10 1 18 -3 18 -9 0 -31 60 -31 83 0 9 -4 17 -10 17 -11 0 -55 90 -59 121 0 5 -6 7 -12 3 -8 -4 -9 1 -4 17 4 13 4 20 -1 16 -10 -10 -56 91 -47 106 4 6 1 7 -7 2 -15 -9 -30 12 -23 32 6 15 23 18 23 4z m-785 -546 c8 -19 7 -19 -11 -5 -28 22 -34 32 -34 62 0 41 24 41 31 -1 3 -20 10 -45 14 -56z m998 20 c4 -8 3 -16 -1 -19 -4 -3 -9 4 -9 15 -2 23 3 25 10 4z m-979 -224 c1 -20 6 -43 9 -51 4 -8 9 -34 11 -57 2 -24 8 -48 13 -55 5 -7 10 -34 11 -59 0 -25 7 -62 16 -82 9 -22 11 -39 5 -42 -5 -4 -9 -12 -9 -18 0 -8 3 -8 9 1 5 9 8 2 9 -19 0 -23 -2 -29 -10 -21 -6 6 -12 31 -13 55 -1 24 -5 48 -8 54 -3 5 -8 21 -11 35 -5 28 -42 71 -64 74 -19 3 -27 13 -18 21 4 4 11 1 15 -6 6 -9 12 -5 22 17 7 17 17 28 21 26 4 -3 8 0 8 5 0 6 -5 11 -11 11 -6 0 -8 9 -4 21 4 12 2 24 -3 28 -6 3 -13 24 -15 46 -3 22 -6 45 -7 50 -1 6 -2 19 -1 30 2 18 3 17 12 -4 5 -13 11 -40 13 -60z m-314 -110 c0 -11 -3 -11 -17 0 -15 12 -16 12 -8 -1 8 -13 6 -13 -7 -2 -24 19 -12 45 13 29 10 -6 19 -18 19 -26z m117 -44 c4 -7 0 -8 -11 -4 -10 4 -22 7 -27 7 -5 0 -9 4 -9 9 0 12 38 2 47 -12z m66 -14 c-7 -2 -19 -2 -25 0 -7 3 -2 5 12 5 14 0 19 -2 13 -5z m67 -3 c0 -5 -4 -10 -9 -10 -6 0 -13 5 -16 10 -3 6 1 10 9 10 9 0 16 -4 16 -10z m169 -292 c8 -21 8 -35 1 -42 -7 -7 -10 0 -10 22 0 18 -4 32 -10 32 -5 0 -10 5 -10 10 0 22 19 8 29 -22z m1697 -50 c4 -6 2 -14 -4 -16 -7 -2 -9 -8 -6 -14 4 -6 -4 -8 -17 -6 -16 2 -25 11 -27 26 -3 18 1 22 22 22 14 0 28 -5 32 -12z m-1671 -19 c-10 -15 -25 -10 -19 6 4 8 10 12 15 9 5 -3 7 -10 4 -15z m5 -23 c0 -3 -4 -8 -10 -11 -5 -3 -10 -1 -10 4 0 6 5 11 10 11 6 0 10 -2 10 -4z m1635 -16 c3 -6 -1 -13 -9 -16 -10 -4 -14 -15 -12 -29 3 -15 -7 -36 -27 -61 -18 -21 -32 -41 -32 -44 0 -3 -5 -4 -11 -4 -7 1 -9 -7 -6 -20 5 -19 4 -20 -13 -6 -17 14 -18 14 -6 -7 12 -24 6 -29 -19 -13 -12 8 -12 11 3 28 9 10 17 26 17 36 0 10 6 16 16 14 11 -2 17 5 19 23 3 24 45 104 45 86 0 -5 5 -5 11 -1 8 4 7 9 -2 15 -11 7 -10 9 3 9 9 0 20 -5 23 -10z m-1601 -55 c3 -11 6 -24 7 -30 1 -5 9 -15 18 -22 9 -7 12 -13 6 -13 -5 0 -4 -4 2 -8 7 -4 14 -18 16 -31 2 -13 11 -30 21 -37 10 -6 17 -14 16 -16 -3 -8 13 -38 22 -38 5 0 6 6 2 13 -5 8 -3 8 9 -2 9 -7 15 -17 12 -21 -3 -5 5 -17 18 -27 23 -18 27 -24 27 -43 0 -5 6 -7 14 -4 8 3 21 -5 30 -18 9 -13 22 -23 29 -23 6 0 11 -8 11 -18 -1 -9 2 -15 6 -12 12 7 41 -6 35 -15 -5 -8 32 -23 51 -21 7 1 15 -6 18 -15 4 -9 12 -14 22 -10 8 3 12 2 9 -3 -3 -5 -1 -12 5 -16 5 -3 10 -1 10 5 0 6 5 8 10 5 6 -4 7 -12 4 -18 -5 -9 -4 -9 6 0 10 9 18 8 36 -4 13 -8 28 -12 34 -8 6 4 17 1 25 -5 8 -6 23 -9 34 -5 10 3 22 2 25 -3 9 -15 236 -7 321 12 44 10 90 22 103 27 13 5 22 5 22 -1 0 -5 7 -7 15 -4 8 4 15 12 15 18 0 13 54 36 83 36 9 0 17 -4 17 -10 0 -5 5 -10 10 -10 6 0 8 11 4 26 -5 19 -3 25 7 23 14 -3 68 27 80 44 4 5 10 4 13 -2 4 -6 12 -9 17 -6 11 7 11 3 3 -19 -8 -21 -24 -20 -24 2 0 15 -3 14 -18 -4 -9 -12 -26 -26 -37 -32 -14 -8 -16 -12 -5 -12 21 -1 -30 -29 -53 -30 -10 0 -15 -5 -12 -10 3 -6 1 -10 -4 -10 -6 0 -11 7 -11 15 0 8 -4 15 -9 15 -12 0 -41 -29 -41 -41 0 -5 -19 -7 -41 -6 -34 3 -39 1 -25 -8 8 -7 13 -15 10 -18 -4 -3 -13 1 -22 9 -14 14 -16 14 -24 0 -5 -9 -14 -14 -19 -10 -5 3 -16 0 -24 -6 -8 -7 -26 -9 -40 -6 -14 4 -25 2 -25 -4 0 -6 -54 -8 -152 -4 -211 8 -225 9 -242 24 -9 7 -16 10 -16 7 0 -4 -18 0 -39 8 -22 7 -43 10 -47 7 -4 -4 -4 -2 -1 4 4 7 -3 14 -17 18 -14 3 -32 13 -40 22 -9 8 -26 17 -38 19 -13 3 -31 14 -40 26 -10 12 -18 18 -18 15 0 -13 -45 24 -45 37 -1 6 -7 11 -15 9 -8 -2 -12 -1 -8 3 3 4 -2 15 -13 26 -11 11 -17 24 -14 29 4 6 -1 7 -11 3 -14 -5 -16 -3 -11 11 6 14 3 17 -8 12 -9 -3 -14 -2 -11 2 3 5 -6 21 -20 38 -14 16 -28 42 -31 57 -4 21 -8 25 -14 15 -6 -9 -9 -6 -9 10 0 13 -4 20 -10 17 -5 -3 -7 0 -4 8 3 8 0 18 -5 22 -6 3 -9 11 -6 16 4 5 1 9 -5 9 -7 0 -9 8 -5 21 5 13 3 19 -3 15 -11 -6 -24 18 -15 28 7 7 28 -21 37 -49z m1441 -195 c-16 -17 -38 -30 -49 -31 -12 0 -15 -3 -8 -6 19 -7 14 -19 -14 -31 -16 -8 -22 -17 -18 -25 4 -6 4 -9 -1 -5 -4 4 -13 3 -20 -2 -8 -7 -12 -5 -12 5 0 8 3 12 7 10 3 -2 12 5 20 15 8 10 18 16 24 13 5 -4 7 0 3 10 -6 17 15 41 27 29 4 -4 6 0 4 8 -2 9 4 14 15 13 12 -1 17 4 13 14 -3 8 -2 11 3 8 5 -3 13 0 16 6 4 5 10 8 13 5 3 -4 -7 -20 -23 -36z" stroke-width="1"></path> <path d="M3260 3970 c0 -5 -6 -8 -12 -6 -7 1 -10 1 -5 -1 13 -8 8 -21 -10 -26 -17 -4 -17 -5 0 -6 15 -1 21 -11 19 -32 0 -3 15 -13 34 -24 19 -10 34 -23 34 -28 0 -6 -8 -3 -18 6 -16 15 -18 15 -18 -2 0 -13 7 -17 26 -15 20 2 30 -4 43 -25 9 -16 13 -31 10 -35 -4 -4 0 -4 10 0 9 3 28 -1 41 -10 23 -14 25 -14 40 9 22 33 20 49 -9 83 -13 16 -21 32 -18 36 4 4 -1 4 -11 0 -15 -6 -17 -4 -11 6 5 8 4 11 -3 6 -5 -3 -20 6 -32 21 -12 16 -19 22 -15 16 11 -23 -10 -14 -29 12 -18 24 -66 35 -66 15z m43 -7 c-7 -2 -19 -2 -25 0 -7 3 -2 5 12 5 14 0 19 -2 13 -5z m61 -63 c41 -28 78 -60 81 -71 9 -28 -9 -45 -34 -33 -25 11 -151 133 -151 145 0 19 31 7 104 -41z"></path> <path d="M2568 3853 c6 -2 18 -2 25 0 6 3 1 5 -13 5 -14 0 -19 -2 -12 -5z"></path> <path d="M3387 3759 c7 -7 15 -10 18 -7 3 3 -2 9 -12 12 -14 6 -15 5 -6 -5z"></path> <path d="M1877 3573 c-4 -3 -7 -11 -7 -17 0 -6 5 -5 12 2 6 6 9 14 7 17 -3 3 -9 2 -12 -2z"></path> <path d="M2270 3522 c-66 -4 -150 -22 -150 -32 0 -5 -7 -7 -15 -4 -8 4 -15 2 -15 -3 0 -5 -14 -17 -31 -27 -38 -22 -99 -83 -91 -90 3 -3 -2 -6 -11 -6 -10 0 -14 -6 -11 -13 3 -8 -4 -24 -14 -37 -18 -22 -18 -26 -5 -47 9 -13 23 -23 32 -23 14 0 14 -2 1 -10 -8 -5 -10 -10 -4 -10 6 0 17 7 24 15 7 8 16 12 21 9 5 -3 6 2 3 10 -4 10 -1 16 8 16 8 0 23 10 34 22 16 19 16 20 1 9 -15 -12 -17 -12 -11 2 6 18 55 53 67 49 5 -1 6 2 2 7 -6 10 28 33 42 29 4 -2 18 6 30 16 12 11 30 21 40 22 10 2 37 7 61 12 30 7 42 6 43 -2 0 -6 4 0 10 12 10 26 36 25 31 -2 -2 -9 2 -16 8 -16 6 0 8 5 5 10 -3 6 -1 10 4 10 6 0 11 -3 11 -7 0 -10 109 -8 132 2 10 4 15 11 12 16 -3 5 3 9 13 10 10 0 13 3 6 6 -7 2 -13 9 -13 14 0 6 5 7 12 3 7 -4 8 -3 4 5 -4 6 -12 9 -17 6 -5 -4 -9 -1 -9 5 0 8 -26 11 -87 8 -62 -3 -87 -7 -85 -16 3 -17 -8 -15 -27 6 -12 12 -28 16 -61 14z m58 -43 c2 -13 -9 -17 -56 -21 -86 -8 -163 -50 -233 -127 -32 -35 -59 -68 -59 -72 0 -15 -30 -10 -36 6 -8 19 47 105 92 145 67 59 151 90 234 87 41 -1 56 -6 58 -18z m202 12 c0 -22 -32 -33 -91 -29 -60 4 -90 21 -52 31 33 9 143 7 143 -2z"></path> <path d="M2540 3420 c-23 -7 -23 -8 -3 -9 12 -1 25 4 28 9 3 6 5 10 3 9 -2 -1 -14 -5 -28 -9z"></path> <path d="M2378 3403 c7 -3 16 -2 19 1 4 3 -2 6 -13 5 -11 0 -14 -3 -6 -6z"></path> <path d="M1791 3373 c-10 -26 -10 -27 4 -9 8 11 15 23 15 28 0 15 -7 8 -19 -19z"></path> <path d="M1920 3329 c0 -5 5 -7 10 -4 6 3 10 8 10 11 0 2 -4 4 -10 4 -5 0 -10 -5 -10 -11z"></path> <path d="M2110 3310 c0 -5 5 -10 11 -10 5 0 7 5 4 10 -3 6 -8 10 -11 10 -2 0 -4 -4 -4 -10z"></path>  <path d="M1931 3204 c0 -11 3 -14 6 -6 3 7 2 16 -1 19 -3 4 -6 -2 -5 -13z"></path> <path d="M1950 3191 c0 -6 4 -13 10 -16 6 -3 7 1 4 9 -7 18 -14 21 -14 7z"></path> <path d="M3607 3193 c-10 -10 -8 -55 2 -49 5 3 11 17 13 31 5 24 -2 32 -15 18z"></path>   <path d="M3422 2940 c14 -22 24 -19 15 5 -4 8 -11 15 -17 15 -6 0 -6 -7 2 -20z"></path>  <path d="M1965 2840 c10 -11 20 -20 23 -20 3 0 -3 9 -13 20 -10 11 -20 20 -23 20 -3 0 3 -9 13 -20z"></path> <path d="M1930 2836 c0 -2 8 -10 18 -17 15 -13 16 -12 3 4 -13 16 -21 21 -21 13z"></path> <path d="M2026 2737 c3 -10 9 -15 12 -12 3 3 0 11 -7 18 -10 9 -11 8 -5 -6z"></path> <path d="M1415 2550 c-3 -6 1 -7 9 -4 18 7 21 14 7 14 -6 0 -13 -4 -16 -10z"></path> <path d="M1500 2111 c0 -6 4 -13 10 -16 6 -3 7 1 4 9 -7 18 -14 21 -14 7z"></path> <path d="M1576 1965 c-9 -26 -7 -32 5 -12 6 10 9 21 6 23 -2 3 -7 -2 -11 -11z"></path> <path d="M2022 1744 c-13 -6 -20 -14 -15 -17 8 -5 50 20 42 26 -2 2 -15 -2 -27 -9z"></path>   <path d="M2070 1650 c-8 -5 -11 -12 -7 -16 4 -4 13 -2 19 4 15 15 7 24 -12 12z"></path>  <path d="M2068 1593 c6 -2 18 -2 25 0 6 3 1 5 -13 5 -14 0 -19 -2 -12 -5z"></path>   <path d="M1800 1530 c0 -5 5 -10 10 -10 6 0 10 5 10 10 0 6 -4 10 -10 10 -5 0 -10 -4 -10 -10z"></path>  <path d="M3610 3670 c0 -5 5 -10 11 -10 5 0 7 5 4 10 -3 6 -8 10 -11 10 -2 0 -4 -4 -4 -10z"></path> <path d="M1755 3470 c3 -5 8 -10 11 -10 2 0 4 5 4 10 0 6 -5 10 -11 10 -5 0 -7 -4 -4 -10z"></path> <path d="M1686 3253 c-6 -14 -5 -15 5 -6 7 7 10 15 7 18 -3 3 -9 -2 -12 -12z"></path> <path d="M1550 2900 c-6 -11 -8 -20 -6 -20 3 0 10 9 16 20 6 11 8 20 6 20 -3 0 -10 -9 -16 -20z"></path> <path d="M1452 2730 c0 -14 2 -19 5 -12 2 6 2 18 0 25 -3 6 -5 1 -5 -13z"></path> <path d="M3511 3261 c-8 -5 -9 -11 -3 -15 5 -3 12 1 16 9 6 17 6 18 -13 6z"></path> <path d="M2313 3215 c0 -8 4 -12 9 -9 5 3 6 10 3 15 -9 13 -12 11 -12 -6z"></path> <path d="M2135 3130 c-3 -6 1 -7 9 -4 18 7 21 14 7 14 -6 0 -13 -4 -16 -10z"></path> <path d="M2225 3030 c3 -5 8 -10 11 -10 2 0 4 5 4 10 0 6 -5 10 -11 10 -5 0 -7 -4 -4 -10z"></path>   <path d="M2976 2697 c-17 -15 -18 -20 -6 -27 11 -7 16 -4 18 10 3 17 11 20 66 20 34 0 89 -5 122 -11 75 -14 184 -73 184 -100 0 -36 -31 -34 -101 4 -96 52 -247 84 -265 56 -4 -8 3 -9 25 -4 22 5 39 2 56 -9 14 -9 26 -12 30 -6 3 6 13 6 23 1 22 -11 62 -28 85 -35 11 -3 15 -11 11 -17 -4 -8 -3 -9 5 -5 6 4 17 3 24 -2 7 -5 29 -15 50 -22 31 -10 42 -9 61 3 34 23 19 87 -21 87 -8 0 -12 4 -9 9 4 5 -4 7 -16 4 -17 -3 -19 -2 -9 5 9 7 -7 16 -60 32 -98 31 -241 34 -273 7z"></path> <path d="M2698 2703 c7 -3 16 -2 19 1 4 3 -2 6 -13 5 -11 0 -14 -3 -6 -6z"></path> <path d="M2846 2534 c-15 -14 -14 -34 1 -34 4 0 3 3 0 7 -4 3 0 15 10 25 20 22 11 24 -11 2z"></path> <path d="M2930 2441 c0 -7 -5 -9 -12 -5 -7 5 -8 3 -3 -5 5 -9 10 -10 18 -2 6 6 8 14 4 18 -4 3 -7 1 -7 -6z"></path> <path d="M1980 2371 c0 -6 4 -13 10 -16 6 -3 7 1 4 9 -7 18 -14 21 -14 7z"></path> <path d="M3615 2370 c-3 -5 -1 -10 4 -10 6 0 11 5 11 10 0 6 -2 10 -4 10 -3 0 -8 -4 -11 -10z"></path> <path d="M2810 2295 c0 -5 5 -17 10 -25 5 -8 10 -10 10 -5 0 6 -5 17 -10 25 -5 8 -10 11 -10 5z"></path> <path d="M3711 2271 c-8 -5 -9 -11 -3 -15 5 -3 12 1 16 9 6 17 6 18 -13 6z"></path> <path d="M2261 1814 c0 -11 3 -14 6 -6 3 7 2 16 -1 19 -3 4 -6 -2 -5 -13z"></path> <path d="M2211 1784 c0 -11 3 -14 6 -6 3 7 2 16 -1 19 -3 4 -6 -2 -5 -13z"></path> <path d="M3130 1489 c0 -5 5 -7 10 -4 6 3 10 8 10 11 0 2 -4 4 -10 4 -5 0 -10 -5 -10 -11z"></path> <path d="M2483 1053 c-18 -7 -16 -54 2 -80 12 -16 12 -22 2 -26 -9 -4 -9 -6 1 -6 6 -1 12 -7 12 -14 0 -19 28 -76 57 -115 13 -17 21 -37 17 -44 -5 -7 -3 -8 5 -3 16 9 46 -32 44 -60 -1 -14 0 -15 3 -3 4 14 14 11 64 -20 32 -20 54 -39 49 -43 -5 -3 3 -6 20 -6 16 0 36 -7 45 -16 9 -8 29 -18 46 -22 17 -4 28 -10 25 -15 -3 -5 0 -12 6 -16 7 -4 9 -3 6 3 -4 7 8 10 33 9 22 0 40 -4 40 -7 0 -4 14 -5 31 -3 17 2 40 -1 51 -7 11 -6 18 -7 15 -2 -3 5 3 17 14 26 22 19 24 33 6 65 -11 21 -20 23 -101 27 -70 3 -95 8 -117 24 -16 12 -35 21 -44 21 -8 0 -15 4 -15 9 0 5 -8 12 -17 15 -35 13 -63 33 -55 41 4 5 1 5 -6 1 -16 -9 -37 7 -74 58 -15 21 -28 35 -28 30 0 -5 -9 8 -20 29 -11 21 -18 42 -15 47 4 6 1 10 -5 10 -6 0 -14 8 -17 18 -9 22 -54 82 -62 81 -3 0 -12 -3 -18 -6z m76 -106 c63 -120 115 -171 239 -234 96 -50 107 -53 176 -53 78 0 101 -12 94 -47 -4 -23 -89 -30 -164 -14 -62 14 -239 112 -276 155 -45 50 -94 128 -108 171 -7 22 -20 50 -28 62 -15 25 -9 57 10 51 6 -2 32 -43 57 -91z"></path> <path d="M2435 850 c3 -5 8 -10 11 -10 2 0 4 5 4 10 0 6 -5 10 -11 10 -5 0 -7 -4 -4 -10z"></path> <path d="M2505 779 c-4 -6 -5 -12 -2 -15 2 -3 7 2 10 11 7 17 1 20 -8 4z"></path> <path d="M3190 670 c-59 -7 -69 -15 -68 -49 1 -33 17 -41 85 -41 44 0 73 19 73 48 -1 39 -25 51 -90 42z m67 -21 c23 -23 3 -47 -45 -51 -60 -6 -74 0 -70 26 2 14 13 23 33 27 48 10 70 10 82 -2z"></path> <path d="M2670 606 c0 -2 7 -7 16 -10 8 -3 12 -2 9 4 -6 10 -25 14 -25 6z"></path> <path d="M3435 581 c-3 -5 -2 -12 3 -15 5 -3 9 1 9 9 0 17 -3 19 -12 6z"></path> <path d="M3880 2120 c1 -8 7 -24 15 -34 19 -25 19 -16 0 20 -8 16 -15 22 -15 14z"></path> <path d="M1270 2246 c0 -2 8 -10 18 -17 15 -13 16 -12 3 4 -13 16 -21 21 -21 13z"></path> <path d="M1416 2005 c4 -8 7 -15 9 -15 2 0 5 7 9 15 3 9 0 15 -9 15 -9 0 -12 -6 -9 -15z"></path> <path d="M2195 1350 c3 -5 8 -10 11 -10 2 0 4 5 4 10 0 6 -5 10 -11 10 -5 0 -7 -4 -4 -10z"></path> <path d="M3885 870 c-3 -5 -1 -10 4 -10 6 0 11 5 11 10 0 6 -2 10 -4 10 -3 0 -8 -4 -11 -10z"></path> <path d="M2544 605 c3 -20 26 -44 26 -27 0 7 -5 12 -11 12 -5 0 -8 4 -4 9 3 5 1 12 -4 15 -5 4 -8 -1 -7 -9z"></path> <path d="M1233 2167 c0 -8 6 -14 14 -14 9 0 10 4 2 14 -6 7 -12 13 -14 13 -1 0 -2 -6 -2 -13z"></path> </g> </svg>