<?xml version="1.0" standalone="no"?>
<!DOCTYPE svg PUBLIC "-//W3C//DTD SVG 20010904//EN"
 "http://www.w3.org/TR/2001/REC-SVG-20010904/DTD/svg10.dtd">
<svg version="1.0" xmlns="http://www.w3.org/2000/svg"
 width="60" height="60" viewBox="0 0 500 500"
 preserveAspectRatio="xMidYMid meet">

 <g transform="translate(0,500) scale(0.1,-0.1)"
 fill="none" stroke="#000000" stroke-width="10">
   
<path d="M925 4906 c-16 -8 -73 -31 -125 -51 -132 -51 -168 -75 -268 -174
-126 -124 -186 -203 -239 -311 -25 -52 -63 -123 -84 -158 -21 -35 -42 -77 -47
-95 -5 -18 -6 -108 -3 -200 l6 -169 29 -25 29 -25 8 -176 c4 -98 10 -193 13
-212 3 -19 13 -80 22 -135 28 -165 22 -294 -19 -470 -20 -82 -52 -226 -72
-320 -20 -93 -42 -197 -50 -230 -57 -249 -92 -567 -77 -697 23 -185 89 -360
183 -484 154 -203 377 -323 603 -324 l78 0 62 -48 c156 -123 282 -163 521
-166 126 -1 132 0 190 29 40 20 95 64 163 130 88 85 110 112 142 180 59 121
89 227 105 365 19 157 19 226 0 331 -19 113 -51 202 -118 334 -31 61 -72 153
-91 205 -19 52 -47 126 -61 164 -14 39 -33 113 -40 165 -16 106 -20 261 -6
261 4 0 19 -8 32 -18 51 -38 151 -93 324 -180 204 -101 339 -159 605 -261 102
-38 228 -89 280 -112 185 -80 367 -144 480 -166 41 -8 129 -17 195 -20 130 -5
122 -2 313 -105 55 -30 135 -38 185 -19 17 7 44 4 93 -10 38 -11 75 -17 82
-14 7 2 56 12 110 20 117 19 182 48 321 145 92 64 106 78 128 127 29 63 48
198 40 281 -15 151 -210 356 -476 501 -111 60 -303 194 -381 264 -116 106
-125 109 -355 111 -156 2 -204 14 -345 87 -41 21 -135 67 -207 103 -73 36
-178 92 -233 126 -55 33 -103 60 -107 60 -3 0 -42 26 -87 58 -90 64 -191 129
-278 178 -68 38 -414 285 -588 418 -69 53 -189 139 -268 192 -78 52 -146 104
-152 114 -13 24 -3 132 17 187 37 102 -27 175 -197 221 -100 28 -341 39 -385
18z m387 -45 c72 -21 100 -35 142 -71 43 -39 49 -64 26 -116 -25 -57 -32 -193
-11 -218 8 -9 77 -59 155 -111 78 -52 197 -138 266 -191 174 -133 520 -380
588 -418 92 -52 193 -117 254 -162 52 -39 141 -93 351 -210 42 -24 80 -44 82
-44 3 0 76 -35 163 -79 236 -117 260 -125 427 -127 228 -2 228 -3 345 -110 67
-61 265 -197 371 -255 125 -68 241 -153 314 -231 143 -152 149 -163 149 -303
1 -107 -18 -225 -36 -225 -4 0 -8 -6 -8 -13 0 -13 -36 -49 -72 -72 -8 -5 -43
-30 -77 -53 -96 -67 -175 -99 -286 -118 -82 -13 -110 -14 -155 -4 -30 7 -61
17 -67 22 -9 7 -18 7 -28 -2 -20 -17 -145 -27 -145 -11 0 6 -7 11 -16 11 -9 0
-28 8 -42 19 -15 10 -55 31 -89 47 -35 15 -63 32 -63 37 0 4 -48 7 -107 7 -60
-1 -115 1 -123 4 -8 3 -55 12 -105 21 -124 23 -287 78 -485 164 -52 23 -178
74 -280 112 -102 39 -239 93 -305 121 -131 55 -473 224 -539 265 -131 84 -144
94 -150 118 -4 16 -16 27 -34 31 -15 4 -33 16 -40 26 -7 10 -18 18 -24 18 -6
0 -4 -8 5 -18 14 -15 15 -25 6 -58 -18 -64 -20 -91 -22 -261 -1 -90 -5 -163
-9 -163 -16 0 22 -89 64 -151 25 -37 52 -94 62 -128 15 -55 30 -80 42 -69 6 7
-53 167 -69 187 -79 93 -97 256 -57 521 7 47 14 86 15 88 2 2 12 -1 23 -7 17
-9 20 -26 25 -168 9 -222 14 -242 155 -603 14 -36 47 -105 73 -155 58 -110 83
-191 105 -336 13 -90 14 -127 5 -188 -5 -42 -13 -103 -16 -136 -8 -85 -52
-222 -108 -335 -28 -57 -155 -191 -227 -240 -90 -61 -138 -73 -260 -65 -229
14 -340 52 -486 167 l-62 48 -78 0 c-130 0 -286 50 -403 129 -106 71 -227 215
-281 335 -38 84 -78 229 -91 328 -16 126 15 388 81 688 10 47 31 141 45 210
15 69 44 199 65 290 49 208 57 317 35 470 -38 271 -44 332 -45 462 l0 137 -29
16 c-38 19 -44 54 -39 245 l3 145 41 65 c23 36 62 108 87 160 26 52 74 129
108 170 72 90 198 213 250 246 39 24 192 87 242 99 15 4 27 11 27 17 0 16 299
0 372 -21z"/>
<path d="M885 4818 c11 -6 27 -16 35 -22 9 -6 5 -1 -8 12 -13 12 -28 22 -35
22 -7 0 -3 -6 8 -12z"/>
<path d="M945 4820 c3 -5 13 -10 21 -10 8 0 12 5 9 10 -3 6 -13 10 -21 10 -8
0 -12 -4 -9 -10z"/>
<path d="M1382 4779 c-12 -18 -11 -20 5 -17 10 2 19 11 21 21 5 23 -10 21 -26
-4z"/>
<path d="M1070 4770 c0 -5 4 -10 9 -10 5 0 18 -3 28 -6 16 -6 16 -5 -2 9 -23
19 -35 21 -35 7z"/>
<path d="M527 4574 c-4 -4 -7 -14 -7 -23 0 -11 3 -12 11 -4 6 6 10 16 7 23 -2
6 -7 8 -11 4z"/>
<path d="M480 4521 c-6 -12 -7 -21 -1 -21 10 0 24 30 17 37 -2 3 -9 -5 -16
-16z"/>
<path d="M440 4475 c-7 -8 -8 -15 -2 -15 5 0 15 7 22 15 7 8 8 15 2 15 -5 0
-15 -7 -22 -15z"/>
<path d="M586 4386 c-62 -133 -69 -146 -76 -146 -11 0 -60 -85 -60 -102 1 -7
8 1 17 17 9 17 30 46 47 65 17 19 39 53 50 75 10 22 28 58 38 80 11 23 19 48
17 56 -2 8 -17 -12 -33 -45z"/>
<path d="M551 4427 c-6 -8 -17 -33 -26 -56 -8 -23 -34 -68 -59 -99 -43 -56
-70 -112 -47 -98 6 4 11 12 11 17 0 5 22 38 50 74 27 35 52 76 56 92 4 15 13
40 21 56 15 29 12 35 -6 14z"/>
<path d="M491 4398 c-20 -54 -23 -70 -12 -64 6 4 11 14 11 22 0 8 7 26 16 39
10 16 12 25 5 25 -6 0 -15 -10 -20 -22z"/>
<path d="M635 4365 c-32 -32 -48 -64 -26 -50 13 8 74 85 67 85 -3 0 -21 -16
-41 -35z"/>
<path d="M341 4308 c0 -9 -4 -25 -7 -35 -5 -17 -5 -17 6 0 6 10 9 25 7 35 -4
15 -5 15 -6 0z"/>
<path d="M540 4203 c-49 -72 -65 -103 -50 -103 6 0 10 6 10 13 0 6 21 38 46
70 25 32 44 64 42 72 -2 7 -23 -16 -48 -52z"/>
<path d="M1306 4203 c-11 -11 -6 -23 9 -23 8 0 15 4 15 9 0 13 -16 22 -24 14z"/>
<path d="M1332 4155 c-11 -13 -9 -15 10 -12 14 1 26 -6 33 -20 7 -13 15 -20
18 -17 6 6 -32 64 -42 64 -3 -1 -12 -7 -19 -15z"/>
<path d="M460 4070 c-8 -5 -11 -12 -7 -16 4 -4 13 -2 19 4 15 15 7 24 -12 12z"/>
<path d="M412 3996 c-7 -16 -8 -26 -1 -26 12 0 22 25 17 41 -2 6 -9 0 -16 -15z"/>
<path d="M473 3985 c-9 -24 1 -27 15 -5 8 13 8 20 2 20 -6 0 -13 -7 -17 -15z"/>
<path d="M661 3940 c-2 -3 -5 -21 -8 -40 -3 -26 -2 -32 7 -24 6 6 10 24 7 40
-2 16 -5 27 -6 24z"/>
<path d="M932 3788 c-1 -18 -6 -48 -11 -65 -16 -55 4 -37 22 19 14 44 14 55 3
66 -10 11 -13 7 -14 -20z"/>
<path d="M736 3773 c-17 -61 -67 -316 -81 -413 -10 -63 -30 -165 -46 -226 -16
-61 -29 -126 -28 -145 0 -30 2 -28 19 25 30 93 85 345 109 496 5 36 19 111 29
168 11 56 16 105 11 107 -4 3 -10 -3 -13 -12z"/>
<path d="M662 3755 c-7 -14 -12 -34 -12 -43 0 -10 -6 -26 -14 -37 -16 -23 -52
-218 -61 -325 -3 -41 -9 -88 -12 -105 -5 -28 -4 -29 12 -14 12 12 18 39 21 95
3 44 12 117 20 164 8 47 18 101 21 120 3 19 11 46 18 60 13 26 30 110 22 110
-2 0 -9 -11 -15 -25z"/>
<path d="M1230 3720 c0 -19 3 -21 12 -12 9 9 9 15 0 24 -9 9 -12 7 -12 -12z"/>
<path d="M1949 3686 c7 -8 11 -21 9 -30 -2 -8 2 -15 7 -15 9 0 9 18 0 47 -2 6
-10 12 -16 12 -8 0 -8 -4 0 -14z"/>
<path d="M921 3598 c3 -71 -14 -163 -42 -225 -11 -24 -19 -46 -19 -49 0 -8
-33 -78 -39 -84 -4 -3 -7 -12 -8 -20 -1 -8 -9 -42 -17 -75 -21 -83 -64 -273
-70 -312 -9 -54 12 -37 23 20 27 125 54 236 72 293 10 33 19 68 19 77 0 9 4
17 9 17 5 0 19 32 31 70 12 39 26 70 30 70 4 0 11 20 14 44 4 24 15 67 25 95
12 31 15 50 8 48 -10 -2 -13 8 -16 68 0 14 -6 25 -12 25 -6 0 -9 -24 -8 -62z"/>
<path d="M487 3596 c-8 -24 -13 -47 -10 -50 3 -3 1 -11 -5 -18 -5 -7 -13 -41
-16 -75 -3 -33 -10 -72 -15 -85 -5 -13 -9 -70 -9 -126 -1 -121 -20 -178 -23
-67 -1 39 -3 77 -4 85 -12 120 -19 159 -25 155 -4 -2 -3 -30 1 -61 7 -50 13
-254 10 -341 -1 -21 -6 -33 -15 -33 -9 0 -15 -21 -20 -69 -12 -115 -23 -164
-62 -275 -25 -69 -28 -111 -6 -69 26 47 84 241 89 293 2 30 11 72 18 92 25 65
44 163 55 279 13 138 26 230 47 327 18 83 12 104 -10 38z"/>
<path d="M1021 3628 c0 -9 4 -20 10 -24 6 -3 8 -17 5 -29 -3 -13 -2 -26 3 -29
5 -3 11 8 15 25 9 45 8 52 -8 46 -9 -4 -17 1 -19 11 -4 16 -5 16 -6 0z"/>
<path d="M881 3603 c-1 -17 4 -35 9 -38 12 -7 12 22 0 50 -7 17 -9 15 -9 -12z"/>
<path d="M550 3555 c0 -14 2 -25 4 -25 2 0 6 11 8 25 3 14 1 25 -3 25 -5 0 -9
-11 -9 -25z"/>
<path d="M536 3433 c-3 -48 -3 -90 2 -95 4 -4 9 35 10 87 2 52 1 95 -1 95 -2
0 -7 -39 -11 -87z"/>
<path d="M1030 3496 c0 -8 5 -18 10 -21 6 -3 10 3 10 14 0 12 -4 21 -10 21 -5
0 -10 -6 -10 -14z"/>
<path d="M1098 3454 c-4 -3 -3 -15 3 -26 5 -10 8 -22 6 -26 -3 -4 -1 -16 4
-27 6 -17 8 -15 7 10 0 40 -11 78 -20 69z"/>
<path d="M1050 3410 c-1 -25 -4 -58 -6 -75 l-5 -30 16 29 c16 31 18 70 5 101
-7 15 -9 10 -10 -25z"/>
<path d="M951 3423 c-1 -12 4 -25 9 -28 12 -7 12 2 0 30 -8 19 -9 19 -9 -2z"/>
<path d="M2672 3365 c-17 -19 -1 -19 24 0 14 11 15 14 4 14 -8 0 -21 -6 -28
-14z"/>
<path d="M2613 3332 c-16 -10 -35 -61 -27 -73 8 -13 33 20 34 44 0 9 5 17 10
17 6 0 10 5 10 10 0 12 -10 13 -27 2z"/>
<path d="M536 3309 c3 -6 2 -14 -5 -18 -13 -8 -23 -161 -10 -161 5 0 10 18 10
40 2 66 5 94 13 123 6 18 4 27 -4 27 -6 0 -8 -5 -4 -11z"/>
<path d="M2160 3287 c0 -27 4 -37 13 -35 18 7 20 31 3 53 -15 19 -15 18 -16
-18z"/>
<path d="M557 3175 c-3 -22 -9 -52 -12 -67 -4 -16 -3 -28 2 -28 14 0 32 90 23
114 -6 17 -8 14 -13 -19z"/>
<path d="M2077 3197 c-11 -29 -9 -43 4 -30 6 6 9 19 7 29 -3 18 -4 18 -11 1z"/>
<path d="M2080 3141 c0 -5 7 -25 15 -44 8 -20 15 -48 15 -62 0 -14 4 -25 10
-25 5 0 9 12 9 28 -2 36 -21 92 -32 92 -4 0 -5 5 -2 10 3 6 1 10 -4 10 -6 0
-11 -4 -11 -9z"/>
<path d="M497 3091 c-19 -33 -21 -41 -8 -41 10 0 36 58 29 65 -2 2 -12 -9 -21
-24z"/>
<path d="M3726 3082 c-2 -4 -9 -34 -15 -67 -6 -33 -18 -96 -27 -140 -25 -123
-42 -239 -37 -247 11 -19 23 -5 23 26 0 42 54 337 76 414 6 21 -9 32 -20 14z"/>
<path d="M3789 2998 c0 -51 -2 -114 -3 -140 -1 -26 1 -44 5 -40 10 11 18 272
8 272 -5 0 -9 -42 -10 -92z"/>
<path d="M3893 3078 c-26 -33 -38 -378 -13 -378 3 0 7 -42 8 -92 1 -51 6 -118
11 -148 5 -30 15 -93 21 -140 11 -76 26 -136 50 -195 5 -11 11 -40 15 -65 8
-66 19 -79 36 -41 8 17 17 31 21 31 5 0 8 5 8 10 0 6 -7 10 -15 10 -8 0 -15
-8 -15 -17 0 -16 -2 -16 -15 -2 -14 13 -14 22 -3 64 14 52 29 64 56 44 15 -12
16 -12 4 2 -9 12 -10 24 -2 44 10 27 6 45 -10 45 -5 0 -7 -7 -4 -15 6 -14 -33
-73 -48 -74 -13 -1 -9 29 8 53 10 16 12 26 5 31 -6 3 -11 2 -11 -4 0 -6 -7 -8
-15 -5 -10 4 -15 0 -15 -15 0 -12 -4 -21 -9 -21 -6 0 -6 12 0 32 12 45 12 111
-1 103 -6 -4 -8 -15 -5 -25 3 -10 2 -21 -3 -24 -18 -11 -41 306 -33 469 1 33
-2 71 -7 85 -8 20 -9 12 -7 -36 1 -34 -1 -67 -5 -73 -12 -21 -19 111 -9 184
13 95 21 175 16 175 -3 0 -9 -6 -14 -12z"/>
<path d="M3653 3025 c-6 -25 -7 -45 -2 -45 8 0 24 79 17 86 -3 2 -9 -16 -15
-41z"/>
<path d="M3942 3045 c-6 -14 -8 -25 -3 -25 13 0 42 36 34 43 -12 12 -20 8 -31
-18z"/>
<path d="M3610 3042 c0 -11 -3 -34 -7 -52 -4 -23 -3 -31 5 -26 6 3 10 14 10
24 -1 9 2 27 6 39 4 12 2 24 -4 28 -5 3 -10 -2 -10 -13z"/>
<path d="M2474 3042 c4 -7 3 -12 -1 -12 -5 0 -14 -9 -21 -20 -12 -19 -11 -20
8 -8 24 16 33 35 18 44 -7 4 -8 3 -4 -4z"/>
<path d="M3546 3028 c-18 -25 -22 -63 -6 -53 6 3 10 16 10 29 0 12 5 27 12 34
7 7 9 12 6 12 -4 0 -14 -10 -22 -22z"/>
<path d="M478 2985 c-2 -25 1 -50 6 -55 6 -6 3 -12 -8 -16 -14 -5 -15 -9 -4
-15 8 -6 9 -12 3 -16 -5 -5 -11 -21 -11 -38 -1 -16 -5 -41 -8 -55 -4 -15 1
-10 15 15 17 30 23 62 27 133 3 60 1 92 -6 92 -5 0 -12 -20 -14 -45z"/>
<path d="M1319 2964 c19 -16 47 -37 63 -48 23 -15 27 -15 22 -2 -3 8 -19 21
-35 28 -16 7 -29 19 -29 25 0 7 -4 13 -9 13 -5 0 -18 3 -28 6 -10 3 -3 -7 16
-22z"/>
<path d="M3917 2983 c-6 -9 -10 -91 -6 -108 1 -5 5 17 9 50 7 61 6 73 -3 58z"/>
<path d="M2393 2966 c0 -11 5 -13 19 -5 10 5 18 12 18 14 0 3 -8 5 -18 5 -10
0 -19 -7 -19 -14z"/>
<path d="M3734 2934 c-7 -47 1 -213 12 -266 4 -16 11 -28 16 -28 6 0 8 10 4
23 -3 12 -9 87 -12 167 -4 80 -8 147 -10 148 -1 2 -6 -18 -10 -44z"/>
<path d="M2146 2955 c-5 -15 14 -45 28 -45 11 0 6 25 -8 43 -12 16 -14 16 -20
2z"/>
<path d="M2225 2950 c3 -5 13 -10 21 -10 8 0 14 5 14 10 0 6 -9 10 -21 10 -11
0 -17 -4 -14 -10z"/>
<path d="M3592 2895 c-7 -33 -16 -75 -21 -92 -5 -18 -6 -35 -1 -38 11 -7 42
118 38 156 -3 30 -5 27 -16 -26z"/>
<path d="M1222 2888 c-31 -141 -22 -299 24 -453 8 -27 21 -84 29 -125 22 -124
66 -263 105 -332 12 -21 47 -227 57 -333 l8 -80 3 70 c2 38 8 72 13 76 7 4 7
20 -2 50 -7 24 -13 53 -14 64 -1 21 -31 126 -44 160 -5 11 -19 44 -32 74 -13
30 -24 57 -24 60 -1 3 -6 22 -13 41 -11 31 -23 86 -76 330 -27 120 -28 135
-31 237 -2 67 2 118 11 149 16 55 17 64 6 64 -5 0 -14 -24 -20 -52z"/>
<path d="M3410 2878 c0 -17 3 -28 7 -25 9 10 10 57 1 57 -4 0 -8 -14 -8 -32z"/>
<path d="M1474 2871 c17 -17 34 -31 39 -31 14 0 -23 39 -48 52 -14 8 -12 2 9
-21z"/>
<path d="M421 2830 c0 -33 1 -34 10 -11 6 16 6 28 -1 35 -7 7 -10 -1 -9 -24z"/>
<path d="M593 2833 c-18 -7 -16 -33 2 -33 8 0 15 9 15 20 0 11 -1 20 -2 19 -2
0 -9 -3 -15 -6z"/>
<path d="M1522 2813 c2 -9 9 -18 16 -21 18 -6 15 25 -4 32 -11 4 -14 1 -12
-11z"/>
<path d="M2220 2823 c1 -14 30 -48 30 -34 0 7 -7 19 -15 27 -8 9 -15 12 -15 7z"/>
<path d="M3404 2791 c3 -24 7 -46 10 -48 8 -9 4 64 -5 78 -6 9 -8 -1 -5 -30z"/>
<path d="M3621 2820 c-1 -8 -4 -26 -7 -40 -5 -19 -4 -22 5 -14 7 6 11 24 8 40
-2 16 -5 22 -6 14z"/>
<path d="M702 2738 c-14 -14 -16 -48 -3 -48 9 0 25 49 18 56 -2 2 -9 -2 -15
-8z"/>
<path d="M1612 2693 c-1 -27 -4 -61 -8 -78 -4 -22 -3 -27 5 -20 13 13 34 121
26 135 -13 21 -21 8 -23 -37z"/>
<path d="M601 2709 c-5 -13 -6 -28 -3 -34 3 -5 9 4 14 20 9 36 2 46 -11 14z"/>
<path d="M3704 2587 c1 -81 4 -147 9 -147 4 0 7 36 7 79 0 54 4 81 13 84 10 4
10 6 0 6 -8 1 -13 17 -14 44 0 23 -4 51 -8 61 -4 11 -7 -47 -7 -127z"/>
<path d="M3783 2680 c5 -44 17 -49 17 -7 0 21 -4 37 -10 37 -5 0 -8 -14 -7
-30z"/>
<path d="M673 2642 c-6 -20 -10 -38 -8 -40 8 -8 23 9 29 34 11 42 -8 47 -21 6z"/>
<path d="M3945 2646 c2 -22 9 -44 15 -50 7 -7 8 -2 1 19 -5 17 -12 39 -15 50
-3 11 -3 2 -1 -19z"/>
<path d="M370 2640 c0 -12 -9 -40 -20 -62 -23 -48 -24 -52 -9 -42 14 8 48 84
49 107 0 9 -4 17 -10 17 -5 0 -10 -9 -10 -20z"/>
<path d="M587 2653 c-2 -5 -1 -19 4 -33 7 -23 7 -23 8 8 1 31 -3 40 -12 25z"/>
<path d="M487 2627 c-4 -10 -7 -31 -6 -45 l0 -27 10 25 c5 13 8 33 7 45 -3 19
-4 19 -11 2z"/>
<path d="M536 2583 c-3 -21 -7 -76 -9 -123 -3 -47 -3 -71 0 -55 2 17 8 41 13
55 13 37 22 160 11 160 -5 0 -12 -17 -15 -37z"/>
<path d="M3586 2584 c-4 -20 -5 -38 -3 -40 3 -3 8 11 11 32 4 20 5 38 3 40 -3
3 -8 -11 -11 -32z"/>
<path d="M3856 2589 c-3 -19 -4 -79 -2 -134 4 -138 5 -145 14 -145 8 0 6 300
-3 308 -2 2 -6 -11 -9 -29z"/>
<path d="M3662 2580 c0 -16 4 -32 9 -35 5 -4 9 7 9 24 0 39 -17 49 -18 11z"/>
<path d="M3813 2560 c0 -25 2 -35 4 -22 2 12 2 32 0 45 -2 12 -4 2 -4 -23z"/>
<path d="M650 2523 c-7 -38 -25 -102 -41 -145 -15 -42 -30 -107 -34 -145 -8
-72 -16 -94 -46 -127 -21 -21 -20 -29 2 -21 26 10 58 81 65 146 4 35 16 89 26
119 16 46 58 217 58 235 0 3 -4 5 -9 5 -5 0 -14 -30 -21 -67z"/>
<path d="M457 2553 c-9 -9 -9 -43 1 -43 4 0 8 11 8 25 2 27 1 29 -9 18z"/>
<path d="M3490 2515 c0 -8 5 -15 10 -15 6 0 10 7 10 15 0 8 -4 15 -10 15 -5 0
-10 -7 -10 -15z"/>
<path d="M3950 2496 c0 -14 5 -26 10 -26 6 0 10 9 10 19 0 11 -4 23 -10 26 -6
4 -10 -5 -10 -19z"/>
<path d="M440 2468 c0 -25 3 -29 10 -18 13 20 13 50 0 50 -5 0 -10 -15 -10
-32z"/>
<path d="M3815 2415 c3 -116 15 -121 15 -7 0 51 -4 92 -8 92 -5 0 -8 -38 -7
-85z"/>
<path d="M600 2465 c0 -14 -5 -25 -11 -25 -5 0 -7 -5 -3 -11 8 -14 20 -1 28
34 4 16 2 27 -4 27 -5 0 -10 -11 -10 -25z"/>
<path d="M3487 2483 c-4 -3 -7 -16 -7 -29 0 -30 -10 -55 -20 -49 -4 3 -11 -21
-15 -52 -4 -31 -11 -66 -15 -78 -4 -11 -11 -50 -15 -85 -4 -36 -9 -69 -12 -75
-3 -5 1 -3 10 5 10 9 18 40 22 80 3 35 10 69 16 76 5 6 12 33 15 60 4 27 10
54 15 59 9 12 24 95 17 95 -3 0 -8 -3 -11 -7z"/>
<path d="M3542 2421 c-7 -31 -12 -66 -11 -77 0 -16 2 -15 11 6 6 14 12 32 14
40 12 64 14 79 6 84 -4 3 -14 -21 -20 -53z"/>
<path d="M406 2448 c-5 -16 -5 -40 0 -55 l8 -28 4 28 c2 15 2 39 0 55 l-4 27
-8 -27z"/>
<path d="M1691 2400 c2 -87 6 -100 26 -100 8 0 11 5 8 10 -4 6 -8 27 -11 48
-14 129 -27 151 -23 42z"/>
<path d="M3768 2453 c-3 -11 0 -61 7 -110 29 -191 37 -249 38 -280 1 -17 6
-35 11 -40 5 -4 6 20 2 57 -23 241 -49 407 -58 373z"/>
<path d="M235 2430 c-4 -17 -5 -34 -2 -36 2 -3 7 10 11 27 8 42 0 50 -9 9z"/>
<path d="M3724 2404 c-4 -22 -2 -40 5 -47 8 -8 11 1 11 36 0 56 -7 61 -16 11z"/>
<path d="M3956 2411 c-5 -14 -4 -27 3 -34 15 -15 18 -7 11 28 -6 29 -6 29 -14
6z"/>
<path d="M3402 2370 c0 -19 2 -27 5 -17 2 9 2 25 0 35 -3 9 -5 1 -5 -18z"/>
<path d="M3360 2375 c-7 -43 -5 -94 3 -86 4 4 6 30 4 57 -2 27 -5 40 -7 29z"/>
<path d="M546 2352 c-3 -5 -8 -29 -11 -53 -4 -30 -3 -39 3 -29 10 15 23 90 16
90 -1 0 -5 -4 -8 -8z"/>
<path d="M3586 2329 c-15 -109 -21 -181 -14 -192 5 -8 8 -5 8 8 0 11 5 62 10
114 6 52 8 96 6 99 -3 2 -7 -11 -10 -29z"/>
<path d="M479 2313 c0 -10 -2 -25 -3 -33 -8 -40 -17 -312 -11 -330 13 -41 20
-18 21 67 1 49 3 139 5 201 3 61 1 112 -3 112 -5 0 -8 -8 -9 -17z"/>
<path d="M1410 2271 c0 -34 4 -60 9 -57 8 6 4 106 -5 115 -2 2 -4 -24 -4 -58z"/>
<path d="M3717 2323 c-4 -3 -6 -34 -5 -67 l1 -61 7 65 c7 70 7 73 -3 63z"/>
<path d="M3752 2260 c-1 -36 3 -83 7 -105 9 -40 9 -40 9 15 0 30 -3 78 -8 105
l-7 50 -1 -65z"/>
<path d="M427 2288 c-6 -22 1 -99 9 -107 2 -2 4 26 4 62 0 70 -4 83 -13 45z"/>
<path d="M1467 2303 c-3 -5 -1 -17 4 -28 7 -17 8 -17 8 8 1 27 -4 34 -12 20z"/>
<path d="M1700 2274 c0 -8 5 -12 11 -8 8 5 8 1 0 -14 -8 -16 -7 -21 5 -26 11
-4 14 -13 10 -31 -4 -15 -2 -25 4 -25 6 0 9 -4 5 -9 -3 -5 0 -13 6 -17 8 -4 9
-3 5 4 -4 7 -1 12 6 12 8 0 7 4 -4 11 -13 7 -15 15 -9 32 10 29 -6 87 -24 87
-8 0 -15 -7 -15 -16z"/>
<path d="M3617 2228 c-3 -35 -4 -74 -2 -88 2 -14 4 -33 4 -43 1 -10 5 -16 9
-13 5 3 6 29 3 58 -4 29 -4 74 -1 101 3 26 3 47 -1 47 -3 0 -9 -28 -12 -62z"/>
<path d="M3677 2243 c-12 -20 -19 -182 -8 -199 12 -21 14 -4 15 134 1 73 1 78
-7 65z"/>
<path d="M4900 2196 c0 -8 5 -18 10 -21 6 -3 10 1 10 9 0 8 -4 18 -10 21 -5 3
-10 -1 -10 -9z"/>
<path d="M3723 2158 c4 -18 9 -70 13 -115 4 -46 11 -80 16 -77 5 3 6 21 2 41
-5 25 -3 38 7 44 8 5 9 9 3 9 -7 0 -15 27 -19 65 -3 36 -11 65 -17 65 -6 0 -8
-13 -5 -32z"/>
<path d="M1474 2157 c3 -10 6 -33 6 -51 0 -18 7 -41 16 -52 15 -19 15 -19 6 1
-5 11 -10 38 -11 60 -1 22 -7 44 -13 50 -8 7 -9 5 -4 -8z"/>
<path d="M1543 2105 c0 -27 2 -38 4 -22 2 15 2 37 0 50 -2 12 -4 0 -4 -28z"/>
<path d="M1781 2099 c-2 -33 12 -109 20 -109 5 0 9 10 8 23 -1 28 -27 107 -28
86z"/>
<path d="M418 2078 c-2 -7 -1 -26 3 -43 6 -28 7 -26 8 13 1 42 -3 53 -11 30z"/>
<path d="M3540 2055 c0 -14 2 -25 4 -25 2 0 6 11 8 25 3 14 1 25 -3 25 -5 0
-9 -11 -9 -25z"/>
<path d="M3861 2011 c0 -33 3 -51 8 -45 5 5 5 29 1 54 l-7 45 -2 -54z"/>
<path d="M370 2006 c0 -19 4 -37 9 -40 4 -3 8 12 8 34 0 22 -4 40 -8 40 -5 0
-9 -15 -9 -34z"/>
<path d="M3640 1996 c0 -8 5 -18 10 -21 6 -3 10 3 10 14 0 12 -4 21 -10 21 -5
0 -10 -6 -10 -14z"/>
<path d="M3810 2000 c0 -8 5 -22 10 -30 9 -13 10 -13 10 0 0 8 -5 22 -10 30
-9 13 -10 13 -10 0z"/>
<path d="M4030 1985 c0 -14 4 -33 9 -43 5 -9 14 -29 20 -44 6 -16 18 -28 28
-28 9 0 30 -15 46 -32 l29 -33 -21 38 c-12 21 -21 52 -21 68 0 18 -4 28 -10
24 -5 -3 -10 -17 -10 -31 0 -15 -6 -24 -15 -24 -11 0 -14 7 -9 25 4 17 1 32
-11 45 -11 12 -14 26 -10 39 5 15 2 21 -9 21 -10 0 -16 -9 -16 -25z"/>
<path d="M1610 1973 c0 -5 5 -15 10 -23 8 -12 10 -11 10 8 0 12 -4 22 -10 22
-5 0 -10 -3 -10 -7z"/>
<path d="M3672 1918 c2 -12 10 -23 18 -26 12 -3 12 -2 3 8 -6 7 -9 19 -6 26 3
8 0 14 -7 14 -6 0 -10 -10 -8 -22z"/>
<path d="M3805 1907 c-4 -10 -5 -21 -1 -24 10 -10 18 4 13 24 -4 17 -4 17 -12
0z"/>
<path d="M1819 1885 c-6 -23 9 -62 33 -89 21 -23 23 -14 6 17 -7 12 -18 38
-24 57 -8 28 -12 31 -15 15z"/>
<path d="M1480 1874 c0 -5 7 -27 15 -49 l15 -40 -2 38 c-1 21 -8 43 -15 49 -7
6 -13 7 -13 2z"/>
<path d="M313 1793 c4 -21 9 -80 13 -130 4 -51 11 -93 16 -93 5 0 6 40 3 93
-6 90 -20 167 -32 167 -3 0 -3 -17 0 -37z"/>
<path d="M1537 1786 c3 -15 10 -29 15 -32 6 -4 7 2 3 17 -10 35 -23 45 -18 15z"/>
<path d="M1512 1750 c0 -19 2 -27 5 -17 2 9 2 25 0 35 -3 9 -5 1 -5 -18z"/>
<path d="M1564 1716 c9 -37 37 -196 39 -223 1 -11 6 -19 10 -16 17 11 -24 246
-46 260 -6 4 -8 -3 -3 -21z"/>
<path d="M1530 1635 c-3 -86 -5 -103 -15 -135 -12 -39 7 -14 22 28 14 41 16
113 3 152 -6 18 -9 7 -10 -45z"/>
<path d="M1476 1644 c3 -28 -1 -78 -9 -112 -12 -50 -12 -62 -1 -62 28 0 40
164 15 208 -7 12 -9 2 -5 -34z"/>
<path d="M1459 1423 c-5 -16 -20 -55 -33 -88 -13 -33 -34 -89 -45 -125 -12
-36 -24 -73 -28 -82 -10 -31 12 -19 26 15 8 17 25 40 38 50 13 10 23 26 23 34
0 14 -3 14 -20 -2 -11 -10 -20 -15 -20 -12 0 4 18 48 39 99 22 51 42 103 46
116 9 32 -13 28 -26 -5z"/>
<path d="M1545 1425 c-3 -8 -8 -23 -11 -32 -4 -14 -3 -15 7 -6 7 7 13 22 14
33 2 24 -4 26 -10 5z"/>
<path d="M1474 1314 c-4 -10 -14 -27 -22 -37 -8 -9 -12 -20 -9 -23 10 -11 34
15 42 43 7 30 -2 44 -11 17z"/>
<path d="M1479 1198 l-22 -43 23 20 c29 26 43 52 30 60 -5 3 -19 -14 -31 -37z"/>
<path d="M1539 1187 c-20 -12 -44 -30 -53 -39 -10 -10 -23 -18 -29 -18 -7 0
-37 -25 -67 -55 -30 -31 -80 -72 -112 -92 -31 -20 -60 -43 -63 -52 -4 -11 -1
-10 15 4 11 10 20 15 20 11 0 -10 99 62 140 102 19 19 55 48 79 65 24 16 52
38 63 49 10 10 25 18 33 18 8 0 15 7 15 15 0 8 -1 15 -2 14 -2 0 -19 -11 -39
-22z"/>
</g>
</svg>
