<?xml version="1.0" standalone="no"?>
<!DOCTYPE svg PUBLIC "-//W3C//DTD SVG 20010904//EN"
 "http://www.w3.org/TR/2001/REC-SVG-20010904/DTD/svg10.dtd">
<svg version="1.0" xmlns="http://www.w3.org/2000/svg"
 width="60" height="60" viewBox="0 0 500 500"
 preserveAspectRatio="xMidYMid meet">
<g transform="translate(0,500) scale(0.1,-0.1)"
 fill="none" stroke="#FF1493" stroke-width="12">
  
<path d="M2393 4299 c-17 -5 -48 -25 -67 -44 -20 -19 -36 -32 -36 -28 0 12
-51 -42 -73 -77 -11 -19 -24 -37 -28 -40 -3 -3 -20 -32 -37 -65 -74 -145 -119
-275 -162 -465 -12 -52 -28 -125 -37 -162 -8 -38 -12 -80 -8 -97 4 -20 3 -31
-4 -31 -6 0 -11 -8 -11 -18 0 -39 -130 -312 -149 -312 -14 0 -131 -121 -131
-135 0 -2 -10 -21 -22 -42 -33 -55 -69 -135 -58 -128 5 3 -1 -17 -13 -44 -12
-27 -23 -45 -25 -41 -2 5 2 19 8 32 11 22 11 22 -5 3 -9 -11 -14 -29 -11 -39
3 -11 -4 -45 -14 -77 -60 -176 -69 -557 -19 -734 32 -112 112 -292 148 -333 9
-10 17 -23 18 -30 5 -24 208 -341 226 -353 5 -4 6 -12 2 -19 -5 -8 -4 -11 3
-6 6 3 13 2 17 -4 4 -6 11 -7 17 -4 7 4 8 2 4 -5 -5 -7 11 -34 40 -67 34 -41
49 -52 55 -42 12 19 11 0 -2 -23 -10 -19 -12 -18 -40 17 -16 20 -29 33 -29 28
1 -25 172 -224 178 -206 5 17 3 27 -7 27 -14 0 -111 108 -105 117 3 5 30 -17
60 -49 30 -32 59 -57 65 -55 6 1 8 -1 5 -6 -12 -21 139 -133 220 -163 72 -27
120 -21 211 25 56 27 90 57 185 157 64 68 144 160 178 204 33 44 66 87 73 95
64 77 240 358 285 455 18 39 38 78 43 88 5 10 7 23 3 30 -4 7 -3 8 1 4 8 -7
29 44 41 102 3 13 9 31 13 40 18 33 31 191 27 326 -7 273 -67 510 -155 605
-17 19 -31 38 -31 43 0 4 -6 5 -12 1 -7 -4 -10 -4 -6 1 4 4 -6 27 -22 51 -17
23 -30 46 -30 50 0 15 43 -32 60 -67 19 -37 50 -69 50 -51 0 5 -7 15 -15 22
-8 7 -15 17 -15 22 0 5 -14 30 -32 54 -30 42 -32 43 -50 27 -10 -9 -19 -12
-19 -7 -5 36 -15 59 -59 124 -21 30 -48 80 -61 110 -12 30 -25 57 -28 60 -4 3
-7 12 -9 20 -2 8 -10 30 -18 48 -9 18 -18 49 -21 68 -3 20 -9 31 -13 24 -4 -7
-13 6 -22 32 -9 24 -39 103 -67 177 -29 74 -77 220 -107 325 -31 107 -73 227
-96 273 -22 45 -39 85 -39 88 3 11 -68 66 -110 85 -48 22 -59 23 -106 9z m97
-39 c0 -6 -14 -13 -30 -17 -17 -3 -33 -10 -36 -14 -3 -5 -10 -9 -15 -9 -6 0
-7 5 -3 12 4 7 3 8 -5 4 -6 -4 -8 -12 -5 -18 4 -6 1 -9 -7 -6 -11 4 -33 -16
-94 -84 -35 -40 -12 -28 31 15 28 29 72 59 110 77 58 26 109 36 99 19 -3 -3 4
-14 15 -24 11 -10 20 -24 20 -32 0 -8 4 -12 8 -9 5 3 19 -17 31 -44 13 -28 26
-50 31 -50 4 0 6 -9 3 -20 -3 -11 -9 -18 -13 -15 -5 3 -1 -17 8 -44 10 -28 19
-45 21 -40 1 6 -3 24 -9 40 -9 21 -10 33 -2 41 7 7 10 6 9 -3 -2 -29 26 -109
36 -102 6 3 7 1 3 -5 -8 -14 29 -155 84 -320 23 -67 38 -127 34 -134 -4 -6 -3
-8 4 -4 6 3 14 -4 18 -16 3 -13 24 -63 46 -111 22 -49 37 -95 34 -104 -6 -14
-4 -14 11 -2 9 8 14 9 10 2 -8 -14 97 -237 125 -265 11 -11 17 -26 14 -34 -8
-22 35 -78 47 -62 6 9 7 8 3 -5 -7 -22 14 -68 27 -60 6 3 7 2 4 -3 -3 -6 11
-28 32 -51 47 -51 60 -98 30 -114 -11 -6 -27 -8 -35 -5 -9 4 -12 2 -8 -5 8
-13 -32 -3 -56 14 -9 7 -8 3 3 -8 37 -41 158 -8 124 34 -10 12 -9 12 11 2 13
-7 21 -15 18 -18 -3 -3 3 -22 14 -43 10 -20 24 -59 31 -86 7 -27 18 -58 25
-69 6 -11 18 -50 25 -88 15 -80 6 -118 -31 -128 l-25 -7 27 -1 c15 -1 30 4 33
9 3 6 11 10 16 10 7 0 10 -41 7 -116 -3 -106 -5 -117 -25 -134 -30 -24 -29
-35 1 -15 23 15 25 15 28 -2 3 -17 -10 -114 -31 -219 -13 -65 -41 -135 -51
-129 -5 3 -12 0 -16 -6 -5 -8 -3 -9 6 -4 10 6 12 4 7 -9 -4 -10 -7 -22 -7 -27
0 -6 -4 -7 -10 -4 -6 3 -7 -1 -4 -10 6 -15 -15 -80 -23 -71 -3 2 1 14 7 26 6
12 9 24 7 27 -9 8 -38 -56 -35 -75 2 -9 -3 -16 -10 -14 -7 1 -21 -13 -32 -30
-20 -33 -29 -67 -10 -38 6 9 10 10 10 3 0 -6 -6 -18 -13 -25 -7 -7 -18 -26
-25 -42 -11 -24 -15 -27 -22 -15 -7 10 -9 6 -7 -15 1 -16 -4 -31 -10 -33 -7
-3 -13 0 -13 7 0 6 5 8 10 5 6 -3 10 -4 10 -1 0 3 -4 7 -9 10 -5 3 -23 -15
-40 -40 -22 -34 -29 -54 -25 -73 4 -18 3 -22 -4 -13 -7 11 -11 8 -16 -12 -4
-15 -11 -24 -16 -21 -5 3 -14 -10 -21 -29 -7 -19 -16 -33 -21 -30 -11 7 -50
-21 -41 -29 3 -4 12 1 19 11 7 9 14 12 14 7 0 -11 -80 -125 -112 -160 -16 -17
-20 -18 -29 -5 -9 12 -10 12 -5 -3 6 -19 -46 -93 -92 -130 -12 -10 -28 -24
-35 -31 -7 -8 -23 -17 -36 -21 -16 -5 -20 -10 -13 -17 8 -8 0 -18 -24 -34 -19
-13 -39 -24 -44 -24 -6 0 -10 -4 -10 -9 0 -5 -31 -19 -70 -31 -67 -22 -71 -22
-120 -6 -28 9 -56 14 -62 10 -6 -4 -8 -3 -5 3 8 13 -70 66 -83 58 -6 -3 -7 1
-4 9 3 9 2 16 -2 16 -5 0 -31 21 -58 45 -27 25 -53 45 -58 45 -4 0 -8 4 -8 10
0 16 -42 60 -51 54 -5 -3 -6 2 -3 11 5 13 10 11 30 -10 13 -14 26 -25 29 -25
4 0 -6 13 -21 30 -20 20 -32 26 -40 19 -8 -6 -13 -3 -17 11 -3 11 -11 19 -17
18 -7 -2 -14 10 -17 27 l-4 30 29 -34 c21 -26 31 -31 37 -21 5 9 4 11 -4 6 -7
-4 -18 5 -29 23 -18 33 -27 37 -37 21 -9 -14 -35 7 -35 27 0 8 -5 11 -12 7 -7
-4 -10 -4 -6 1 9 10 -41 77 -53 69 -5 -3 -6 2 -2 11 5 13 7 14 14 3 6 -9 9 -9
9 -1 0 7 -19 31 -42 54 -24 23 -37 39 -30 35 6 -4 12 -4 12 -1 0 10 -41 60
-47 57 -11 -7 -44 44 -39 61 4 16 2 16 -11 5 -15 -12 -15 -10 -3 12 12 23 12
24 -4 11 -9 -8 -16 -10 -15 -5 3 11 -28 67 -60 106 -13 16 -21 32 -17 35 3 4
6 1 6 -5 0 -7 5 -12 10 -12 12 0 2 22 -25 55 -16 19 -16 19 -5 -5 11 -24 11
-24 -5 -5 -9 11 -19 31 -22 45 -3 14 -19 49 -36 78 -36 65 -64 166 -81 302 -8
58 -13 106 -11 108 7 8 35 -13 31 -23 -6 -16 13 -35 34 -34 9 0 5 4 -9 10 -19
8 -21 12 -11 24 10 12 10 15 0 15 -7 0 -10 7 -7 15 4 8 1 17 -5 21 -7 4 -8 3
-4 -4 4 -7 3 -12 -3 -12 -5 0 -13 5 -17 12 -9 14 -11 238 -3 238 4 0 12 -7 19
-15 7 -8 22 -15 34 -14 21 0 21 0 1 9 -46 18 -49 34 -30 124 17 82 17 84 36
65 12 -12 32 -19 51 -18 20 1 25 3 13 6 -11 2 -31 9 -44 16 -20 10 -22 16 -17
54 3 24 15 65 27 91 12 26 22 52 22 59 0 7 5 11 11 10 5 -1 10 3 11 10 0 6 3
15 7 19 4 3 5 -3 3 -15 -6 -32 34 -48 76 -30 18 7 27 15 20 17 -6 2 -18 -1
-26 -8 -21 -17 -55 5 -55 35 0 23 21 53 78 111 12 13 31 43 41 66 10 24 26 49
35 57 13 11 14 17 4 30 -12 14 -11 15 5 2 16 -13 24 -10 74 25 31 21 59 46 61
54 4 11 -1 10 -17 -4 -24 -22 -29 -15 -5 9 9 9 13 19 10 22 -7 7 -42 -38 -39
-49 2 -4 -4 -5 -12 -2 -8 4 -15 1 -15 -5 0 -6 -7 -11 -15 -11 -8 0 -14 -3 -14
-7 4 -25 -2 -36 -12 -26 -9 9 -5 20 12 44 29 41 84 154 134 274 20 50 45 108
54 130 31 69 34 79 32 98 -1 9 2 17 7 17 5 0 22 39 37 88 15 48 30 93 33 101
4 10 1 12 -8 6 -9 -5 -11 -4 -6 4 4 6 11 9 15 7 11 -7 43 131 36 156 -5 18 -4
20 4 8 10 -13 11 -13 12 0 0 8 5 4 10 -10 6 -18 7 -13 3 20 -4 35 -3 42 6 30
10 -13 11 -13 6 2 -3 10 -1 30 3 45 5 15 14 48 22 73 7 25 20 54 29 65 9 11
22 33 30 48 15 31 43 61 81 90 25 18 109 24 109 7z m-204 -70 c0 -10 -2 -17
-4 -15 -17 17 -86 -135 -117 -255 -9 -36 -30 -109 -46 -163 -17 -56 -27 -107
-24 -120 4 -15 3 -18 -3 -9 -7 11 -12 6 -21 -19 -14 -41 -14 -52 1 -43 7 4 8
3 4 -5 -4 -6 -11 -9 -16 -6 -11 7 -22 -24 -15 -46 4 -10 1 -27 -5 -36 -8 -15
-9 -12 -5 12 3 17 -4 6 -15 -24 -19 -53 -20 -88 -1 -40 6 15 10 18 10 8 1 -18
-22 -42 -31 -33 -3 2 -13 -13 -22 -36 -16 -41 -33 -56 -21 -20 4 11 7 30 9 43
1 13 6 28 10 35 4 7 4 17 1 22 -3 6 1 18 10 27 10 10 14 25 11 38 -3 13 1 42
9 66 9 24 14 48 11 54 -2 7 0 18 6 26 8 11 9 10 4 -4 -3 -10 -2 -16 3 -12 5 3
15 38 21 78 12 76 44 177 68 214 7 12 10 28 6 35 -5 8 -1 8 11 -2 17 -14 18
-13 13 12 -3 16 -1 26 5 25 6 -1 11 7 12 18 2 30 16 65 25 65 5 0 12 10 16 22
3 12 11 26 16 32 5 6 18 26 28 44 22 36 36 41 36 12z m478 -456 c3 -8 2 -12
-4 -9 -6 3 -10 10 -10 16 0 14 7 11 14 -7z m85 -259 c0 -5 -4 -3 -9 5 -5 8 -9
22 -9 30 0 16 17 -16 18 -35z m-1101 -577 c-65 -106 -88 -139 -143 -203 l-26
-30 25 51 c13 27 32 56 40 63 9 8 16 19 16 25 0 7 8 21 18 32 9 10 34 41 55
67 21 26 40 47 43 47 2 0 -11 -24 -28 -52z m1483 -1465 c-12 -20 -14 -14 -5
12 4 9 9 14 11 11 3 -2 0 -13 -6 -23z m-127 -198 c-10 -19 -22 -35 -26 -35
-12 0 -10 10 13 47 27 44 38 34 13 -12z"/>
<path d="M2464 4180 c16 -5 42 -21 57 -36 16 -15 29 -25 29 -21 0 18 -65 67
-89 66 l-26 -1 29 -8z"/>
<path d="M2372 4150 c-25 -23 -56 -79 -48 -87 2 -3 12 10 21 29 10 18 27 41
38 50 12 9 19 19 16 22 -3 3 -15 -3 -27 -14z"/>
<path d="M2580 4146 c0 -8 4 -17 9 -20 5 -4 7 3 4 14 -6 23 -13 26 -13 6z"/>
<path d="M2483 4125 c0 -7 6 -11 14 -8 7 3 13 6 13 8 0 2 -6 5 -13 8 -8 3 -14
-1 -14 -8z"/>
<path d="M2550 4091 c0 -25 6 -27 13 -6 4 8 2 17 -3 20 -6 4 -10 -3 -10 -14z"/>
<path d="M2366 4085 c-9 -26 -7 -32 5 -12 6 10 9 21 6 23 -2 3 -7 -2 -11 -11z"/>
<path d="M2522 4080 c0 -14 2 -19 5 -12 2 6 2 18 0 25 -3 6 -5 1 -5 -13z"/>
<path d="M2600 4095 c0 -5 5 -17 10 -25 5 -8 10 -10 10 -5 0 6 -5 17 -10 25
-5 8 -10 11 -10 5z"/>
<path d="M2305 4058 c3 -15 1 -29 -4 -32 -10 -6 -25 -64 -22 -85 2 -8 -2 -10
-9 -6 -9 5 -10 1 -5 -15 4 -13 3 -20 -2 -17 -5 3 -13 -14 -19 -39 -6 -24 -7
-41 -4 -37 15 18 50 114 45 123 -3 6 -2 10 3 10 16 0 32 80 21 104 -8 18 -9
18 -4 -6z"/>
<path d="M2569 4073 c-7 -46 -6 -69 2 -82 8 -12 9 -11 4 7 -4 13 -1 30 7 39
11 14 11 16 -1 9 -10 -7 -12 -3 -6 13 3 11 4 21 1 21 -3 0 -7 -3 -7 -7z"/>
<path d="M2408 4012 c-10 -10 -18 -24 -18 -30 0 -6 -8 -15 -17 -21 -10 -5 -14
-13 -9 -18 5 -4 11 -2 13 5 3 6 10 9 15 6 7 -4 8 -2 4 4 -4 7 -3 12 3 12 6 0
8 7 5 15 -9 24 42 30 84 11 28 -14 33 -19 21 -27 -8 -5 -9 -9 -4 -9 6 0 16 4
23 9 11 6 7 13 -16 30 -43 30 -83 35 -104 13z"/>
<path d="M2428 3963 c7 -3 16 -2 19 1 4 3 -2 6 -13 5 -11 0 -14 -3 -6 -6z"/>
<path d="M2660 3938 c-1 -23 56 -251 85 -341 21 -64 35 -129 35 -158 0 -45 -3
-51 -32 -69 -18 -11 -41 -20 -50 -20 -10 0 -18 -3 -18 -8 0 -4 17 -7 39 -7 27
0 37 3 34 12 -3 7 0 13 6 13 6 0 11 -4 11 -10 0 -5 5 -10 11 -10 9 0 9 4 0 13
-8 11 -6 18 9 32 12 11 18 25 15 34 -4 9 -8 35 -10 59 -2 24 -9 49 -15 56 -5
8 -7 22 -3 31 5 14 3 16 -7 10 -10 -6 -11 -2 -6 19 4 18 3 25 -4 21 -5 -3 -10
2 -10 12 0 11 -4 23 -10 29 -5 5 -12 25 -14 44 -3 19 -13 60 -21 90 -9 30 -18
70 -21 89 -4 29 -23 77 -24 59z"/>
<path d="M2330 3888 l-21 -43 26 30 c13 17 25 36 25 43 0 22 -9 13 -30 -30z"/>
<path d="M2180 3793 c-6 -32 -20 -83 -30 -113 -10 -30 -26 -85 -36 -122 -10
-36 -21 -65 -25 -63 -3 3 -6 -31 -5 -74 1 -44 4 -77 7 -75 3 2 9 41 12 86 3
50 16 113 32 158 29 84 52 167 60 223 10 59 -2 43 -15 -20z"/>
<path d="M2286 3815 c-15 -23 -15 -25 -1 -25 10 0 13 5 9 12 -5 7 -2 9 8 5 12
-4 14 -1 11 14 -7 24 -7 24 -27 -6z"/>
<path d="M2216 3783 c-6 -14 -5 -15 5 -6 7 7 10 15 7 18 -3 3 -9 -2 -12 -12z"/>
<path d="M2458 3783 c7 -3 16 -2 19 1 4 3 -2 6 -13 5 -11 0 -14 -3 -6 -6z"/>
<path d="M2236 3724 c-4 -9 -4 -19 -1 -22 2 -3 7 3 11 12 4 9 4 19 1 22 -2 3
-7 -3 -11 -12z"/>
<path d="M2423 3733 c-37 -7 -26 -22 11 -16 18 3 36 1 40 -5 3 -6 15 -8 26 -5
22 6 28 -12 8 -21 -7 -3 -4 -4 8 -1 16 4 25 -4 43 -37 19 -37 22 -39 16 -13
-10 45 -33 75 -70 91 -35 14 -42 15 -82 7z"/>
<path d="M2657 3709 c4 -13 8 -18 11 -10 2 7 -1 18 -6 23 -8 8 -9 4 -5 -13z"/>
<path d="M2332 3665 c-28 -31 -52 -63 -52 -73 1 -15 2 -15 15 2 8 11 15 26 15
33 0 7 19 25 43 40 23 15 44 29 46 30 3 2 0 8 -5 13 -6 6 -28 -10 -62 -45z"/>
<path d="M2212 3680 c0 -14 2 -19 5 -12 2 6 2 18 0 25 -3 6 -5 1 -5 -13z"/>
<path d="M2374 3661 c-40 -24 -74 -95 -77 -159 -1 -28 -4 -49 -7 -47 -3 2 -19
-23 -35 -56 -15 -32 -36 -67 -46 -78 -10 -10 -15 -22 -12 -25 4 -3 0 -6 -7 -6
-7 0 -21 -7 -31 -16 -10 -9 -33 -23 -51 -32 -18 -10 -32 -24 -32 -33 1 -12 -4
-15 -19 -11 -17 4 -19 2 -13 -14 4 -10 4 -16 1 -12 -8 7 -55 -31 -55 -44 0 -5
-11 -21 -24 -35 -13 -14 -22 -32 -19 -39 5 -15 23 -19 23 -6 0 14 136 149 180
179 62 42 104 87 125 134 10 21 22 39 27 39 5 0 6 5 3 10 -8 13 16 80 27 74 4
-3 8 12 9 33 0 53 29 117 54 121 42 8 94 8 90 1 -3 -4 2 -9 10 -13 8 -3 15
-13 15 -21 0 -9 4 -14 10 -10 5 3 14 -13 20 -35 19 -72 -17 -157 -64 -145 -11
2 -15 2 -8 -1 10 -5 9 -9 -5 -20 -21 -16 -37 -18 -28 -4 3 6 -2 10 -13 10 -10
0 -27 9 -37 20 -9 10 -20 19 -24 18 -18 -2 -21 4 -11 22 8 16 8 18 -4 14 -8
-3 -17 -13 -20 -21 -7 -17 18 -63 34 -63 13 0 13 -57 1 -64 -5 -4 -12 0 -15 6
-3 7 -2 0 1 -16 4 -20 3 -27 -6 -22 -6 4 -11 3 -11 -3 0 -29 -141 -150 -165
-143 -5 2 -7 0 -3 -4 8 -7 -4 -15 -69 -49 -18 -9 -44 -27 -58 -40 -14 -13 -25
-21 -25 -18 0 4 -16 -8 -35 -27 -34 -33 -48 -59 -23 -44 7 4 8 3 4 -5 -4 -6
-12 -9 -17 -5 -21 13 -71 -75 -88 -156 -7 -30 -14 -64 -16 -76 -5 -21 -64
-102 -66 -90 -1 3 -2 10 -3 15 0 5 -5 13 -10 18 -5 4 -6 3 -2 -4 3 -6 -2 -17
-11 -23 -15 -10 -15 -11 -1 -6 9 2 19 -1 22 -9 4 -10 -2 -11 -25 -5 -27 8 -28
7 -18 -11 5 -11 8 -30 6 -42 -4 -19 -4 -18 -6 5 -1 34 -20 46 -36 25 -14 -19
-8 -67 7 -67 6 0 8 14 4 35 -4 20 -3 35 2 35 6 0 13 -24 16 -54 8 -61 -10
-110 -43 -121 -15 -5 -19 -15 -19 -63 0 -73 -3 -93 -15 -85 -17 11 -26 -22
-26 -95 1 -56 -4 -80 -20 -108 -24 -40 -26 -60 -8 -79 25 -29 35 -42 51 -71
17 -30 17 -26 0 37 -2 8 3 55 11 104 18 99 14 128 -4 35 -7 -33 -16 -58 -21
-55 -4 3 -6 -4 -3 -14 3 -11 1 -27 -5 -37 -8 -15 -11 -13 -16 12 -5 22 0 42
18 75 25 43 42 149 25 149 -5 0 -9 5 -9 11 0 5 4 8 9 4 5 -3 13 0 16 6 4 5 13
8 21 5 11 -4 12 -2 4 14 -14 27 -12 37 3 15 11 -14 16 -15 22 -5 5 7 4 11 -1
7 -5 -3 -9 21 -9 54 0 32 4 59 8 59 13 0 37 27 30 34 -4 3 -2 6 4 6 6 0 14 7
17 16 3 8 2 13 -2 11 -4 -3 -8 25 -8 62 -1 44 2 68 10 68 6 0 19 4 29 8 14 6
16 3 11 -11 -5 -18 -5 -18 6 -1 6 9 8 22 5 27 -3 5 0 7 8 4 16 -6 31 22 20 38
-3 7 -1 8 5 4 12 -7 25 33 37 112 4 23 11 42 15 42 5 0 10 12 12 28 2 16 8 26
16 24 8 -1 11 2 7 8 -3 5 -1 20 6 32 9 19 9 21 -2 11 -7 -7 -18 -13 -24 -13
-14 1 26 24 47 27 12 2 15 -3 11 -17 -3 -11 -9 -20 -14 -20 -5 0 -9 -4 -9 -10
0 -5 15 0 34 11 23 13 33 25 29 35 -4 12 -7 12 -18 -3 -11 -15 -12 -11 -10 25
2 39 22 79 33 67 3 -3 -3 -14 -13 -25 -32 -35 -5 -22 61 30 35 28 67 50 71 50
5 0 19 9 33 20 28 22 45 26 34 8 -4 -7 -3 -8 5 -4 6 4 9 11 7 15 -3 3 12 17
32 31 39 25 197 184 175 176 -7 -3 -13 1 -13 9 0 8 -4 15 -10 15 -5 0 -10 4
-10 9 0 4 23 6 51 3 37 -3 50 -2 45 7 -4 6 -2 11 3 11 13 0 13 2 2 -38 -6 -20
-6 -30 0 -27 5 4 9 0 9 -8 0 -25 147 -170 165 -163 11 4 14 2 9 -6 -5 -8 -1
-9 12 -4 18 7 18 6 2 -10 -17 -17 -19 -17 -43 6 -14 13 -25 20 -25 15 0 -4 10
-16 22 -26 11 -11 17 -19 13 -19 -5 0 2 -11 14 -24 19 -20 20 -24 6 -30 -9 -3
-13 -11 -9 -17 4 -8 3 -9 -5 -5 -9 6 -9 11 1 24 11 13 10 15 -5 9 -10 -4 -16
-3 -12 3 3 5 -12 28 -34 50 -22 23 -43 50 -46 61 -6 19 -20 25 -28 12 -2 -5
-2 -2 0 5 6 27 -64 76 -98 67 -34 -9 -82 -53 -73 -67 4 -6 3 -8 -4 -4 -6 3
-19 -7 -28 -24 -10 -16 -22 -30 -27 -30 -5 0 -6 -7 -3 -16 3 -8 2 -12 -4 -9
-5 3 -23 -8 -40 -25 -35 -34 -34 -34 -63 -19 -20 9 -20 8 2 -9 23 -18 22 -42
-1 -42 -6 0 -16 -7 -22 -14 -6 -8 -17 -16 -25 -18 -19 -4 -82 -65 -116 -113
-16 -22 -32 -42 -35 -45 -11 -8 -32 -51 -27 -56 2 -3 21 17 42 43 53 66 174
182 208 200 25 12 27 16 15 31 -12 15 -11 16 5 3 15 -12 21 -11 42 9 13 13 22
27 18 33 -3 6 -1 7 5 3 6 -3 19 5 29 20 10 14 31 41 46 60 16 18 26 37 23 42
-3 5 14 8 39 7 27 -1 42 2 38 8 -3 6 -1 7 6 3 6 -4 9 -12 5 -18 -3 -5 5 -22
18 -36 14 -15 35 -42 47 -60 23 -33 45 -36 35 -4 -5 14 -4 14 4 2 8 -10 8 -18
0 -27 -6 -8 -9 -15 -7 -16 2 -2 37 -27 78 -56 74 -54 136 -112 224 -211 48
-54 49 -55 25 -13 -30 54 -64 99 -110 147 -21 21 -38 43 -38 48 0 5 -9 6 -20
3 -13 -4 -22 -1 -26 9 -3 9 -12 16 -19 16 -25 0 -21 24 9 56 18 19 34 28 40
23 6 -5 43 -32 81 -61 39 -28 72 -55 75 -58 8 -11 41 -7 37 4 -3 6 -11 10 -18
8 -8 -2 -11 0 -7 4 10 9 -12 35 -23 28 -5 -3 -9 1 -9 8 0 11 -91 79 -105 78
-3 0 -11 4 -18 10 -6 6 -39 28 -72 49 -68 43 -135 112 -135 139 0 13 -2 14 -9
4 -6 -10 -10 -8 -14 10 -9 33 -7 47 3 23 8 -19 9 -19 9 3 1 27 -19 29 -26 2
-3 -11 -9 -20 -13 -20 -12 0 13 62 33 83 10 10 23 32 29 48 11 33 31 29 22 -5
-6 -27 12 -79 26 -71 6 3 7 -1 4 -9 -6 -17 19 -49 30 -38 4 3 4 -1 1 -10 -7
-19 7 -34 99 -102 59 -44 139 -125 167 -169 4 -5 11 -7 17 -3 6 3 17 0 25 -9
13 -13 15 -11 13 9 0 13 -5 22 -10 19 -4 -3 -18 5 -30 19 -11 13 -29 27 -38
31 -10 3 -18 12 -18 19 0 9 3 8 10 -2 5 -8 10 -10 10 -4 0 16 -25 35 -34 27
-4 -4 -4 1 0 12 6 15 4 17 -10 12 -14 -6 -17 -3 -12 9 5 13 2 15 -13 11 -12
-3 -26 2 -33 12 -12 14 -11 15 5 2 11 -8 17 -9 17 -2 0 6 -15 18 -32 27 -18 9
-43 25 -55 36 -13 12 -27 17 -34 12 -9 -5 -10 -2 -6 9 3 10 3 17 -2 17 -23 0
-101 186 -101 241 0 20 -7 42 -15 49 -8 7 -15 19 -15 27 0 10 -6 13 -16 9 -8
-3 -12 -2 -9 4 8 14 -49 40 -87 40 -18 0 -47 -9 -64 -19z m19 -334 c3 -8 -1
-14 -8 -14 -7 0 -11 6 -8 14 3 7 6 13 8 13 2 0 5 -6 8 -13z m315 -220 c7 -8 7
-17 -2 -30 -16 -21 -30 -23 -22 -2 3 8 2 14 -2 14 -28 -4 -34 2 -16 16 24 18
29 18 42 2z m-827 -264 c-12 -20 -14 -14 -5 12 4 9 9 14 11 11 3 -2 0 -13 -6
-23z m-154 -385 c-3 -8 -6 -5 -6 6 -1 11 2 17 5 13 3 -3 4 -12 1 -19z m-37
-100 c0 -12 -3 -18 -7 -14 -11 10 -12 36 -2 36 5 0 9 -10 9 -22z"/>
<path d="M2620 3656 c0 -8 4 -17 9 -20 5 -4 7 3 4 14 -6 23 -13 26 -13 6z"/>
<path d="M2180 3650 c0 -5 5 -10 10 -10 6 0 10 5 10 10 0 6 -4 10 -10 10 -5 0
-10 -4 -10 -10z"/>
<path d="M2226 3499 c-28 -59 -48 -88 -77 -109 -22 -16 -35 -31 -29 -35 5 -3
10 -3 10 1 0 3 8 0 17 -7 11 -10 14 -10 9 -1 -4 6 -4 17 0 24 5 8 10 6 16 -8
6 -14 7 -11 3 10 -5 23 -3 27 9 23 9 -4 15 -3 13 1 -1 4 8 23 20 42 12 19 25
48 29 63 5 22 9 26 16 15 7 -9 8 -5 4 14 -4 16 -1 28 6 30 8 3 8 7 2 11 -6 3
-27 -28 -48 -74z"/>
<path d="M2522 3560 c0 -14 2 -19 5 -12 2 6 2 18 0 25 -3 6 -5 1 -5 -13z"/>
<path d="M2430 3560 c-8 -5 -11 -12 -7 -16 3 -4 13 -1 21 5 8 7 20 10 26 6 5
-3 10 -1 10 4 0 13 -30 14 -50 1z"/>
<path d="M2171 3524 c0 -11 3 -14 6 -6 3 7 2 16 -1 19 -3 4 -6 -2 -5 -13z"/>
<path d="M2394 3525 c-9 -21 -2 -26 13 -10 8 9 9 16 3 20 -6 3 -13 -1 -16 -10z"/>
<path d="M2516 3485 c-3 -8 -1 -15 4 -15 6 0 10 7 10 15 0 8 -2 15 -4 15 -2 0
-6 -7 -10 -15z"/>
<path d="M2621 3484 c0 -11 3 -14 6 -6 3 7 2 16 -1 19 -3 4 -6 -2 -5 -13z"/>
<path d="M2386 3473 c-6 -14 -5 -15 5 -6 7 7 10 15 7 18 -3 3 -9 -2 -12 -12z"/>
<path d="M2470 3470 c-9 -6 -10 -10 -3 -10 6 0 15 5 18 10 8 12 4 12 -15 0z"/>
<path d="M2395 3450 c-3 -6 1 -7 9 -4 18 7 21 14 7 14 -6 0 -13 -4 -16 -10z"/>
<path d="M2054 3399 c-4 -7 -3 -9 4 -5 5 3 13 0 15 -6 4 -9 6 -10 6 -1 1 17
-16 25 -25 12z"/>
<path d="M2215 3400 c3 -5 8 -10 11 -10 2 0 4 5 4 10 0 6 -5 10 -11 10 -5 0
-7 -4 -4 -10z"/>
<path d="M2725 3390 c-3 -6 1 -7 9 -4 18 7 21 14 7 14 -6 0 -13 -4 -16 -10z"/>
<path d="M2820 3395 c0 -5 5 -17 10 -25 5 -8 10 -10 10 -5 0 6 -5 17 -10 25
-5 8 -10 11 -10 5z"/>
<path d="M2811 3354 c0 -11 3 -14 6 -6 3 7 2 16 -1 19 -3 4 -6 -2 -5 -13z"/>
<path d="M2100 3331 c0 -7 -4 -9 -10 -6 -5 3 -10 1 -10 -4 0 -6 4 -11 9 -11
13 0 25 20 17 27 -3 4 -6 1 -6 -6z"/>
<path d="M2300 3320 c-9 -6 -10 -10 -3 -10 6 0 15 5 18 10 8 12 4 12 -15 0z"/>
<path d="M2705 3320 c-3 -6 1 -7 9 -4 18 7 21 14 7 14 -6 0 -13 -4 -16 -10z"/>
<path d="M2259 3293 c-13 -16 -12 -17 4 -4 9 7 17 15 17 17 0 8 -8 3 -21 -13z"/>
<path d="M2740 3299 c0 -5 5 -7 10 -4 6 3 10 8 10 11 0 2 -4 4 -10 4 -5 0 -10
-5 -10 -11z"/>
<path d="M2285 3279 c-4 -6 -5 -12 -2 -15 2 -3 7 2 10 11 7 17 1 20 -8 4z"/>
<path d="M2585 3280 c3 -5 8 -10 11 -10 2 0 4 5 4 10 0 6 -5 10 -11 10 -5 0
-7 -4 -4 -10z"/>
<path d="M2633 3235 c0 -8 4 -12 8 -9 4 2 9 -2 12 -8 2 -7 7 -10 11 -7 3 3 -2
13 -12 22 -15 14 -19 15 -19 2z"/>
<path d="M2215 3231 c-3 -5 -1 -12 5 -16 5 -3 10 1 10 9 0 18 -6 21 -15 7z"/>
<path d="M2901 3213 c-1 -6 -4 -20 -7 -30 -5 -17 -5 -17 6 0 6 10 9 23 6 30
-3 9 -5 9 -5 0z"/>
<path d="M1999 3193 c-13 -16 -12 -17 4 -4 16 13 21 21 13 21 -2 0 -10 -8 -17
-17z"/>
<path d="M2684 3186 c11 -9 24 -16 30 -16 12 0 7 5 -24 19 -24 11 -24 11 -6
-3z"/>
<path d="M2440 3150 c-8 -5 -10 -10 -5 -10 6 0 17 5 25 10 8 5 11 10 5 10 -5
0 -17 -5 -25 -10z"/>
<path d="M1950 3139 c0 -5 5 -7 10 -4 6 3 10 8 10 11 0 2 -4 4 -10 4 -5 0 -10
-5 -10 -11z"/>
<path d="M2242 3127 c-12 -13 -19 -27 -15 -30 6 -7 -12 -11 -32 -7 -5 1 -4 -5
3 -12 11 -11 17 -9 33 12 10 14 24 31 30 38 20 24 3 23 -19 -1z"/>
<path d="M2474 3139 c-3 -6 -2 -15 3 -20 5 -5 9 -1 9 11 0 23 -2 24 -12 9z"/>
<path d="M2355 3100 c-3 -5 -1 -10 4 -10 6 0 11 5 11 10 0 6 -2 10 -4 10 -3 0
-8 -4 -11 -10z"/>
<path d="M2387 3073 c-20 -16 -51 -53 -69 -85 -18 -31 -44 -63 -58 -71 -46
-28 -145 -120 -167 -156 -12 -20 -23 -32 -23 -27 0 8 -44 -43 -46 -54 -2 -13
-20 -49 -47 -93 -16 -26 -27 -53 -24 -60 2 -6 0 -21 -5 -32 -8 -18 -8 -18 -4
3 6 30 -12 28 -20 -3 -3 -14 -11 -25 -16 -25 -6 0 -8 -9 -5 -20 3 -11 1 -18
-4 -14 -5 3 -9 -2 -9 -10 0 -8 -5 -18 -12 -22 -8 -5 -9 -1 -5 14 16 52 17 64
2 33 -9 -19 -13 -41 -10 -49 3 -8 -7 -53 -21 -101 -38 -122 -45 -136 -40 -74
3 28 14 70 25 92 12 22 21 48 21 58 -1 10 -13 -9 -28 -42 -21 -48 -26 -75 -26
-135 0 -41 -2 -64 -6 -50 -10 40 -1 -247 11 -340 10 -76 87 -332 111 -370 7
-12 8 -11 4 4 -53 167 -96 394 -96 510 0 81 17 203 30 221 4 6 11 31 14 58 4
26 11 45 17 42 5 -3 6 1 3 9 -3 9 -1 16 6 16 7 0 9 8 5 20 -4 12 -2 20 6 20 8
0 8 5 -2 17 -12 14 -12 15 0 9 10 -7 12 -3 6 15 -5 18 -4 20 4 9 8 -12 12 -9
20 13 6 16 11 33 11 39 0 6 3 8 7 5 9 -10 34 53 26 66 -3 6 -1 7 5 3 7 -4 12
-2 12 4 0 6 12 27 27 47 15 19 28 42 29 50 3 19 134 190 174 228 18 17 36 41
41 54 22 56 16 7 -11 -97 -16 -61 -28 -117 -26 -124 1 -7 1 -9 -2 -4 -2 4 -20
-34 -39 -85 -19 -52 -50 -128 -70 -169 -98 -207 -125 -334 -127 -585 -1 -135
3 -187 18 -253 13 -57 22 -79 28 -70 7 9 8 5 4 -13 -6 -30 10 -78 88 -248 67
-150 93 -193 146 -249 68 -72 157 -99 246 -73 50 14 117 82 146 149 11 26 35
67 53 92 30 43 37 57 83 160 40 91 62 162 82 261 45 222 16 543 -68 734 -30
69 -30 70 -37 63 -3 -2 4 -22 15 -43 11 -22 20 -46 19 -55 0 -10 -3 -9 -9 5
-4 11 -14 34 -21 50 -7 17 -13 41 -14 55 -3 41 -102 294 -109 279 -3 -8 -4 -5
-1 6 4 17 -12 90 -40 183 -12 37 7 24 65 -45 30 -36 72 -85 93 -108 20 -23 37
-46 37 -50 0 -5 11 -23 25 -40 13 -18 21 -35 18 -39 -4 -3 -1 -6 5 -6 6 0 16
-16 23 -35 7 -19 17 -35 22 -35 4 0 5 -4 2 -10 -3 -5 -1 -10 5 -10 6 0 8 -6 4
-12 -5 -10 -4 -10 5 -2 10 9 10 17 2 33 -20 36 -4 23 19 -16 12 -20 15 -31 7
-25 -12 10 -16 9 -21 -3 -4 -11 -2 -14 6 -9 8 5 9 2 5 -9 -3 -9 -2 -19 3 -22
6 -4 10 -15 10 -26 0 -11 4 -17 10 -14 5 3 12 -12 16 -34 4 -24 11 -38 17 -34
6 4 8 -2 5 -15 -4 -13 -2 -20 3 -16 6 3 7 -6 4 -23 -5 -21 -4 -24 4 -13 9 12
11 11 12 -10 1 -14 1 -34 1 -45 -2 -16 0 -17 8 -5 7 12 10 8 10 -15 0 -16 7
-66 15 -109 23 -119 -1 -324 -61 -522 -13 -45 -24 -85 -24 -88 0 -12 17 -6 17
7 1 6 13 44 27 82 36 94 64 209 75 308 15 122 12 332 -6 402 -16 65 -31 100
-40 91 -3 -3 -1 -11 5 -19 13 -15 33 -94 38 -152 2 -25 -5 -8 -21 48 -14 48
-29 97 -35 108 -8 15 -8 21 4 25 11 4 9 16 -12 65 -14 32 -27 57 -30 54 -3 -2
2 -19 11 -37 19 -43 32 -85 22 -75 -5 4 -16 24 -26 45 -17 35 -18 35 -13 7 4
-28 4 -28 -6 -7 -5 13 -8 28 -5 33 6 9 -25 76 -55 119 -36 52 -68 118 -62 127
4 4 1 3 -7 -3 -10 -9 -10 -17 -2 -32 16 -30 13 -41 -4 -12 -7 14 -11 35 -8 48
3 13 1 22 -6 22 -6 0 -11 7 -11 16 0 14 -3 14 -15 4 -13 -11 -14 -10 -10 2 3
8 -1 21 -10 28 -8 7 -15 18 -15 24 0 13 -146 136 -161 136 -4 0 -16 17 -25 38
-10 20 -25 44 -33 54 -9 9 -25 27 -36 41 -11 13 -26 22 -34 19 -8 -3 -12 -1
-8 5 7 11 -13 23 -37 23 -7 0 -29 -12 -49 -27z m70 11 c-3 -3 -12 -4 -19 -1
-8 3 -5 6 6 6 11 1 17 -2 13 -5z m16 -28 c9 -7 17 -18 17 -24 0 -5 6 -12 14
-15 21 -8 68 -114 81 -183 14 -72 3 -178 -21 -205 -16 -18 -12 -39 7 -39 12 0
48 77 49 103 0 10 -4 15 -10 12 -6 -4 -10 7 -10 24 0 46 17 37 24 -13 12 -75
67 -230 121 -336 39 -77 83 -220 101 -325 19 -112 22 -361 5 -435 -9 -40 -10
-35 -8 52 1 53 -2 91 -6 85 -4 -7 -5 6 -2 28 5 27 3 36 -3 26 -7 -10 -12 9
-17 65 -4 43 -11 81 -14 84 -10 8 -33 128 -35 185 -1 28 -7 60 -14 72 -7 12
-12 28 -12 36 0 8 -7 28 -15 43 -8 16 -15 22 -15 15 0 -12 -3 -12 -12 -3 -10
10 -10 14 0 21 10 6 10 10 -3 21 -13 11 -15 10 -9 -6 4 -13 -3 -9 -20 11 -14
17 -26 41 -26 55 0 18 -3 21 -9 12 -7 -11 -10 -10 -15 3 -3 9 -3 21 0 27 3 5
-2 18 -11 28 -9 10 -14 24 -9 31 4 8 3 10 -5 5 -6 -4 -14 0 -17 8 -3 9 -13 16
-21 16 -11 0 -8 -8 11 -30 14 -17 30 -48 36 -70 6 -21 26 -61 45 -89 19 -28
35 -55 35 -61 0 -5 4 -10 8 -10 5 0 15 -18 22 -40 7 -21 17 -37 21 -34 5 3 6
-1 3 -9 -3 -8 4 -50 16 -93 58 -220 107 -586 77 -567 -6 4 -8 -1 -4 -11 4 -10
2 -27 -5 -39 -6 -12 -12 -35 -14 -52 -2 -33 -24 -97 -55 -161 -10 -22 -19 -46
-19 -52 0 -7 -5 -12 -12 -12 -6 0 -9 -3 -5 -6 5 -6 0 -15 -31 -49 -7 -7 -21
-33 -31 -57 -20 -47 -81 -118 -100 -118 -7 0 -10 -4 -7 -9 3 -5 -41 -9 -99 -9
-58 0 -103 4 -100 8 3 4 -6 11 -19 14 -14 3 -34 20 -46 36 -12 17 -25 28 -30
25 -4 -3 -6 3 -3 14 3 10 0 22 -6 25 -7 5 -9 0 -6 -11 3 -10 0 -7 -7 7 -7 14
-18 31 -25 38 -7 7 -14 18 -14 23 -3 18 -6 25 -43 103 -83 176 -128 367 -128
551 -1 235 35 405 130 605 41 87 96 239 106 292 9 47 27 61 19 15 -6 -39 15
-87 58 -130 22 -21 29 -24 29 -12 0 9 5 13 10 10 6 -4 8 -10 5 -15 -17 -28
122 -31 160 -3 30 22 31 29 4 44 -15 8 -19 8 -15 0 16 -26 -71 -39 -137 -20
-52 14 -87 83 -96 190 -4 43 -4 76 0 73 8 -5 30 77 23 88 -3 4 -2 8 3 8 4 1
24 25 43 55 19 30 41 55 48 55 6 0 12 5 12 10 0 14 32 12 53 -4z m-176 -178
c-3 -8 -6 -5 -6 6 -1 11 2 17 5 13 3 -3 4 -12 1 -19z m427 -64 c3 -8 2 -12 -4
-9 -6 3 -10 10 -10 16 0 14 7 11 14 -7z m-670 -140 c3 -8 2 -13 -3 -10 -11 7
-19 -12 -16 -41 1 -13 -1 -21 -3 -18 -3 2 -13 -5 -23 -17 -11 -12 -19 -16 -19
-8 0 7 7 18 15 24 14 10 25 41 27 74 2 17 15 15 22 -4z m543 -26 c-3 -8 -6 -5
-6 6 -1 11 2 17 5 13 3 -3 4 -12 1 -19z m-380 -30 c-3 -7 -5 -2 -5 12 0 14 2
19 5 13 2 -7 2 -19 0 -25z m498 -126 c-2 -2 -11 18 -21 45 -9 26 -21 52 -25
57 -4 5 -5 15 -2 23 3 7 16 -17 28 -54 13 -37 22 -69 20 -71z m-511 81 c-4
-16 -31 -78 -61 -140 -29 -62 -53 -115 -53 -119 0 -3 -6 -20 -14 -37 -7 -18
-19 -58 -26 -90 -7 -31 -15 -55 -17 -53 -7 7 18 117 35 156 8 19 39 85 67 145
29 61 55 122 59 138 3 15 9 27 11 27 3 0 2 -12 -1 -27z m-330 -257 c-3 -15 -8
-25 -11 -23 -2 3 -1 17 3 31 3 15 8 25 11 23 2 -3 1 -17 -3 -31z m856 -46 c0
-5 -2 -10 -4 -10 -3 0 -8 5 -11 10 -3 6 -1 10 4 10 6 0 11 -4 11 -10z m319
-39 c0 -14 -1 -14 -6 -1 -3 8 -10 24 -15 35 -9 20 -9 20 6 1 9 -11 16 -27 15
-35z m-227 7 c-8 -8 -9 -4 -5 13 4 13 8 18 11 10 2 -7 -1 -18 -6 -23z m-979
-18 c3 -11 1 -20 -4 -20 -5 0 -9 9 -9 20 0 11 2 20 4 20 2 0 6 -9 9 -20z
m1011 -86 l6 -59 -14 55 c-7 30 -14 60 -16 65 -1 6 -2 17 -1 25 4 28 19 -25
25 -86z m-827 -51 c-3 -10 -5 -4 -5 12 0 17 2 24 5 18 2 -7 2 -21 0 -30z m849
-55 c2 -18 6 -96 8 -173 l4 -140 -7 125 c-5 69 -11 150 -16 180 -4 30 -4 52 0
48 4 -4 9 -22 11 -40z m-861 -28 c-4 -28 -9 -49 -12 -47 -2 3 -1 28 3 56 4 28
9 50 11 47 3 -3 2 -28 -2 -56z m-2 -361 c5 -46 5 -49 -3 -19 -6 19 -12 96 -14
170 l-5 135 8 -116 c5 -63 11 -140 14 -170z m864 24 c-3 -10 -5 -4 -5 12 0 17
2 24 5 18 2 -7 2 -21 0 -30z m-17 -110 c-11 -17 -11 -17 -6 0 3 10 7 28 7 40
2 22 2 22 6 0 2 -12 -1 -30 -7 -40z"/>
<path d="M2425 3039 c-15 -6 -11 -8 18 -8 20 -1 37 1 37 3 0 9 -37 12 -55 5z"/>
<path d="M2424 2949 c-5 -8 1 -10 19 -5 25 6 47 -7 27 -17 -6 -3 -5 -4 2 -3 7
2 22 -1 33 -7 17 -8 16 -6 -4 17 -25 27 -65 35 -77 15z"/>
<path d="M2354 2939 c-4 -8 -9 -29 -11 -49 -2 -19 -8 -50 -13 -69 -6 -22 -6
-40 1 -50 9 -13 10 -13 6 -1 -3 8 1 44 9 80 7 35 11 67 8 71 -2 4 2 9 8 12 7
2 10 7 7 11 -4 4 -11 2 -15 -5z"/>
<path d="M2400 2928 c0 -9 -4 -18 -10 -20 -5 -1 -12 -19 -15 -38 -3 -19 -2
-28 1 -20 4 8 13 30 22 48 8 18 12 36 8 39 -3 3 -6 -1 -6 -9z"/>
<path d="M2552 2870 c0 -14 2 -19 5 -12 2 6 2 18 0 25 -3 6 -5 1 -5 -13z"/>
<path d="M2390 2851 c0 -7 9 -25 19 -40 22 -30 22 -58 2 -71 -8 -4 -11 -14 -9
-21 3 -9 10 -7 26 9 16 16 23 18 29 9 4 -7 16 -18 26 -26 17 -13 18 -12 12 12
-5 18 -3 27 5 27 6 0 8 5 5 11 -4 6 -13 8 -21 5 -21 -8 -17 0 13 29 21 19 24
25 11 25 -9 0 -29 -15 -43 -32 -15 -18 -25 -25 -21 -16 3 10 0 23 -7 30 -7 7
-21 24 -30 38 -9 13 -17 19 -17 11z"/>
<path d="M2548 2810 c-3 -16 -1 -30 4 -30 4 0 8 14 8 30 0 17 -2 30 -4 30 -2
0 -6 -13 -8 -30z"/>
<path d="M2360 2826 c0 -2 7 -9 15 -16 13 -11 14 -10 9 4 -5 14 -24 23 -24 12z"/>
<path d="M2352 2785 c0 -16 2 -22 5 -12 2 9 2 23 0 30 -3 6 -5 -1 -5 -18z"/>
<path d="M2376 2771 c-4 -5 3 -7 14 -4 23 6 26 13 6 13 -8 0 -17 -4 -20 -9z"/>
<path d="M2540 2752 c0 -11 5 -24 10 -27 6 -4 9 2 7 14 -4 29 -17 39 -17 13z"/>
<path d="M2521 2677 c-14 -48 -49 -87 -79 -87 -8 0 -13 -3 -9 -6 3 -3 22 -1
41 6 25 8 38 19 42 36 3 13 11 21 17 17 6 -4 8 2 4 16 -4 16 -2 21 7 18 7 -3
13 1 13 9 0 7 -4 11 -8 8 -4 -2 -9 4 -11 13 -2 10 -10 -3 -17 -30z"/>
<path d="M2380 2665 c0 -5 5 -17 10 -25 5 -8 10 -10 10 -5 0 6 -5 17 -10 25
-5 8 -10 11 -10 5z"/>
<path d="M2357 2520 c-3 -8 -8 -37 -10 -65 l-6 -50 14 35 c13 35 13 35 8 -20
-3 -30 -10 -63 -14 -72 -5 -9 -6 -24 -2 -34 4 -12 3 -15 -6 -10 -7 5 -17 -5
-26 -26 -8 -18 -31 -49 -51 -68 -40 -39 -130 -170 -126 -184 2 -5 -3 -4 -11 2
-16 14 -28 6 -20 -14 3 -8 10 -11 16 -7 6 3 7 1 3 -6 -6 -9 -11 -9 -21 -1 -10
8 -13 7 -11 -4 0 -8 -3 -15 -9 -15 -24 0 -47 -250 -32 -341 21 -122 30 -160
38 -160 4 0 6 -6 3 -14 -3 -8 0 -17 5 -21 6 -3 9 -11 6 -16 -4 -5 -1 -9 5 -9
7 0 10 -7 6 -15 -3 -8 4 -23 15 -34 17 -15 19 -23 10 -39 -10 -18 -8 -20 8
-17 14 2 21 -4 26 -23 4 -15 10 -29 14 -32 15 -11 50 -81 46 -93 -6 -15 22
-53 32 -43 4 4 0 12 -10 17 -9 6 -17 15 -17 20 0 9 57 -25 70 -41 18 -23 206
-14 236 11 8 6 14 8 14 3 0 -5 4 -4 8 2 10 15 71 34 77 24 3 -4 2 -16 -1 -27
-5 -15 -4 -15 5 -3 6 8 8 23 5 34 -4 13 -3 16 6 11 9 -5 11 -4 6 3 -4 7 -1 12
6 13 13 0 65 59 53 59 -4 0 -26 -16 -49 -35 -25 -20 -80 -48 -131 -66 -75 -27
-98 -31 -155 -27 -100 8 -119 26 -213 210 -70 138 -80 164 -97 262 -23 129
-25 211 -6 284 13 48 55 125 89 162 7 8 24 33 37 55 13 22 52 71 87 109 65 70
80 103 89 191 5 53 -9 150 -19 125z m-247 -544 c0 -2 -8 -10 -17 -17 -16 -13
-17 -12 -4 4 13 16 21 21 21 13z"/>
<path d="M2204 2442 c4 -3 14 -7 22 -8 9 -1 13 0 10 4 -4 3 -14 7 -22 8 -9 1
-13 0 -10 -4z"/>
<path d="M2331 2364 c0 -11 3 -14 6 -6 3 7 2 16 -1 19 -3 4 -6 -2 -5 -13z"/>
<path d="M2399 2328 c4 -28 6 -29 9 -9 2 13 0 27 -5 32 -6 6 -7 -3 -4 -23z"/>
<path d="M2142 2320 c0 -14 2 -19 5 -12 2 6 2 18 0 25 -3 6 -5 1 -5 -13z"/>
<path d="M2590 2326 c0 -9 5 -16 10 -16 6 0 10 4 10 9 0 6 -4 13 -10 16 -5 3
-10 -1 -10 -9z"/>
<path d="M2605 2290 c-3 -5 -1 -10 4 -10 6 0 11 5 11 10 0 6 -2 10 -4 10 -3 0
-8 -4 -11 -10z"/>
<path d="M2144 2275 c-3 -8 -4 -20 -2 -27 3 -7 7 -1 10 15 6 29 1 36 -8 12z"/>
<path d="M2408 2283 c7 -3 16 -2 19 1 4 3 -2 6 -13 5 -11 0 -14 -3 -6 -6z"/>
<path d="M2762 2265 c0 -16 2 -22 5 -12 2 9 2 23 0 30 -3 6 -5 -1 -5 -18z"/>
<path d="M2111 2264 c0 -11 3 -14 6 -6 3 7 2 16 -1 19 -3 4 -6 -2 -5 -13z"/>
<path d="M2632 2260 c0 -14 2 -19 5 -12 2 6 2 18 0 25 -3 6 -5 1 -5 -13z"/>
<path d="M2776 2117 c3 -10 9 -15 12 -12 3 3 0 11 -7 18 -10 9 -11 8 -5 -6z"/>
<path d="M2075 2030 c3 -5 8 -10 11 -10 2 0 4 5 4 10 0 6 -5 10 -11 10 -5 0
-7 -4 -4 -10z"/>
<path d="M2180 2011 c0 -10 30 -24 37 -17 3 2 -5 9 -16 16 -12 6 -21 7 -21 1z"/>
<path d="M2390 2010 c8 -5 24 -10 35 -10 17 0 17 2 5 10 -8 5 -24 10 -35 10
-17 0 -17 -2 -5 -10z"/>
<path d="M2660 2010 c0 -5 5 -10 10 -10 6 0 10 5 10 10 0 6 -4 10 -10 10 -5 0
-10 -4 -10 -10z"/>
<path d="M2254 1998 c7 -5 5 -8 -5 -8 -20 0 -79 -64 -79 -85 0 -8 -5 -15 -10
-15 -12 0 -24 -27 -35 -77 -4 -21 -3 -33 4 -33 6 0 13 24 17 53 4 28 9 46 12
39 2 -7 14 8 27 35 27 57 47 70 129 88 l61 13 -66 -1 c-37 -1 -62 -5 -55 -9z"/>
<path d="M2700 1995 c-7 -9 -8 -15 -2 -15 5 0 12 7 16 15 3 8 4 15 2 15 -2 0
-9 -7 -16 -15z"/>
<path d="M2637 1985 c34 -24 85 -94 93 -128 l8 -32 2 30 c2 29 2 29 9 5 l7
-25 6 27 c4 21 1 26 -13 23 -11 -2 -21 7 -30 27 -19 46 -58 88 -82 88 l-21 0
21 -15z"/>
<path d="M2170 1971 c-8 -6 -17 -8 -21 -5 -4 2 -5 -6 -1 -18 4 -16 7 -18 10
-8 3 8 12 20 21 27 19 14 13 17 -9 4z"/>
<path d="M2821 1944 c0 -11 3 -14 6 -6 3 7 2 16 -1 19 -3 4 -6 -2 -5 -13z"/>
<path d="M2135 1910 c-3 -5 -1 -10 4 -10 6 0 11 5 11 10 0 6 -2 10 -4 10 -3 0
-8 -4 -11 -10z"/>
<path d="M2827 1869 c4 -13 8 -18 11 -10 2 7 -1 18 -6 23 -8 8 -9 4 -5 -13z"/>
<path d="M2111 1844 c0 -11 3 -14 6 -6 3 7 2 16 -1 19 -3 4 -6 -2 -5 -13z"/>
<path d="M2751 1802 c-1 -22 38 -116 45 -109 2 2 -3 19 -13 37 -9 19 -20 47
-24 64 -5 24 -7 26 -8 8z"/>
<path d="M2098 1745 c-3 -23 -2 -59 2 -80 4 -22 9 -33 10 -25 5 41 8 56 10 65
2 6 0 17 -3 25 -3 8 -7 24 -9 35 -2 11 -6 3 -10 -20z m16 -40 c-4 -8 -8 -15
-10 -15 -2 0 -4 7 -4 15 0 8 4 15 10 15 5 0 7 -7 4 -15z"/>
<path d="M2744 1672 c-2 -64 -7 -98 -17 -108 -4 -4 -7 -23 -7 -41 0 -34 -29
-103 -58 -135 -8 -10 -12 -18 -9 -18 4 0 -15 -19 -41 -42 -26 -24 -49 -46 -52
-49 -11 -13 -53 -31 -93 -39 l-42 -8 45 -1 c29 -1 57 6 77 19 30 18 33 18 42
2 6 -9 11 -12 11 -5 0 7 6 11 13 9 6 -1 9 -1 4 1 -4 3 -4 10 0 16 5 8 2 8 -9
0 -20 -17 -30 -6 -15 18 9 14 14 16 27 6 13 -11 13 -10 0 7 -14 18 -13 18 10
12 15 -5 20 -4 13 1 -9 7 -1 18 30 40 40 27 45 36 56 91 6 33 9 73 6 89 l-6
28 15 -30 c15 -29 15 -29 14 -5 -3 30 10 53 24 44 5 -4 4 4 -3 17 -7 13 -13
45 -13 71 -1 71 -21 80 -22 10z m12 -100 c-18 -16 -18 -16 -8 4 6 12 10 24 8
26 -1 3 2 2 8 -3 7 -6 4 -15 -8 -27z m-39 -134 c-3 -8 -6 -5 -6 6 -1 11 2 17
5 13 3 -3 4 -12 1 -19z m-17 -53 c-21 -26 -31 -16 -13 11 9 15 19 21 21 15 2
-6 -2 -18 -8 -26z"/>
<path d="M2092 1600 c0 -14 2 -19 5 -12 2 6 2 18 0 25 -3 6 -5 1 -5 -13z"/>
<path d="M2101 1550 c1 -8 5 -26 9 -40 l8 -25 1 25 c0 14 -4 32 -9 40 -9 13
-10 13 -9 0z"/>
<path d="M2120 1477 c0 -11 61 -100 74 -109 7 -5 7 -8 1 -8 -5 0 -2 -5 9 -11
15 -9 16 -13 5 -20 -10 -6 -7 -8 10 -6 18 3 33 -6 54 -30 37 -41 77 -63 114
-62 l28 1 -32 8 c-44 10 -196 143 -240 211 -13 18 -23 30 -23 26z"/>
<path d="M2755 1389 c-11 -16 -1 -19 13 -3 7 8 8 14 3 14 -5 0 -13 -5 -16 -11z"/>
<path d="M2731 1334 c-6 -15 -9 -29 -6 -32 3 -3 5 0 5 7 0 7 3 10 8 8 4 -3 8
6 8 19 2 30 0 30 -15 -2z"/>
<path d="M2690 1346 c0 -2 7 -7 16 -10 8 -3 12 -2 9 4 -6 10 -25 14 -25 6z"/>
<path d="M2166 1242 c-3 -5 1 -9 9 -9 8 0 12 4 9 9 -3 4 -7 8 -9 8 -2 0 -6 -4
-9 -8z"/>
<path d="M2620 1236 c0 -2 7 -7 16 -10 8 -3 12 -2 9 4 -6 10 -25 14 -25 6z"/>
<path d="M2398 1213 c12 -2 30 -2 40 0 9 3 -1 5 -23 4 -22 0 -30 -2 -17 -4z"/>
<path d="M2488 1213 c7 -3 16 -2 19 1 4 3 -2 6 -13 5 -11 0 -14 -3 -6 -6z"/>
<path d="M2378 1183 c7 -3 16 -2 19 1 4 3 -2 6 -13 5 -11 0 -14 -3 -6 -6z"/>
<path d="M2465 1180 c-25 -11 1 -11 35 0 20 6 21 8 5 8 -11 0 -29 -3 -40 -8z"/>
<path d="M2205 1149 c-4 -6 -5 -12 -2 -15 2 -3 7 2 10 11 7 17 1 20 -8 4z"/>
<path d="M2398 1143 c7 -3 16 -2 19 1 4 3 -2 6 -13 5 -11 0 -14 -3 -6 -6z"/>
<path d="M2301 1091 c-8 -5 -9 -11 -3 -15 5 -3 12 1 16 9 6 17 6 18 -13 6z"/>
<path d="M2443 1093 c9 -2 25 -2 35 0 9 3 1 5 -18 5 -19 0 -27 -2 -17 -5z"/>
<path d="M2593 1063 c-3 -10 -8 -22 -11 -27 -3 -5 0 -6 5 -3 11 7 25 47 17 47
-3 0 -7 -8 -11 -17z"/>
<path d="M2316 3053 c-6 -14 -5 -15 5 -6 7 7 10 15 7 18 -3 3 -9 -2 -12 -12z"/>
<path d="M2160 3015 c-13 -14 -21 -25 -17 -25 3 0 18 11 33 25 15 14 23 25 17
25 -5 0 -20 -11 -33 -25z"/>
<path d="M2703 3017 c29 -28 37 -32 37 -19 0 4 -15 16 -32 26 l-33 19 28 -26z"/>
<path d="M2720 3036 c0 -2 7 -7 16 -10 8 -3 12 -2 9 4 -6 10 -25 14 -25 6z"/>
<path d="M2930 3031 c0 -20 123 -101 135 -89 11 11 -8 37 -36 48 -16 7 -29 17
-29 22 0 5 -8 8 -18 6 -11 -2 -26 3 -35 11 -11 9 -17 9 -17 2z m118 -76 c-3
-3 -9 2 -12 12 -6 14 -5 15 5 6 7 -7 10 -15 7 -18z"/>
<path d="M2065 2995 c17 -14 18 -17 5 -25 -8 -6 -25 -13 -37 -16 -13 -3 -23
-10 -23 -15 0 -12 7 -11 38 5 29 16 73 61 50 53 -7 -2 -22 0 -33 5 -20 9 -20
9 0 -7z"/>
<path d="M2250 2989 c0 -5 -4 -8 -8 -5 -4 2 -8 -4 -8 -15 0 -19 1 -19 13 -3
13 18 17 34 8 34 -3 0 -5 -5 -5 -11z"/>
<path d="M2025 2979 c-11 -17 1 -21 15 -4 8 9 8 15 2 15 -6 0 -14 -5 -17 -11z"/>
<path d="M2630 2971 c0 -6 4 -13 10 -16 6 -3 7 1 4 9 -7 18 -14 21 -14 7z"/>
<path d="M2799 2967 c6 -8 34 -26 63 -42 29 -16 56 -33 60 -39 4 -6 11 -7 15
-2 11 11 -46 58 -59 50 -7 -5 -9 -1 -5 9 4 11 2 14 -9 10 -8 -3 -25 2 -39 11
-30 19 -41 21 -26 3z"/>
<path d="M2845 2970 c3 -5 8 -10 11 -10 2 0 4 5 4 10 0 6 -5 10 -11 10 -5 0
-7 -4 -4 -10z"/>
<path d="M2945 2960 c-3 -5 -11 -8 -16 -5 -15 10 -10 -5 11 -32 13 -16 18 -34
15 -47 -5 -17 -4 -18 4 -6 9 12 11 9 11 -13 0 -16 4 -26 10 -22 6 4 10 -5 10
-20 0 -14 4 -24 8 -21 4 2 13 -26 20 -62 14 -70 36 -117 52 -107 6 4 7 -1 3
-11 -5 -13 -3 -16 10 -11 9 3 19 2 22 -3 4 -6 11 -10 17 -10 6 0 5 7 -3 18
-13 16 -12 16 4 3 16 -12 18 -27 15 -92 -3 -74 -2 -79 25 -104 15 -14 32 -23
37 -20 6 4 7 -2 3 -12 -6 -15 -4 -16 9 -6 8 7 18 10 21 6 4 -3 7 0 7 7 0 7 2
11 5 9 2 -3 -3 -23 -11 -44 -15 -39 -15 -39 -9 -6 4 26 2 31 -8 23 -19 -16
-31 -15 -37 4 -3 9 -6 -7 -6 -36 0 -33 3 -46 7 -34 7 16 8 17 8 2 1 -29 24
-69 36 -64 9 3 14 -17 17 -65 4 -52 12 -79 32 -109 25 -38 38 -71 15 -40 -9
12 -10 12 -5 -3 3 -10 -1 -28 -10 -40 -15 -21 -15 -21 -13 18 1 22 -3 51 -9
65 -7 19 -9 10 -5 -40 5 -68 -11 -155 -27 -145 -6 3 -7 0 -4 -8 3 -9 -4 -21
-15 -29 -15 -11 -23 -33 -31 -84 -5 -38 -9 -80 -9 -94 l1 -25 8 25 c4 14 9 50
9 80 1 41 4 51 12 40 9 -13 10 -13 8 0 -3 29 1 41 11 35 13 -8 3 -85 -17 -134
-7 -19 -11 -41 -9 -48 3 -7 0 -16 -7 -20 -7 -5 -29 -42 -49 -83 -35 -71 -37
-74 -47 -50 -8 20 -10 21 -10 6 -1 -11 -4 -17 -7 -13 -12 11 7 67 23 67 13 0
13 2 2 17 -12 15 -12 16 4 10 11 -4 17 -1 17 9 0 8 5 12 10 9 6 -3 10 1 10 9
0 45 -57 -12 -73 -72 -9 -37 -28 -63 -84 -122 -41 -41 -73 -83 -74 -95 -1 -52
-11 -82 -49 -162 -43 -91 -60 -179 -42 -223 8 -18 11 -20 11 -7 1 9 5 25 10
35 5 9 30 62 56 117 49 102 75 149 152 268 24 37 47 75 50 85 4 9 15 26 25 36
10 11 18 26 18 33 0 7 5 13 11 13 5 0 7 5 4 10 -3 6 -2 10 3 10 9 0 62 115 62
134 0 5 6 17 14 25 11 12 13 32 7 84 -8 78 10 145 54 202 24 32 34 85 16 85
-15 0 -18 33 -10 105 6 49 5 72 -3 80 -7 7 -9 7 -5 -1 3 -6 2 -40 -2 -75 l-9
-64 1 76 c2 69 0 79 -22 96 -22 18 -22 21 -10 63 17 57 17 66 1 62 -6 -1 -12
3 -12 9 0 6 -8 9 -19 6 -15 -4 -21 4 -31 37 -6 22 -16 49 -21 58 -12 24 -11
37 1 18 8 -12 10 -12 10 5 0 11 3 30 6 42 5 19 0 25 -35 39 -23 9 -41 20 -41
25 0 4 -9 17 -21 28 -13 12 -27 49 -40 106 -19 88 -80 208 -94 185z m15 -26
c0 -8 -5 -12 -10 -9 -6 4 -8 11 -5 16 9 14 15 11 15 -7z m37 -76 c-3 -8 -6 -5
-6 6 -1 11 2 17 5 13 3 -3 4 -12 1 -19z m260 -650 c-3 -7 -5 -2 -5 12 0 14 2
19 5 13 2 -7 2 -19 0 -25z m-201 -778 c-14 -22 -26 -44 -26 -50 0 -6 -4 -9 -9
-5 -5 3 -12 1 -16 -5 -3 -5 -1 -10 5 -10 7 0 0 -14 -14 -30 -32 -39 -115 -205
-146 -293 -18 -50 -26 -63 -31 -50 -3 10 -2 29 3 42 5 14 6 31 4 38 -3 8 -2
12 2 9 5 -3 17 17 27 45 11 27 22 49 26 49 8 0 28 44 45 99 7 25 24 54 37 65
22 20 45 72 26 60 -5 -3 -9 0 -9 7 0 6 8 9 20 6 11 -3 18 -2 15 3 -6 9 55 74
62 66 3 -3 -6 -24 -21 -46z m-76 -58 c0 -5 -13 -18 -29 -30 -16 -12 -32 -32
-34 -44 -4 -22 -4 -22 -6 -1 0 12 11 35 25 52 25 30 44 40 44 23z"/>
<path d="M2690 2926 c0 -2 8 -10 18 -17 15 -13 16 -12 3 4 -13 16 -21 21 -21
13z"/>
<path d="M2119 2893 c-13 -16 -12 -17 4 -4 9 7 17 15 17 17 0 8 -8 3 -21 -13z"/>
<path d="M1805 2890 c-3 -5 -1 -10 4 -10 6 0 11 5 11 10 0 6 -2 10 -4 10 -3 0
-8 -4 -11 -10z"/>
<path d="M2776 2831 c-3 -5 1 -14 8 -20 12 -10 13 -8 9 8 -6 23 -9 25 -17 12z"/>
<path d="M2086 2814 c-5 -14 -4 -15 9 -4 17 14 19 20 6 20 -5 0 -12 -7 -15
-16z"/>
<path d="M2940 2790 c6 -11 13 -20 16 -20 2 0 0 9 -6 20 -6 11 -13 20 -16 20
-2 0 0 -9 6 -20z"/>
<path d="M3050 2801 c0 -6 5 -13 11 -16 6 -4 8 -14 4 -23 -3 -9 -3 -14 0 -10
4 4 20 -8 36 -25 15 -18 29 -26 29 -19 0 6 -3 12 -7 12 -5 0 -21 20 -36 45
-29 45 -37 53 -37 36z"/>
<path d="M1806 2775 c-9 -26 -7 -32 5 -12 6 10 9 21 6 23 -2 3 -7 -2 -11 -11z"/>
<path d="M3130 2780 c0 -5 4 -10 8 -10 5 0 7 -13 4 -29 -2 -16 1 -31 6 -35 6
-4 8 2 5 14 -3 11 -1 26 5 33 8 9 6 16 -9 25 -11 7 -19 8 -19 2z"/>
<path d="M1738 2735 c-3 -14 -1 -25 3 -25 5 0 9 11 9 25 0 14 -2 25 -4 25 -2
0 -6 -11 -8 -25z"/>
<path d="M1777 2746 c-4 -10 -7 -25 -6 -34 0 -11 4 -9 10 7 5 13 8 29 6 35 -2
5 -6 2 -10 -8z"/>
<path d="M2691 2714 c0 -11 3 -14 6 -6 3 7 2 16 -1 19 -3 4 -6 -2 -5 -13z"/>
<path d="M1897 2696 c4 -13 3 -17 -5 -12 -8 5 -10 2 -5 -9 4 -13 8 -14 14 -4
5 8 9 0 12 -22 4 -34 4 -34 5 -3 1 16 -5 39 -13 50 -15 18 -15 18 -8 0z"/>
<path d="M2171 2674 c0 -11 3 -14 6 -6 3 7 2 16 -1 19 -3 4 -6 -2 -5 -13z"/>
<path d="M2120 2670 c-12 -7 -12 -12 -2 -22 9 -9 12 -9 12 4 0 9 6 19 13 21 6
3 8 6 2 6 -5 0 -17 -4 -25 -9z"/>
<path d="M2714 2669 c-3 -6 0 -22 7 -36 11 -20 11 -26 -1 -34 -13 -9 -13 -10
0 -6 9 3 24 -10 38 -32 18 -28 22 -31 17 -11 -4 14 -13 32 -19 40 -11 14 -36
66 -36 75 0 2 8 6 18 8 15 4 15 5 0 6 -9 0 -20 -4 -24 -10z"/>
<path d="M2900 2676 c0 -2 7 -9 15 -16 13 -11 14 -10 9 4 -5 14 -24 23 -24 12z"/>
<path d="M2950 2655 c0 -5 5 -17 10 -25 5 -8 10 -10 10 -5 0 6 -5 17 -10 25
-5 8 -10 11 -10 5z"/>
<path d="M2151 2638 c-1 -9 -7 -23 -14 -30 -7 -7 -21 -33 -32 -58 -11 -25 -22
-47 -25 -50 -18 -14 -98 -190 -107 -231 -3 -18 -1 -29 6 -29 6 0 11 10 11 23
0 28 25 99 32 92 3 -3 11 15 17 40 6 25 18 48 26 51 7 3 11 12 8 20 -3 8 -1
14 4 14 6 0 18 19 28 43 24 54 24 54 36 37 8 -12 9 -10 4 7 -3 12 -1 32 5 43
6 12 9 26 6 33 -2 7 -5 5 -5 -5z"/>
<path d="M2090 2629 c0 -5 5 -7 10 -4 6 3 10 8 10 11 0 2 -4 4 -10 4 -5 0 -10
-5 -10 -11z"/>
<path d="M2770 2637 c0 -2 11 -18 25 -37 14 -19 25 -29 25 -23 0 6 -7 16 -15
23 -8 7 -15 19 -15 26 0 8 -4 14 -10 14 -5 0 -10 -1 -10 -3z"/>
<path d="M1620 2610 c-11 -20 -10 -21 8 -11 15 8 21 8 24 -1 3 -7 7 -4 12 7 4
11 4 16 0 12 -4 -4 -13 -2 -20 4 -9 8 -16 5 -24 -11z"/>
<path d="M2060 2600 c0 -5 -3 -17 -6 -27 -5 -13 -2 -12 10 5 10 12 23 19 29
16 7 -4 8 -3 4 1 -10 12 -37 15 -37 5z"/>
<path d="M3191 2579 c-1 -20 -3 -52 -6 -70 -4 -25 -1 -20 11 15 11 36 13 55 5
70 -8 18 -10 16 -10 -15z"/>
<path d="M3227 2603 c-4 -3 -7 -11 -7 -17 0 -6 5 -5 12 2 6 6 9 14 7 17 -3 3
-9 2 -12 -2z"/>
<path d="M3260 2590 c0 -5 5 -10 11 -10 5 0 7 5 4 10 -3 6 -8 10 -11 10 -2 0
-4 -4 -4 -10z"/>
<path d="M1766 2541 c-4 -29 -5 -55 -2 -58 6 -7 19 83 14 99 -3 7 -8 -11 -12
-41z"/>
<path d="M3107 2538 c8 -57 13 -61 13 -10 0 22 -4 43 -9 46 -5 4 -7 -12 -4
-36z"/>
<path d="M1852 2540 c0 -14 2 -19 5 -12 2 6 2 18 0 25 -3 6 -5 1 -5 -13z"/>
<path d="M1881 2544 c0 -11 3 -14 6 -6 3 7 2 16 -1 19 -3 4 -6 -2 -5 -13z"/>
<path d="M3020 2541 c0 -11 4 -22 9 -25 4 -3 6 6 3 19 -5 30 -12 33 -12 6z"/>
<path d="M1657 2526 c-5 -15 -6 -31 -3 -34 8 -8 18 25 14 45 -3 13 -6 10 -11
-11z"/>
<path d="M1905 2518 l-16 -33 20 25 c20 24 26 40 16 40 -2 0 -12 -15 -20 -32z"/>
<path d="M2950 2544 c0 -7 9 -22 21 -35 16 -19 18 -20 10 -4 -17 34 -31 51
-31 39z"/>
<path d="M3221 2543 c0 -6 -4 -20 -7 -30 -5 -14 -4 -15 5 -7 7 7 11 20 8 30
-3 11 -5 14 -6 7z"/>
<path d="M3056 2515 c8 -37 14 -45 14 -19 0 10 -5 26 -10 34 -8 11 -9 7 -4
-15z"/>
<path d="M1804 2519 c-5 -8 -3 -9 6 -4 7 4 16 2 22 -6 8 -12 9 -12 6 0 -6 20
-24 25 -34 10z"/>
<path d="M1692 2495 c0 -16 2 -22 5 -12 2 9 2 23 0 30 -3 6 -5 -1 -5 -18z"/>
<path d="M2775 2499 c-4 -11 -4 -23 -1 -26 3 -4 6 2 6 12 0 16 2 15 20 -5 11
-13 20 -29 20 -37 0 -7 5 -13 10 -13 6 0 10 3 10 6 0 11 -23 50 -41 66 -17 17
-18 17 -24 -3z"/>
<path d="M3300 2486 c0 -10 -5 -14 -11 -10 -8 4 -9 -1 -4 -16 5 -17 4 -21 -5
-15 -8 5 -11 4 -6 -3 3 -6 -2 -13 -11 -15 -10 -3 -4 -5 14 -6 41 -1 63 8 63
26 0 12 -2 12 -16 -1 -24 -25 -34 -19 -22 15 6 16 8 33 4 36 -3 4 -6 -1 -6
-11z"/>
<path d="M1791 2474 c0 -11 3 -14 6 -6 3 7 2 16 -1 19 -3 4 -6 -2 -5 -13z"/>
<path d="M2101 2474 c0 -11 3 -14 6 -6 3 7 2 16 -1 19 -3 4 -6 -2 -5 -13z"/>
<path d="M2886 2477 c3 -10 9 -15 12 -12 3 3 0 11 -7 18 -10 9 -11 8 -5 -6z"/>
<path d="M1620 2470 c0 -5 4 -10 9 -10 6 0 13 5 16 10 3 6 -1 10 -9 10 -9 0
-16 -4 -16 -10z"/>
<path d="M1976 2443 c-6 -14 -5 -15 5 -6 7 7 10 15 7 18 -3 3 -9 -2 -12 -12z"/>
<path d="M3123 2398 c1 -15 6 -23 11 -18 4 4 4 16 -2 26 -9 16 -10 14 -9 -8z"/>
<path d="M1570 2400 c0 -6 7 -10 15 -10 8 0 15 2 15 4 0 2 -7 6 -15 10 -8 3
-15 1 -15 -4z"/>
<path d="M1632 2390 c0 -14 2 -19 5 -12 2 6 2 18 0 25 -3 6 -5 1 -5 -13z"/>
<path d="M1746 2401 c-4 -5 -3 -17 1 -27 5 -13 3 -15 -7 -9 -9 6 -11 4 -6 -4
11 -17 21 -5 21 25 1 26 -1 29 -9 15z"/>
<path d="M2840 2396 c0 -8 5 -18 10 -21 6 -3 10 3 10 14 0 12 -4 21 -10 21 -5
0 -10 -6 -10 -14z"/>
<path d="M3102 2375 c0 -16 2 -22 5 -12 2 9 2 23 0 30 -3 6 -5 -1 -5 -18z"/>
<path d="M3273 2388 c0 -7 -4 -22 -8 -33 l-7 -20 12 20 c7 11 20 26 28 33 14
11 13 12 -4 12 -12 0 -21 -6 -21 -12z"/>
<path d="M3340 2376 c0 -8 4 -17 9 -20 5 -4 7 3 4 14 -6 23 -13 26 -13 6z"/>
<path d="M1533 2340 c0 -25 2 -35 4 -22 2 12 2 32 0 45 -2 12 -4 2 -4 -23z"/>
<path d="M1713 2345 c0 -22 2 -30 4 -17 2 12 2 30 0 40 -3 9 -5 -1 -4 -23z"/>
<path d="M1936 2365 c-9 -26 -7 -32 5 -12 6 10 9 21 6 23 -2 3 -7 -2 -11 -11z"/>
<path d="M2890 2375 c0 -5 5 -17 10 -25 5 -8 10 -10 10 -5 0 6 -5 17 -10 25
-5 8 -10 11 -10 5z"/>
<path d="M2931 2375 c1 -19 18 -51 18 -35 0 8 -4 22 -9 30 -5 8 -9 11 -9 5z"/>
<path d="M1603 2323 c-6 -21 -10 -40 -8 -42 7 -6 26 51 23 66 -2 8 -8 -3 -15
-24z"/>
<path d="M1642 2340 c0 -14 2 -19 5 -12 2 6 2 18 0 25 -3 6 -5 1 -5 -13z"/>
<path d="M2855 2350 c4 -6 11 -8 16 -5 14 9 11 15 -7 15 -8 0 -12 -5 -9 -10z"/>
<path d="M3080 2355 c0 -5 5 -17 10 -25 5 -8 10 -10 10 -5 0 6 -5 17 -10 25
-5 8 -10 11 -10 5z"/>
<path d="M2885 2316 c4 -18 1 -32 -7 -37 -7 -4 -9 -11 -5 -16 5 -4 12 -1 16 6
12 18 43 -120 36 -157 -5 -23 -4 -24 5 -7 8 15 9 10 4 -22 -3 -25 -2 -43 4
-43 5 0 12 -42 16 -94 4 -51 11 -106 16 -122 20 -62 -16 252 -41 361 -18 79
-56 192 -44 131z"/>
<path d="M1911 2299 c-6 -18 -11 -37 -10 -43 0 -6 7 7 15 28 8 22 12 41 10 43
-2 2 -9 -10 -15 -28z"/>
<path d="M3260 2316 c0 -2 7 -9 15 -16 13 -11 14 -10 9 4 -5 14 -24 23 -24 12z"/>
<path d="M3315 2293 c-18 -14 -18 -15 -2 -9 10 3 23 6 28 6 5 0 9 5 9 10 0 14
-12 12 -35 -7z"/>
<path d="M1560 2291 c0 -6 5 -13 10 -16 6 -3 10 1 10 9 0 9 -4 16 -10 16 -5 0
-10 -4 -10 -9z"/>
<path d="M1887 2220 c-3 -11 -1 -20 4 -20 5 0 9 9 9 20 0 11 -2 20 -4 20 -2 0
-6 -9 -9 -20z"/>
<path d="M1580 2218 c0 -7 5 -20 10 -28 8 -11 9 -9 8 13 -2 26 -18 40 -18 15z"/>
<path d="M1955 2200 c-4 -17 -5 -34 -2 -36 2 -3 7 10 11 27 3 18 4 34 2 36 -2
3 -7 -10 -11 -27z"/>
<path d="M1662 2195 c0 -16 2 -22 5 -12 2 9 2 23 0 30 -3 6 -5 -1 -5 -18z"/>
<path d="M2987 2198 c4 -13 7 -43 7 -68 -1 -30 1 -38 6 -25 7 19 8 18 12 -5
l5 -25 2 25 c0 14 -4 43 -11 65 -6 22 -11 43 -10 48 1 4 -3 7 -9 7 -6 0 -7 -8
-2 -22z"/>
<path d="M3354 2187 c-1 -30 -1 -30 9 -9 6 14 7 26 1 32 -5 5 -9 -4 -10 -23z"/>
<path d="M3210 2199 c0 -5 5 -7 10 -4 6 3 10 8 10 11 0 2 -4 4 -10 4 -5 0 -10
-5 -10 -11z"/>
<path d="M2891 2184 c0 -11 3 -14 6 -6 3 7 2 16 -1 19 -3 4 -6 -2 -5 -13z"/>
<path d="M1882 2170 c0 -14 2 -19 5 -12 2 6 2 18 0 25 -3 6 -5 1 -5 -13z"/>
<path d="M3321 2174 c0 -11 3 -14 6 -6 3 7 2 16 -1 19 -3 4 -6 -2 -5 -13z"/>
<path d="M3222 2160 c0 -14 2 -19 5 -12 2 6 2 18 0 25 -3 6 -5 1 -5 -13z"/>
<path d="M3371 2154 c0 -11 3 -14 6 -6 3 7 2 16 -1 19 -3 4 -6 -2 -5 -13z"/>
<path d="M1942 2129 c-1 -15 -4 -42 -7 -60 -5 -31 -5 -32 5 -9 6 13 9 40 7 60
-3 25 -4 28 -5 9z"/>
<path d="M1560 2125 c0 -8 4 -15 10 -15 5 0 7 7 4 15 -4 8 -8 15 -10 15 -2 0
-4 -7 -4 -15z"/>
<path d="M1866 2109 c-8 -42 0 -50 9 -9 4 17 5 34 2 36 -2 3 -7 -10 -11 -27z"/>
<path d="M3231 2114 c0 -11 3 -14 6 -6 3 7 2 16 -1 19 -3 4 -6 -2 -5 -13z"/>
<path d="M3307 2109 c4 -13 8 -18 11 -10 2 7 -1 18 -6 23 -8 8 -9 4 -5 -13z"/>
<path d="M3023 2035 c0 -22 2 -30 4 -17 2 12 2 30 0 40 -3 9 -5 -1 -4 -23z"/>
<path d="M3370 2070 c-8 -26 -7 -41 2 -32 6 6 8 16 5 24 -3 7 -6 11 -7 8z"/>
<path d="M1853 2010 c0 -30 2 -43 4 -27 2 15 2 39 0 55 -2 15 -4 2 -4 -28z"/>
<path d="M3335 2039 c-4 -6 -5 -12 -2 -15 2 -3 7 2 10 11 7 17 1 20 -8 4z"/>
<path d="M1951 2024 c0 -11 3 -14 6 -6 3 7 2 16 -1 19 -3 4 -6 -2 -5 -13z"/>
<path d="M1916 1960 c-3 -30 -8 -86 -10 -125 -4 -63 -4 -65 5 -25 19 91 28
174 19 189 -5 10 -10 -2 -14 -39z"/>
<path d="M2932 1980 c0 -14 2 -19 5 -12 2 6 2 18 0 25 -3 6 -5 1 -5 -13z"/>
<path d="M3033 1925 c0 -38 2 -53 4 -32 2 20 2 52 0 70 -2 17 -4 1 -4 -38z"/>
<path d="M3330 1940 c0 -5 5 -10 11 -10 5 0 7 5 4 10 -3 6 -8 10 -11 10 -2 0
-4 -4 -4 -10z"/>
<path d="M1530 1929 c0 -5 5 -7 10 -4 6 3 10 8 10 11 0 2 -4 4 -10 4 -5 0 -10
-5 -10 -11z"/>
<path d="M1566 1925 c4 -11 11 -49 14 -85 l7 -65 1 66 c2 46 -3 71 -14 85 -15
19 -16 19 -8 -1z"/>
<path d="M3271 1904 c0 -11 3 -14 6 -6 3 7 2 16 -1 19 -3 4 -6 -2 -5 -13z"/>
<path d="M3350 1913 c0 -15 19 -37 26 -31 3 4 -1 14 -10 23 -9 9 -16 13 -16 8z"/>
<path d="M1651 1818 c-1 -42 -4 -85 -7 -95 -5 -15 -4 -15 5 -3 9 13 11 12 11
-6 0 -35 67 -194 82 -194 4 0 8 -7 8 -16 0 -14 12 -32 60 -91 6 -7 10 -15 10
-19 0 -4 11 -22 25 -40 14 -18 25 -36 25 -39 0 -4 9 -19 19 -33 36 -52 141
-267 136 -280 -2 -7 0 -10 5 -7 6 3 10 1 10 -6 0 -7 3 -10 6 -6 13 13 -54 179
-69 170 -6 -3 -7 -1 -3 5 7 12 -71 172 -85 172 -4 0 -17 20 -28 45 -11 25 -33
59 -50 77 -24 26 -28 35 -18 47 9 12 9 13 0 8 -26 -16 -113 173 -118 256 -2
27 -6 51 -9 54 -3 4 -1 13 6 20 8 10 8 17 1 21 -5 4 -13 14 -16 22 -3 8 -6
-20 -6 -62z"/>
<path d="M3290 1843 c3 -75 1 -95 -9 -89 -5 3 -11 -5 -13 -19 -7 -33 10 -32
23 2 12 33 17 153 6 153 -5 0 -8 -21 -7 -47z"/>
<path d="M1852 1855 c0 -16 2 -22 5 -12 2 9 2 23 0 30 -3 6 -5 -1 -5 -18z"/>
<path d="M2941 1843 c-1 -23 3 -44 7 -47 4 -2 6 12 4 32 -5 56 -10 62 -11 15z"/>
<path d="M1705 1860 c3 -5 8 -10 11 -10 2 0 4 5 4 10 0 6 -5 10 -11 10 -5 0
-7 -4 -4 -10z"/>
<path d="M3251 1844 c0 -11 3 -14 6 -6 3 7 2 16 -1 19 -3 4 -6 -2 -5 -13z"/>
<path d="M1689 1818 c4 -12 11 -51 15 -85 9 -77 24 -123 41 -123 7 0 23 -8 35
-18 20 -16 21 -22 11 -43 -11 -21 -10 -22 2 -7 18 23 28 12 20 -20 -4 -17 -2
-23 6 -18 6 4 11 2 11 -3 0 -6 -6 -11 -14 -11 -9 0 -3 -11 15 -29 16 -16 29
-36 29 -44 0 -8 8 -21 18 -28 14 -11 15 -11 5 1 -17 19 -16 31 2 24 8 -4 15
-13 15 -22 0 -8 3 -12 6 -9 10 9 47 -42 61 -82 18 -52 8 -49 -12 3 -17 44 -45
70 -45 41 0 -8 5 -15 11 -15 5 0 19 -21 31 -47 11 -27 38 -86 61 -133 22 -47
40 -93 39 -102 0 -10 3 -18 8 -18 4 0 5 -15 1 -32 -8 -38 -4 -68 10 -68 15 0
10 91 -7 151 -9 30 -29 77 -45 105 -19 34 -29 65 -29 93 0 25 -4 40 -10 36 -6
-3 -7 1 -4 10 5 12 -14 37 -64 84 -55 54 -72 77 -78 107 -9 49 -38 89 -75 104
-31 13 -31 16 -46 144 -5 41 -13 71 -21 74 -9 3 -10 -2 -3 -20z"/>
<path d="M3021 1828 c0 -9 -4 -25 -7 -35 -5 -14 -4 -15 5 -7 7 7 11 22 8 35
-2 13 -5 16 -6 7z"/>
<path d="M1856 1803 c-6 -14 -5 -15 5 -6 7 7 10 15 7 18 -3 3 -9 -2 -12 -12z"/>
<path d="M1926 1797 c3 -10 9 -15 12 -12 3 3 0 11 -7 18 -10 9 -11 8 -5 -6z"/>
<path d="M1631 1784 c0 -11 3 -14 6 -6 3 7 2 16 -1 19 -3 4 -6 -2 -5 -13z"/>
<path d="M2972 1760 c0 -14 2 -19 5 -12 2 6 2 18 0 25 -3 6 -5 1 -5 -13z"/>
<path d="M1591 1754 c0 -11 3 -14 6 -6 3 7 2 16 -1 19 -3 4 -6 -2 -5 -13z"/>
<path d="M3001 1754 c0 -11 3 -14 6 -6 3 7 2 16 -1 19 -3 4 -6 -2 -5 -13z"/>
<path d="M1761 1734 c0 -11 3 -14 6 -6 3 7 2 16 -1 19 -3 4 -6 -2 -5 -13z"/>
<path d="M1880 1735 c0 -8 4 -15 10 -15 5 0 7 7 4 15 -4 8 -8 15 -10 15 -2 0
-4 -7 -4 -15z"/>
<path d="M1608 1729 c-3 -9 -2 -22 2 -30 13 -19 18 -8 10 21 -4 19 -7 21 -12
9z"/>
<path d="M1780 1731 c0 -6 4 -13 10 -16 6 -3 7 1 4 9 -7 18 -14 21 -14 7z"/>
<path d="M3336 1723 c-6 -14 -5 -15 5 -6 7 7 10 15 7 18 -3 3 -9 -2 -12 -12z"/>
<path d="M2985 1719 c-4 -6 -5 -12 -2 -15 2 -3 7 2 10 11 7 17 1 20 -8 4z"/>
<path d="M1942 1700 c0 -14 2 -19 5 -12 2 6 2 18 0 25 -3 6 -5 1 -5 -13z"/>
<path d="M2950 1709 c0 -5 5 -7 10 -4 6 3 10 8 10 11 0 2 -4 4 -10 4 -5 0 -10
-5 -10 -11z"/>
<path d="M1881 1694 c0 -11 3 -14 6 -6 3 7 2 16 -1 19 -3 4 -6 -2 -5 -13z"/>
<path d="M1776 1685 c-9 -26 -7 -32 5 -12 6 10 9 21 6 23 -2 3 -7 -2 -11 -11z"/>
<path d="M3249 1680 c-2 -26 -2 -27 -23 -74 -9 -21 -15 -40 -13 -42 4 -4 41
77 52 114 4 13 2 22 -4 22 -6 0 -12 -9 -12 -20z"/>
<path d="M1631 1663 c0 -7 5 -27 13 -45 8 -18 18 -44 23 -57 9 -23 10 -23 17
-6 4 11 4 16 0 12 -10 -9 -35 63 -27 76 3 6 1 7 -5 3 -6 -3 -13 2 -15 11 -3
10 -5 13 -6 6z"/>
<path d="M2964 1650 c2 -16 20 -14 24 2 3 10 2 10 -6 -1 -7 -9 -11 -10 -15 -2
-4 7 -5 8 -3 1z"/>
<path d="M1800 1631 c0 -5 7 -15 17 -22 15 -13 15 -12 4 9 -12 23 -21 28 -21
13z"/>
<path d="M1942 1615 c0 -16 2 -22 5 -12 2 9 2 23 0 30 -3 6 -5 -1 -5 -18z"/>
<path d="M2931 1624 c0 -11 3 -14 6 -6 3 7 2 16 -1 19 -3 4 -6 -2 -5 -13z"/>
<path d="M3147 1633 c-4 -3 -7 -11 -7 -17 0 -6 5 -5 12 2 6 6 9 14 7 17 -3 3
-9 2 -12 -2z"/>
<path d="M3184 1525 c-3 -14 -11 -25 -17 -25 -6 0 -7 -3 -4 -7 4 -3 2 -12 -4
-20 -6 -7 -7 -13 -2 -13 5 0 18 20 30 45 11 25 17 45 12 45 -5 0 -11 -11 -15
-25z"/>
<path d="M1693 1513 c1 -19 6 -28 11 -23 6 6 5 18 -2 32 -10 22 -10 21 -9 -9z"/>
<path d="M1737 1443 c4 -10 13 -24 20 -31 7 -7 13 -20 13 -28 0 -8 5 -12 10
-9 6 4 19 -13 29 -37 11 -24 20 -37 20 -30 1 19 -25 67 -54 98 -14 15 -25 33
-25 40 0 8 -4 14 -10 14 -5 0 -6 -8 -3 -17z"/>
<path d="M3135 1440 c3 -5 11 -10 16 -10 6 0 7 5 4 10 -3 6 -11 10 -16 10 -6
0 -7 -4 -4 -10z"/>
<path d="M3107 1400 c-9 -11 -17 -25 -17 -30 0 -6 -4 -10 -9 -10 -6 0 -20 -18
-32 -40 -12 -21 -27 -36 -32 -33 -6 3 -7 1 -3 -6 4 -6 4 -18 -1 -24 -4 -7 0
-4 10 8 36 40 51 60 47 60 -3 0 1 7 8 15 38 45 52 64 52 72 0 12 -4 10 -23
-12z"/>
<path d="M1701 1397 c-1 -11 28 -67 35 -67 2 0 0 9 -6 20 -6 11 -8 26 -4 32 4
6 3 8 -4 4 -5 -3 -13 0 -15 6 -3 7 -6 9 -6 5z"/>
<path d="M2011 1354 c0 -11 3 -14 6 -6 3 7 2 16 -1 19 -3 4 -6 -2 -5 -13z"/>
<path d="M1840 1292 c0 -5 13 -29 30 -53 16 -24 30 -49 30 -56 0 -18 47 -83
54 -76 3 4 6 11 6 16 0 6 -3 7 -6 4 -10 -10 -39 33 -54 80 -7 23 -16 40 -21
38 -4 -3 -12 9 -18 25 -9 28 -21 40 -21 22z"/>
<path d="M1770 1272 c0 -5 7 -15 15 -22 8 -7 15 -9 15 -6 0 4 -7 14 -15 22 -8
9 -15 11 -15 6z"/>
<path d="M2810 1220 c0 -11 2 -20 4 -20 2 0 6 9 9 20 3 11 1 20 -4 20 -5 0 -9
-9 -9 -20z"/>
<path d="M2993 1222 c-14 -9 -36 -63 -29 -70 3 -2 11 8 18 24 7 16 17 32 23
36 13 10 2 19 -12 10z"/>
<path d="M2076 1175 c-9 -26 -7 -32 5 -12 6 10 9 21 6 23 -2 3 -7 -2 -11 -11z"/>
<path d="M2815 1159 c-4 -6 -5 -12 -2 -15 2 -3 7 2 10 11 7 17 1 20 -8 4z"/>
<path d="M2940 1125 c0 -8 2 -15 4 -15 2 0 6 7 10 15 3 8 1 15 -4 15 -6 0 -10
-7 -10 -15z"/>
<path d="M1920 1074 c0 -5 9 -20 20 -32 11 -12 20 -26 20 -32 0 -5 5 -10 10
-10 6 0 10 -7 10 -17 0 -9 3 -14 6 -10 3 3 3 14 0 24 -7 23 -66 92 -66 77z"/>
<path d="M2681 1044 c0 -11 3 -14 6 -6 3 7 2 16 -1 19 -3 4 -6 -2 -5 -13z"/>
<path d="M2920 1038 c0 -7 -14 -27 -30 -45 -17 -18 -30 -37 -30 -43 0 -6 -4
-8 -10 -5 -5 3 -10 2 -10 -4 0 -18 19 -21 24 -4 4 10 22 36 41 58 36 41 42 55
25 55 -5 0 -10 -6 -10 -12z"/>
<path d="M2620 965 c0 -5 5 -17 10 -25 5 -8 10 -10 10 -5 0 6 -5 17 -10 25 -5
8 -10 11 -10 5z"/>
<path d="M2111 940 c0 -17 22 -50 34 -50 5 0 1 8 -7 18 -9 9 -18 24 -21 32 -5
13 -5 13 -6 0z"/>
<path d="M2418 873 c12 -2 32 -2 45 0 12 2 2 4 -23 4 -25 0 -35 -2 -22 -4z"/>
<path d="M2210 820 c0 -5 5 -10 11 -10 5 0 7 5 4 10 -3 6 -8 10 -11 10 -2 0
-4 -4 -4 -10z"/>
<path d="M2355 820 c27 -12 43 -12 25 0 -8 5 -22 9 -30 9 -10 0 -8 -3 5 -9z"/>
<path d="M2532 821 c-11 -6 -10 -10 4 -15 9 -3 19 -4 22 -1 3 3 -1 5 -9 5 -11
0 -11 2 1 10 8 5 11 10 5 10 -5 0 -16 -4 -23 -9z"/>
<path d="M2730 815 c-7 -9 -11 -17 -9 -20 3 -2 10 5 17 15 14 24 10 26 -8 5z"/>
<path d="M2266 805 c-9 -26 -7 -32 5 -12 6 10 9 21 6 23 -2 3 -7 -2 -11 -11z"/>
<path d="M2290 804 c0 -8 16 -31 35 -49 56 -55 128 -58 200 -9 20 13 40 24 45
24 6 0 10 5 10 11 0 7 -7 8 -17 4 -135 -56 -182 -56 -238 1 -25 24 -35 30 -35
18z"/>
<path d="M2159 782 c6 -12 15 -22 20 -22 4 0 21 -11 37 -25 16 -14 46 -30 66
-37 21 -6 35 -15 32 -19 -3 -5 2 -6 10 -3 9 3 16 1 16 -5 0 -6 8 -10 18 -9 45
3 133 -3 129 -9 -3 -5 11 -8 31 -8 26 0 36 4 34 14 -2 8 3 11 13 8 8 -4 15 -2
15 3 0 6 6 10 13 10 7 0 22 7 33 15 13 11 4 9 -34 -5 -118 -45 -292 -11 -400
77 -33 27 -42 31 -33 15z m388 -128 c-3 -3 -12 -4 -19 -1 -8 3 -5 6 6 6 11 1
17 -2 13 -5z"/>
<path d="M2265 760 c-3 -6 1 -7 9 -4 18 7 21 14 7 14 -6 0 -13 -4 -16 -10z"/>
<path d="M2590 730 c8 -5 20 -10 25 -10 6 0 3 5 -5 10 -8 5 -19 10 -25 10 -5
0 -3 -5 5 -10z"/>
<path d="M2390 640 c0 -5 7 -7 15 -4 8 4 15 8 15 10 0 2 -7 4 -15 4 -8 0 -15
-4 -15 -10z"/>
<path d="M2420 626 c0 -2 15 -6 34 -8 19 -2 32 0 30 4 -5 8 -64 12 -64 4z"/>
<path d="M2131 3914 c0 -11 3 -14 6 -6 3 7 2 16 -1 19 -3 4 -6 -2 -5 -13z"/>
<path d="M2096 3825 c-9 -26 -7 -32 5 -12 6 10 9 21 6 23 -2 3 -7 -2 -11 -11z"/>
<path d="M2026 3604 c-4 -9 -4 -19 -1 -22 3 -3 5 0 5 7 0 7 4 9 10 6 6 -3 7 1
4 9 -8 20 -10 20 -18 0z"/>
<path d="M2010 3551 c0 -5 5 -13 10 -16 6 -3 10 -2 10 4 0 5 -4 13 -10 16 -5
3 -10 2 -10 -4z"/>
<path d="M2639 4176 c11 -18 25 -44 33 -57 7 -13 15 -26 18 -29 17 -16 51
-110 45 -121 -6 -8 -4 -10 5 -4 10 6 11 2 7 -16 -3 -13 -2 -31 4 -39 8 -12 9
-10 4 8 -4 13 -2 22 4 22 6 0 12 -8 13 -17 2 -32 3 -38 9 -48 4 -5 9 -27 13
-48 4 -21 11 -35 15 -32 5 2 12 -20 16 -50 3 -30 11 -57 16 -61 5 -3 7 -15 3
-26 -4 -14 -2 -18 5 -14 8 5 10 -4 5 -32 -3 -22 -2 -42 3 -45 5 -3 8 8 6 26
-4 30 -3 30 11 -8 9 -22 16 -58 17 -80 1 -22 6 -47 10 -56 4 -9 10 -27 13 -40
3 -13 9 -37 15 -54 19 -59 10 -5 -21 136 -17 79 -31 162 -31 183 1 22 -2 34
-6 27 -5 -7 -17 22 -31 71 -13 46 -31 101 -40 123 -10 22 -25 60 -35 85 -9 25
-22 54 -28 65 -6 11 -15 29 -21 40 -14 26 -86 125 -92 125 -2 0 5 -15 15 -34z"/>
<path d="M2891 3644 c0 -11 3 -14 6 -6 3 7 2 16 -1 19 -3 4 -6 -2 -5 -13z"/>
<path d="M3146 2912 c-3 -5 1 -15 8 -21 11 -10 14 -9 12 3 -3 21 -13 29 -20
18z"/>
<path d="M2124 688 c-5 -7 0 -9 14 -6 12 3 21 3 20 -1 -11 -43 123 -149 219
-171 43 -10 61 -9 105 4 51 15 129 68 117 80 -3 3 -15 -3 -26 -14 -12 -10 -24
-16 -28 -12 -3 4 -11 -1 -16 -10 -5 -10 -16 -15 -23 -12 -8 3 -25 -1 -38 -9
-13 -8 -36 -13 -53 -11 -45 5 -106 29 -98 39 5 4 3 5 -4 1 -16 -9 -68 25 -53
34 8 5 6 9 -5 13 -9 4 -13 3 -10 -3 3 -6 2 -10 -3 -10 -5 0 -15 11 -22 25 -7
13 -16 22 -20 20 -3 -2 -14 9 -24 26 -18 30 -40 38 -52 17z"/>
</g>
</svg>
