<?xml version="1.0" standalone="no"?>
<!DOCTYPE svg PUBLIC "-//W3C//DTD SVG 20010904//EN"
 "http://www.w3.org/TR/2001/REC-SVG-20010904/DTD/svg10.dtd">
<svg version="1.0" xmlns="http://www.w3.org/2000/svg"
 width="90" height="90" viewBox="0 0 500 500"
 preserveAspectRatio="xMidYMid meet">
  
  <defs>
    <filter id="glowPulse" x="-50%" y="-50%" width="200%" height="200%">
      <feGaussianBlur in="SourceGraphic" stdDeviation="6" result="blur1" />
      <feGaussianBlur in="SourceGraphic" stdDeviation="12" result="blur2" />
      <feMerge>
        <feMergeNode in="blur2" />
        <feMergeNode in="blur1" />
        <feMergeNode in="SourceGraphic" />
      </feMerge>
    </filter>
  </defs>
  
  <g transform="translate(0,479) scale(0.1,-0.1)"
 fill="none" stroke="#8B4513" stroke-width="12">
   
<path d="M750 3818 c0 -39 -4 -99 -9 -132 -5 -34 -15 -99 -21 -146 -11 -79
-38 -193 -75 -317 -8 -29 -21 -74 -29 -100 -8 -27 -30 -100 -50 -163 -71 -227
-88 -319 -89 -490 -1 -219 28 -378 97 -533 17 -37 30 -55 38 -51 7 4 8 3 4 -4
-23 -37 146 -247 289 -360 60 -47 163 -97 241 -118 97 -25 327 -25 444 0 47
10 90 21 95 25 6 4 30 13 55 20 109 32 260 130 375 245 44 45 92 96 105 114
14 19 30 39 37 46 44 49 119 191 147 281 55 181 49 324 -25 536 -50 143 -58
124 -58 -151 -1 -273 -26 -364 -153 -560 -108 -166 -310 -333 -480 -396 -148
-55 -350 -71 -480 -38 -159 40 -240 76 -305 137 -17 16 -36 26 -42 23 -17 -11
-13 -26 7 -26 9 0 23 -13 29 -28 8 -17 21 -28 34 -29 12 -1 27 -7 33 -14 8 -9
8 -10 -1 -5 -7 4 -13 2 -13 -3 0 -6 6 -11 13 -11 8 0 7 -4 -3 -10 -13 -8 -12
-10 3 -10 9 0 17 7 17 15 0 8 5 15 11 15 6 0 8 -7 5 -16 -5 -13 -1 -14 24 -9
18 4 42 1 62 -9 18 -8 52 -20 76 -26 23 -6 40 -15 37 -20 -4 -6 -1 -10 5 -10
6 0 9 -4 6 -8 -2 -4 4 -8 14 -8 10 0 18 5 17 11 -2 12 46 19 80 10 13 -3 21
-10 17 -16 -4 -8 -1 -8 12 -1 28 14 86 21 109 12 19 -7 19 -7 -3 -14 -12 -4
-20 -12 -17 -17 4 -5 13 -2 21 6 9 8 23 15 32 15 15 0 15 2 2 11 -11 8 -5 9
23 4 29 -5 37 -3 31 6 -5 9 1 10 22 5 22 -5 25 -4 14 4 -11 7 -5 9 24 4 24 -3
36 -2 32 4 -9 14 16 21 37 10 11 -5 24 -5 35 1 14 9 12 11 -13 11 -29 1 -29 2
10 17 22 8 54 16 72 18 30 3 31 3 22 -28 -8 -30 -7 -30 6 -13 8 11 15 26 15
34 0 8 6 12 15 8 8 -3 15 -1 15 4 0 6 -8 11 -17 11 -23 2 -25 2 -48 -6 -20 -7
-20 -6 -1 9 12 10 28 14 40 10 12 -4 18 -3 14 1 -9 10 18 36 34 33 7 -2 12 3
10 10 -1 6 2 12 8 12 5 0 10 -12 10 -26 0 -19 -4 -25 -15 -20 -9 3 -15 0 -15
-9 0 -26 24 -16 54 23 16 20 23 31 16 25 -19 -17 -30 -16 -30 3 0 9 5 12 12 8
6 -4 8 -3 4 4 -3 6 7 20 24 32 30 21 41 16 18 -9 -11 -10 -8 -10 15 -2 27 10
28 10 22 -11 -5 -20 -5 -21 5 -5 9 14 8 23 -4 42 -17 25 -9 39 13 26 15 -10
51 -3 51 9 0 5 8 17 17 26 17 17 17 18 1 11 -12 -4 -18 -2 -18 9 0 8 4 13 9
10 12 -8 43 28 39 45 -2 8 2 13 8 12 7 -1 20 7 29 17 10 11 30 20 44 20 22 1
24 2 9 11 -12 7 -24 6 -38 -1 -16 -9 -18 -8 -14 5 4 8 10 15 15 15 5 0 15 13
24 30 9 18 21 27 29 24 8 -3 17 -1 21 5 10 18 25 13 19 -6 -5 -15 -4 -15 4 -3
6 8 9 17 6 21 -2 4 6 15 18 23 12 9 17 16 11 16 -6 0 -26 -12 -43 -26 -17 -15
-34 -23 -38 -19 -4 3 1 12 11 19 17 13 25 32 8 22 -4 -3 0 12 11 34 13 25 24
37 34 33 20 -7 17 -21 -6 -28 -11 -3 -20 -11 -20 -16 0 -14 16 -11 30 6 7 9
15 13 18 10 3 -3 12 4 19 15 13 18 16 19 30 5 14 -14 14 -18 -3 -36 -11 -12
-17 -23 -15 -25 7 -10 -21 -63 -32 -60 -7 2 -9 1 -4 -1 4 -3 7 -9 7 -14 0 -6
-5 -7 -12 -3 -7 4 -8 3 -4 -5 4 -6 0 -14 -9 -17 -9 -4 -14 -13 -11 -20 4 -11
2 -11 -13 -2 -11 6 -17 17 -14 25 3 7 9 11 13 8 5 -3 11 -1 14 4 3 5 -3 11
-14 14 -24 6 -60 -2 -60 -14 0 -13 14 -11 28 3 6 6 14 9 17 6 3 -3 -1 -13 -10
-22 -10 -10 -12 -16 -5 -16 7 0 9 -7 6 -16 -5 -14 -4 -15 9 -4 16 13 20 3 9
-25 -6 -14 -8 -14 -25 1 -16 15 -22 15 -32 4 -10 -10 -9 -12 5 -7 12 4 22 -1
29 -16 11 -20 11 -21 -6 -7 -16 14 -17 13 -11 -8 5 -13 3 -22 -3 -22 -6 0 -11
6 -11 13 -1 6 -6 2 -13 -11 -7 -12 -15 -21 -18 -20 -2 2 -3 1 -2 -1 2 -2 -2
-10 -9 -18 -6 -7 -9 -16 -6 -19 3 -3 15 10 27 28 11 18 21 29 21 25 0 -17 -40
-65 -59 -70 -17 -4 -19 0 -17 30 3 29 26 73 26 49 0 -5 7 -3 15 4 19 16 19 29
0 26 -27 -4 -50 -49 -51 -99 -1 -30 -9 -55 -20 -68 -21 -23 -32 -24 -30 -3 0
9 -4 19 -10 21 -6 2 -10 -8 -9 -27 1 -16 0 -28 -3 -25 -3 2 -13 -7 -24 -20
-11 -14 -24 -22 -30 -19 -7 5 -8 2 -3 -6 5 -9 2 -10 -13 -6 -12 4 -26 1 -36
-9 -20 -20 -20 -26 -1 -19 8 4 15 10 15 15 0 5 6 9 13 9 6 -1 1 -10 -12 -21
-14 -11 -33 -18 -42 -16 -12 3 -16 0 -12 -8 2 -8 -8 -20 -26 -29 -29 -15 -30
-15 -26 5 3 12 1 18 -3 15 -4 -4 -7 -12 -7 -17 0 -9 -38 -32 -95 -59 -8 -4
-28 -3 -45 1 -28 8 -29 7 -11 -6 20 -15 20 -15 0 -15 -11 0 -26 -6 -33 -12
-11 -11 -12 -9 -6 10 4 13 2 22 -4 22 -6 0 -12 -4 -12 -10 -1 -5 -2 -14 -3
-19 -2 -17 -16 -25 -16 -9 0 19 -17 33 -50 43 -20 5 -18 2 10 -15 l34 -22 -24
-13 c-29 -15 -70 -19 -222 -18 -79 0 -123 4 -133 13 -10 8 -15 9 -15 2 0 -6
-7 -9 -15 -6 -8 4 -13 10 -10 14 3 5 -8 5 -25 0 -18 -5 -30 -5 -30 1 0 5 8 9
18 10 14 0 14 2 -3 8 -12 5 -23 4 -28 -3 -6 -8 -10 -8 -13 1 -3 7 -13 9 -21 6
-12 -5 -15 -2 -10 9 4 11 1 14 -11 11 -20 -5 -104 31 -122 52 -7 8 -17 12 -24
8 -6 -4 -5 1 3 10 12 15 12 17 -1 12 -8 -3 -21 1 -28 9 -7 9 -16 13 -21 10 -5
-3 -9 4 -9 16 0 12 -4 19 -9 16 -5 -3 -14 1 -21 9 -7 8 -19 15 -26 15 -15 0
-19 15 -6 23 4 2 2 2 -5 1 -6 -2 -17 4 -23 12 -10 11 -9 18 1 31 10 12 10 15
1 9 -8 -5 -17 3 -26 24 -13 31 -13 32 -20 9 l-7 -24 -11 25 c-13 30 -21 66
-12 57 3 -3 13 1 21 9 26 26 4 29 -24 3 -14 -13 -23 -19 -19 -12 3 6 2 14 -4
18 -5 3 -10 15 -10 26 0 10 -6 18 -12 17 -8 -2 -15 13 -18 37 -4 31 -9 39 -22
37 -12 -2 -18 4 -18 18 0 11 -5 20 -11 20 -6 0 -8 9 -4 20 5 14 2 20 -9 20
-18 0 -21 23 -6 50 8 16 8 18 -5 14 -12 -5 -15 2 -15 30 0 20 -5 36 -11 36 -8
0 -8 5 1 15 10 12 10 15 -2 15 -11 0 -14 7 -10 25 3 16 0 25 -8 25 -8 0 -11 9
-8 24 3 14 2 46 -2 71 -6 36 -4 48 9 55 14 8 14 9 -1 10 -21 0 -23 20 -5 39 9
11 9 13 0 7 -9 -5 -13 0 -13 16 0 18 2 20 10 8 8 -13 10 -12 10 3 0 9 -6 17
-12 17 -9 0 -8 4 2 10 13 9 13 11 0 20 -12 8 -13 11 -1 19 11 7 11 9 0 14 -12
5 -12 7 0 15 9 7 10 15 4 27 -7 11 -5 36 3 73 8 32 14 73 15 92 1 33 2 33 10
10 8 -23 8 -22 4 6 -4 33 17 119 27 108 4 -3 6 9 6 27 -1 18 4 35 9 36 6 2 8
13 5 25 -3 14 -1 19 6 14 7 -4 12 -1 12 6 0 8 12 19 28 26 18 8 20 10 5 6 -22
-5 -25 0 -22 34 0 4 8 6 17 4 14 -3 14 -1 -2 11 -12 8 -15 16 -9 20 6 4 16 0
23 -8 14 -16 30 -20 30 -7 0 5 -12 14 -26 20 -16 8 -22 16 -17 25 9 14 13 29
20 75 3 18 10 35 16 39 6 4 8 -2 4 -16 -3 -13 -3 -20 1 -16 4 3 7 30 7 60 1
29 6 60 13 67 6 8 13 25 15 38 3 14 8 36 11 50 3 14 8 48 12 75 3 28 7 59 9
70 1 11 3 28 4 38 0 9 5 17 10 17 10 0 6 -61 -10 -165 -5 -33 -10 -70 -9 -82
0 -12 -4 -24 -9 -27 -5 -3 -7 -26 -6 -51 2 -25 -1 -45 -6 -45 -6 0 -8 -9 -4
-19 3 -11 2 -22 -4 -25 -5 -3 -7 -21 -5 -39 4 -25 2 -29 -6 -17 -8 12 -9 9 -5
-11 6 -25 -28 -143 -46 -164 -5 -5 -9 -19 -9 -32 0 -13 -4 -23 -9 -23 -5 0
-11 -22 -15 -50 -4 -27 -11 -50 -16 -50 -6 0 -10 -5 -10 -11 0 -5 6 -7 13 -3
7 5 6 0 -3 -10 -8 -10 -15 -33 -16 -50 -2 -61 -3 -63 -29 -58 -14 2 -25 0 -25
-6 0 -6 9 -8 20 -5 15 4 20 0 20 -14 0 -16 -6 -20 -28 -17 -15 2 -19 1 -9 -2
9 -3 17 -12 17 -20 0 -8 7 -14 15 -14 8 0 15 -4 15 -10 0 -5 -6 -10 -14 -10
-16 0 -28 -24 -31 -62 -3 -32 1 -34 20 -14 12 12 12 15 -2 21 -11 4 -14 9 -7
13 6 4 13 14 16 22 3 8 8 -3 12 -24 4 -22 3 -42 -2 -45 -5 -3 -8 -14 -6 -24 1
-11 -6 -39 -16 -63 -11 -24 -15 -44 -10 -44 6 0 10 4 10 10 0 5 7 7 16 3 13
-5 13 -8 2 -15 -10 -7 -10 -11 0 -15 6 -2 12 -9 12 -14 0 -6 -4 -8 -9 -5 -4 3
-17 -2 -27 -10 -18 -15 -18 -15 9 -11 21 3 27 1 25 -12 -2 -9 -7 -19 -11 -22
-5 -3 -1 -13 8 -23 19 -19 6 -22 -14 -3 -11 10 -11 8 0 -10 7 -12 19 -19 28
-16 12 3 11 1 -2 -7 -9 -6 -15 -16 -11 -22 4 -6 9 -5 15 3 5 8 6 -1 2 -23 -3
-22 -2 -38 4 -38 5 0 10 -8 10 -17 -1 -60 4 -87 12 -74 22 35 61 -52 40 -91
-9 -18 -9 -21 1 -11 10 9 17 7 32 -7 11 -10 17 -23 14 -28 -3 -6 5 -24 19 -40
14 -16 25 -34 25 -40 0 -6 3 -12 8 -15 4 -2 2 -2 -5 -1 -14 3 -38 -24 -29 -33
3 -3 6 -1 6 5 0 14 26 11 56 -5 16 -9 21 -21 20 -51 -1 -24 3 -39 11 -39 7 0
9 5 6 10 -4 6 2 8 15 5 41 -11 34 12 -21 71 -36 39 -71 94 -105 163 -92 187
-110 265 -118 488 -6 161 7 316 35 405 5 17 21 68 36 115 50 159 56 185 84
355 16 94 32 179 36 189 6 13 5 17 -3 12 -8 -4 -8 3 -2 26 6 17 8 77 6 132 -2
56 -4 134 -5 174 -1 40 -5 72 -11 72 -6 0 -10 -31 -10 -72z m20 -192 c0 -3 -4
-8 -10 -11 -5 -3 -10 -1 -10 4 0 6 5 11 10 11 6 0 10 -2 10 -4z m1580 -910 c0
-3 -4 -8 -10 -11 -5 -3 -10 -1 -10 4 0 6 5 11 10 11 6 0 10 -2 10 -4z m4 -52
c-5 -18 -3 -25 4 -20 6 4 8 -2 4 -16 -5 -19 -7 -20 -10 -5 -2 9 -8 15 -13 12
-11 -8 -11 -3 1 29 13 34 22 33 14 0z m39 -93 c9 -11 9 -13 1 -8 -8 4 -11 -2
-10 -18 1 -17 6 -23 15 -20 10 4 9 -2 -4 -21 -9 -15 -12 -23 -5 -19 9 5 10 1
5 -14 -3 -12 -2 -21 4 -21 5 0 12 10 14 23 6 33 13 -92 8 -160 -1 -17 -7 -23
-23 -23 -23 1 -23 1 -3 17 18 14 18 15 2 9 -10 -3 -23 -6 -28 -6 -4 0 -6 -7
-3 -15 4 -8 2 -15 -4 -15 -15 0 -21 -25 -10 -41 8 -11 9 -11 5 2 -7 20 11 39
35 39 12 0 18 -7 18 -21 0 -13 -4 -18 -12 -13 -10 6 -10 4 0 -8 13 -17 7 -48
-11 -48 -8 0 -8 -3 0 -11 18 -18 -5 -72 -28 -66 -11 3 -25 -1 -32 -8 -11 -10
-17 -10 -32 1 -18 14 -19 15 -2 44 10 17 15 35 11 42 -4 6 -3 8 3 5 14 -9 36
19 30 35 -4 8 -6 7 -6 -4 -1 -10 -6 -18 -11 -18 -11 0 -7 41 6 62 4 7 9 26 10
43 1 16 3 32 4 35 1 3 1 20 0 38 -1 17 3 32 9 32 6 0 11 7 11 16 0 8 -4 12
-10 9 -5 -3 -10 1 -10 10 0 9 5 13 10 10 6 -3 10 -1 10 4 0 6 -4 11 -10 11
-16 0 -11 32 8 47 16 13 15 14 -5 8 -23 -6 -32 8 -13 20 6 4 7 12 3 18 -4 6
-8 20 -8 29 -1 14 1 15 12 7 10 -9 15 -7 20 7 7 17 8 16 11 -6 2 -14 9 -31 15
-39z m-1776 -508 c-3 -10 -5 -4 -5 12 0 17 2 24 5 18 2 -7 2 -21 0 -30z m1479
-241 c-18 -16 -18 -16 -6 6 6 13 14 21 18 18 3 -4 -2 -14 -12 -24z m-26 -52
c0 -15 -35 -29 -49 -21 -9 6 -8 11 5 22 16 12 17 12 11 -4 -4 -11 -3 -16 3
-12 6 3 10 13 10 21 0 8 5 12 10 9 6 -3 10 -10 10 -15z m-1250 -51 c0 -5 -4
-9 -8 -9 -5 0 -9 7 -9 15 0 8 4 12 9 9 4 -3 8 -9 8 -15z m-71 -12 c12 -15 12
-17 -3 -11 -9 3 -16 13 -16 22 0 8 1 13 3 11 1 -2 9 -12 16 -22z m1249 -2 c-3
-3 -9 2 -12 12 -6 14 -5 15 5 6 7 -7 10 -15 7 -18z"/>
<path d="M2401 2424 c0 -11 3 -14 6 -6 3 7 2 16 -1 19 -3 4 -6 -2 -5 -13z"/>
<path d="M2351 2394 c0 -11 3 -14 6 -6 3 7 2 16 -1 19 -3 4 -6 -2 -5 -13z"/>
<path d="M2393 2374 c-4 -11 -8 -12 -13 -4 -4 7 -7 0 -7 -16 0 -16 2 -23 4
-16 3 6 11 12 19 12 8 0 14 9 14 20 0 24 -8 26 -17 4z"/>
<path d="M2316 2162 c-2 -4 -1 -14 5 -22 7 -12 9 -10 9 8 0 23 -5 28 -14 14z"/>
<path d="M2300 2125 c0 -8 4 -15 10 -15 5 0 7 7 4 15 -4 8 -8 15 -10 15 -2 0
-4 -7 -4 -15z"/>
<path d="M4238 3884 c-11 -17 -18 -342 -8 -399 4 -27 15 -99 24 -160 25 -166
35 -207 87 -375 26 -85 53 -186 60 -225 6 -38 17 -73 23 -77 6 -5 7 -8 1 -8
-6 0 -9 -57 -7 -157 5 -236 -35 -414 -129 -581 -16 -29 -27 -58 -23 -65 4 -7
4 -9 -1 -5 -4 4 -24 -14 -44 -40 -119 -150 -198 -201 -396 -259 -93 -26 -292
-29 -390 -5 -74 19 -78 19 -82 1 -3 -10 -11 -15 -19 -12 -8 3 -14 0 -14 -6 0
-17 31 -13 46 7 8 10 13 12 14 5 0 -7 6 -10 14 -7 8 3 17 1 20 -4 3 -5 18 -7
32 -4 16 3 25 1 21 -5 -4 -6 17 -9 54 -7 53 2 61 -1 79 -23 11 -14 20 -21 20
-16 0 5 -6 15 -12 22 -11 11 -9 13 12 7 14 -3 28 -6 33 -6 4 0 7 -11 7 -25 0
-14 5 -25 10 -25 12 0 12 2 0 34 -8 21 -6 26 12 32 13 4 24 1 29 -7 11 -17 5
-35 -10 -31 -6 1 -11 -2 -11 -7 0 -18 48 -9 53 10 3 11 1 19 -4 19 -5 0 -9 5
-9 11 0 7 12 9 36 4 24 -4 34 -3 29 4 -3 6 -1 11 5 11 19 0 51 -20 46 -29 -3
-4 1 -8 10 -8 9 0 12 7 9 17 -7 22 14 45 53 58 39 13 41 8 5 -12 -16 -8 -23
-15 -16 -16 7 0 10 -7 7 -15 -4 -8 -1 -15 6 -15 6 0 8 5 5 10 -3 6 2 10 12 10
15 0 16 2 3 10 -12 8 -11 10 7 10 16 0 21 4 17 15 -4 10 0 15 11 15 11 0 15
-6 10 -19 -3 -10 1 -23 9 -30 13 -11 15 -9 11 10 -3 12 1 29 8 38 9 12 9 13 0
7 -7 -4 -13 -2 -13 3 0 6 9 11 20 11 13 0 18 -5 14 -15 -4 -8 -2 -15 4 -15 6
0 9 11 8 24 -2 14 5 28 17 36 17 10 19 10 14 -4 -4 -9 -2 -16 3 -16 6 0 10 7
10 15 0 8 3 15 8 15 4 0 12 10 17 21 6 12 14 20 19 18 5 -2 13 7 17 20 9 23
10 23 36 6 24 -16 26 -16 20 0 -4 9 -7 19 -7 21 0 2 -8 4 -17 4 -21 0 -11 11
14 14 12 2 17 10 15 26 -2 12 1 20 6 16 5 -3 15 0 21 8 9 11 9 15 -1 19 -10 4
-10 6 0 6 7 1 15 -6 18 -14 4 -8 11 -12 16 -9 6 4 6 9 -2 14 -7 4 -9 13 -5 20
6 10 12 8 23 -6 13 -18 14 -17 9 11 -6 33 9 69 24 59 6 -3 8 -13 5 -21 -4 -8
-1 -11 5 -8 6 4 8 13 5 20 -3 8 -2 16 2 18 4 2 2 3 -4 1 -23 -5 -35 11 -21 30
21 28 54 13 55 -24 0 -17 -2 -30 -6 -30 -4 0 -13 -9 -20 -21 -8 -12 -9 -18 -3
-14 6 3 11 1 11 -4 0 -6 -5 -11 -10 -11 -6 0 -9 -6 -8 -12 2 -7 -3 -12 -10
-10 -8 1 -11 -1 -8 -6 2 -4 -6 -21 -19 -38 -13 -16 -24 -24 -25 -17 0 6 5 15
10 18 6 3 10 11 10 16 0 20 -27 -16 -34 -46 -8 -32 -65 -97 -78 -89 -4 3 -8
-3 -8 -12 0 -10 -2 -15 -5 -12 -3 3 -23 -12 -44 -33 -21 -22 -42 -39 -46 -39
-5 0 -26 -12 -46 -26 -21 -14 -50 -27 -64 -28 -14 0 -28 -8 -30 -17 -4 -11
-13 -15 -25 -12 -11 3 -20 0 -20 -6 0 -5 -7 -8 -16 -4 -13 5 -13 7 -2 14 7 5
9 9 3 9 -5 0 -16 -4 -24 -9 -11 -7 -10 -10 4 -18 12 -7 5 -10 -30 -11 -26 -1
-50 -4 -54 -7 -4 -2 -44 -7 -89 -10 -76 -6 -84 -4 -114 18 -37 27 -67 44 -56
32 4 -4 0 -14 -10 -21 -16 -12 -16 -13 0 -14 9 0 18 5 20 12 3 8 13 4 29 -11
l24 -23 -30 6 c-16 3 -49 7 -72 8 -24 1 -43 5 -43 8 0 4 -14 7 -30 8 -17 0
-46 10 -64 21 -18 12 -41 21 -50 21 -10 0 -14 5 -10 11 5 8 2 9 -12 1 -15 -8
-26 -5 -53 15 -25 19 -35 23 -41 13 -6 -9 -13 -7 -29 9 -11 11 -21 18 -21 14
0 -5 -5 0 -11 10 -6 9 -14 15 -20 12 -5 -4 -9 -1 -9 4 0 6 -6 11 -14 11 -8 0
-18 5 -22 12 -5 8 -2 9 9 5 10 -3 17 -2 17 2 0 15 -24 19 -35 7 -5 -6 -9 -9
-8 -7 2 2 -3 11 -10 19 -9 12 -9 16 1 19 6 3 12 14 11 26 l0 22 -9 -21 c-4
-12 -16 -24 -26 -28 -10 -4 -15 -4 -12 0 8 7 -14 34 -23 28 -4 -2 -6 8 -5 24
0 15 -2 27 -5 27 -3 0 -14 7 -24 15 -16 13 -18 13 -13 0 3 -8 12 -15 20 -14
17 1 22 -33 6 -42 -7 -5 -9 -1 -5 9 7 18 -8 24 -18 7 -11 -18 140 -136 238
-186 65 -34 167 -69 257 -90 105 -25 349 -25 440 0 108 30 204 81 287 153 101
87 131 121 198 219 124 183 178 361 192 630 7 134 -4 228 -42 374 -14 52 -27
104 -30 115 -3 11 -16 54 -29 95 -47 143 -118 395 -132 470 -17 88 -43 301
-46 380 -2 30 -6 50 -10 44z m26 -331 c3 -30 1 -43 -7 -43 -8 -1 -7 -5 3 -13
8 -7 16 -19 17 -27 5 -36 32 -149 47 -192 16 -50 12 -60 -10 -30 -7 9 -14 12
-14 6 0 -6 7 -17 15 -24 8 -7 15 -20 16 -29 0 -12 2 -12 10 4 8 17 9 16 6 -7
-3 -16 -1 -28 2 -28 4 0 8 -12 9 -27 1 -15 7 -30 14 -34 6 -4 8 -14 5 -22 -3
-9 -1 -17 5 -19 6 -2 12 -20 12 -40 1 -20 4 -34 7 -32 10 6 28 -65 24 -97 -2
-16 0 -27 5 -24 14 9 23 -15 10 -30 -6 -8 -8 -20 -4 -26 5 -9 10 -7 15 7 6 14
8 10 8 -18 1 -20 6 -40 11 -43 6 -3 10 -21 10 -39 0 -18 3 -36 7 -40 4 -4 9
-24 10 -44 2 -20 4 -41 4 -47 1 -5 -2 -19 -7 -29 -5 -13 -4 -17 4 -12 7 4 10
-4 10 -24 -1 -16 -5 -30 -9 -30 -4 0 -9 -10 -11 -22 -2 -18 -8 -22 -28 -20
-14 2 -22 1 -18 -4 4 -4 21 -7 38 -6 16 0 32 -4 35 -9 4 -5 1 -9 -5 -9 -7 0
-9 -8 -5 -21 5 -14 1 -25 -12 -34 -17 -14 -17 -14 0 -15 10 0 16 -4 12 -9 -3
-5 -6 -32 -6 -60 -1 -28 -5 -51 -10 -51 -4 0 -6 -18 -4 -40 2 -26 -1 -45 -11
-55 -9 -9 -13 -23 -9 -35 4 -12 2 -20 -5 -20 -6 0 -8 -11 -5 -27 3 -16 2 -22
-1 -15 -6 14 -34 17 -34 3 0 -5 7 -11 15 -15 8 -3 12 -12 9 -21 -3 -8 -9 -13
-14 -10 -4 2 -7 -9 -8 -25 -1 -40 -19 -71 -37 -64 -8 4 -13 10 -10 14 3 4 -3
7 -13 6 -12 -1 -17 6 -17 24 0 19 5 24 18 22 19 -3 47 14 47 29 0 5 -5 9 -11
9 -5 0 -8 -4 -5 -9 7 -11 -25 -24 -35 -14 -4 4 -3 19 2 32 7 19 12 21 23 11
12 -9 17 -5 25 27 7 25 7 39 1 41 -6 2 -10 8 -10 13 0 6 5 7 11 3 8 -5 10 2 7
23 -3 25 -1 29 13 26 28 -8 32 16 7 38 l-23 20 25 -7 c22 -6 23 -5 11 9 -7 9
-10 24 -7 33 4 11 2 15 -7 11 -10 -4 -12 3 -8 27 4 25 6 27 9 9 2 -13 6 -23
10 -24 4 0 16 -2 27 -4 19 -4 19 -3 -2 13 -24 19 -36 69 -15 65 16 -4 15 0 -4
45 -10 22 -18 71 -20 122 -3 78 -2 83 13 65 15 -20 15 -20 9 2 -5 16 -2 23 11
26 15 4 14 5 -3 6 -23 1 -35 25 -38 73 -1 15 -5 31 -9 34 -10 11 -8 26 2 19 6
-3 -3 32 -19 77 -16 46 -30 91 -30 101 0 9 -4 17 -10 17 -5 0 -7 7 -4 15 4 8
2 15 -4 15 -5 0 -12 7 -15 15 -5 12 -1 12 21 4 25 -9 25 -8 -7 19 -27 22 -33
34 -29 55 3 14 1 24 -3 21 -5 -3 -10 5 -10 18 -3 56 -7 72 -18 76 -6 2 -11 8
-11 13 0 6 5 7 12 3 8 -5 9 -2 3 12 -4 10 -7 27 -7 36 0 10 -3 20 -9 23 -5 4
-9 13 -9 21 0 8 4 13 9 9 5 -3 12 -1 16 5 3 5 -2 10 -11 10 -10 0 -15 3 -11 6
3 3 2 17 -3 30 -7 17 -6 24 3 24 8 0 8 3 1 8 -6 4 -11 27 -13 52 -1 24 -5 47
-10 50 -4 3 -7 31 -6 62 0 64 11 65 19 1z m256 -1077 c0 -3 -4 -8 -10 -11 -5
-3 -10 -1 -10 4 0 6 5 11 10 11 6 0 10 -2 10 -4z m-75 -286 c3 -5 1 -10 -4
-10 -6 0 -11 5 -11 10 0 6 2 10 4 10 3 0 8 -4 11 -10z m-45 -121 c0 -5 -4 -9
-10 -9 -5 0 -10 7 -10 16 0 8 5 12 10 9 6 -3 10 -10 10 -16z m-547 -556 c-7
-2 -19 -2 -25 0 -7 3 -2 5 12 5 14 0 19 -2 13 -5z"/>
<path d="M4325 3150 c-3 -5 -1 -10 4 -10 6 0 11 5 11 10 0 6 -2 10 -4 10 -3 0
-8 -4 -11 -10z"/>
<path d="M4335 3120 c-3 -5 -1 -10 4 -10 6 0 11 5 11 10 0 6 -2 10 -4 10 -3 0
-8 -4 -11 -10z"/>
<path d="M4330 3060 c0 -5 4 -10 9 -10 5 0 18 -3 28 -6 16 -5 16 -4 -1 10 -23
18 -36 20 -36 6z"/>
<path d="M4406 2937 c3 -10 9 -15 12 -12 3 3 0 11 -7 18 -10 9 -11 8 -5 -6z"/>
<path d="M4447 2663 c7 -17 18 -16 32 1 10 11 7 14 -12 12 -15 0 -23 -6 -20
-13z"/>
<path d="M4441 2538 c0 -22 1 -22 9 -3 7 17 9 17 9 3 1 -10 6 -18 11 -18 14 0
13 13 -2 28 -18 18 -28 14 -27 -10z"/>
<path d="M4462 2496 c7 -8 15 -12 17 -11 5 6 -10 25 -20 25 -5 0 -4 -6 3 -14z"/>
<path d="M4456 2349 c3 -5 12 -9 21 -9 19 0 9 13 -12 16 -8 1 -13 -2 -9 -7z"/>
<path d="M4460 2255 c0 -8 2 -15 4 -15 2 0 6 7 10 15 3 8 1 15 -4 15 -6 0 -10
-7 -10 -15z"/>
<path d="M4436 2115 c-3 -8 -1 -15 4 -15 6 0 10 7 10 15 0 8 -2 15 -4 15 -2 0
-6 -7 -10 -15z"/>
<path d="M4395 1950 c3 -5 8 -10 11 -10 2 0 4 5 4 10 0 6 -5 10 -11 10 -5 0
-7 -4 -4 -10z"/>
<path d="M692 3271 c-6 -17 -7 -31 -3 -31 8 0 22 52 16 58 -1 2 -7 -11 -13
-27z"/>
<path d="M650 3120 c0 -5 5 -10 10 -10 6 0 10 5 10 10 0 6 -4 10 -10 10 -5 0
-10 -4 -10 -10z"/>
<path d="M615 2970 c-3 -5 -1 -10 4 -10 6 0 11 5 11 10 0 6 -2 10 -4 10 -3 0
-8 -4 -11 -10z"/>
<path d="M596 2925 c-3 -8 -1 -15 4 -15 6 0 10 7 10 15 0 8 -2 15 -4 15 -2 0
-6 -7 -10 -15z"/>
<path d="M557 2826 c-4 -10 -1 -13 9 -9 7 3 14 9 14 14 0 14 -17 10 -23 -5z"/>
<path d="M555 2780 c3 -5 8 -10 11 -10 2 0 4 5 4 10 0 6 -5 10 -11 10 -5 0 -7
-4 -4 -10z"/>
<path d="M2617 2648 c-51 -159 -61 -219 -53 -318 9 -122 29 -206 71 -296 29
-62 96 -170 132 -214 2 -2 8 2 13 10 11 18 -4 45 -26 45 -9 0 -19 6 -21 13 -3
7 4 12 15 12 11 0 22 6 25 14 5 12 -2 13 -30 9 -28 -5 -34 -3 -28 7 5 8 4 11
-2 7 -15 -9 -26 23 -13 38 12 14 2 48 -11 39 -5 -3 -9 -1 -9 5 0 5 3 12 8 15
11 6 45 -21 39 -31 -3 -5 -2 -15 4 -23 7 -12 9 -11 10 5 1 11 1 26 0 33 -1 6
3 12 9 12 5 0 10 -5 10 -11 0 -5 4 -8 9 -5 5 3 11 -1 14 -8 3 -8 1 -17 -6 -20
-7 -2 -6 -5 4 -5 9 -1 20 -11 26 -23 11 -25 6 -51 -8 -42 -5 3 -9 0 -9 -5 0
-9 28 -16 52 -12 4 0 10 -8 13 -19 4 -11 10 -18 15 -15 12 7 32 -30 22 -40 -4
-5 1 -5 11 -2 19 7 24 -8 5 -17 -7 -3 -3 -3 10 0 14 3 22 1 22 -8 0 -7 18 -24
40 -37 33 -21 39 -29 35 -50 -4 -19 -3 -21 3 -8 7 17 9 16 30 -3 12 -12 20
-25 17 -30 -3 -6 1 -7 10 -4 14 6 54 -30 55 -48 0 -19 -29 -6 -32 14 -4 28
-19 32 -43 12 -11 -8 -15 -13 -8 -10 17 9 40 -3 46 -25 3 -10 12 -19 20 -19
16 0 30 27 21 41 -3 5 0 9 5 9 6 0 11 -4 11 -10 0 -5 11 -12 25 -16 14 -3 25
-10 25 -15 0 -5 -7 -5 -17 -2 -12 5 -14 3 -7 -8 15 -25 10 -44 -16 -57 -14 -7
-17 -10 -7 -7 10 3 27 5 36 5 14 0 17 6 14 23 -4 19 0 22 19 21 24 -1 72 -17
100 -34 11 -6 19 -6 23 0 4 6 -11 17 -32 25 -125 49 -250 135 -362 249 -41 41
-79 72 -84 69 -6 -3 -7 -1 -3 6 5 7 -13 44 -43 89 -115 175 -141 275 -141 542
0 190 -4 240 -20 240 -4 0 -23 -51 -43 -112z m48 62 c3 -5 1 -10 -4 -10 -6 0
-11 5 -11 10 0 6 2 10 4 10 3 0 8 -4 11 -10z m-2 -63 c-2 -4 -5 -7 -8 -7 -3 0
-9 0 -15 0 -5 0 -10 4 -10 9 0 5 8 8 18 7 9 -2 16 -6 15 -9z m-16 -33 c4 -11
8 -12 13 -4 4 7 8 1 8 -14 0 -23 -3 -25 -16 -14 -12 11 -12 7 2 -21 10 -19 15
-43 12 -57 -8 -31 -23 -31 -23 1 0 13 3 22 8 19 5 -3 9 -1 9 5 0 12 -20 25
-21 14 -9 -62 -8 -73 6 -73 20 0 19 -10 -2 -27 -10 -8 -12 -12 -5 -8 8 4 12
-4 13 -27 0 -18 2 -40 4 -48 10 -47 24 -97 30 -113 6 -13 3 -16 -9 -11 -9 3
-16 15 -16 25 0 10 -4 19 -10 19 -13 0 -13 -3 1 -34 6 -13 19 -26 28 -29 10
-2 17 -16 19 -33 1 -15 7 -33 12 -38 6 -6 10 -18 10 -29 0 -10 4 -16 9 -12 6
3 9 -4 8 -15 -2 -26 -23 -26 -37 0 -11 20 -54 28 -64 11 -4 -5 2 -7 13 -4 11
3 27 -4 40 -18 11 -12 31 -23 43 -25 13 -1 26 -3 31 -3 4 -1 7 -6 7 -12 0 -8
-5 -8 -15 1 -9 7 -15 8 -15 2 0 -13 -27 -9 -42 6 -18 18 -24 15 -23 -13 0 -14
7 -30 15 -35 8 -5 11 -12 7 -16 -9 -9 -37 15 -37 33 0 8 -11 34 -25 57 -14 24
-23 50 -20 59 4 8 2 18 -4 21 -6 4 -7 14 -4 23 4 9 2 14 -3 11 -11 -7 -12 4
-18 145 -4 79 -2 109 7 113 8 3 12 26 11 64 0 47 2 56 11 43 10 -13 12 -11 13
16 0 17 -3 29 -8 26 -4 -3 -6 4 -3 15 6 24 21 26 30 4z m198 -694 c3 -5 -1
-10 -9 -10 -9 0 -16 5 -16 10 0 6 4 10 9 10 6 0 13 -4 16 -10z m-71 -66 c3 -8
2 -12 -4 -9 -6 3 -10 10 -10 16 0 14 7 11 14 -7z"/>
<path d="M2590 2432 c0 -12 19 -26 26 -19 2 2 -2 10 -11 17 -9 8 -15 8 -15 2z"/>
<path d="M2590 2370 c0 -19 3 -21 12 -12 9 9 9 15 0 24 -9 9 -12 7 -12 -12z"/>
<path d="M2620 2381 c0 -5 -3 -16 -6 -25 -4 -11 -1 -16 12 -15 11 0 14 3 8 5
-7 3 -10 14 -7 24 3 11 3 20 -1 20 -3 0 -6 -4 -6 -9z"/>
<path d="M2605 2310 c24 -11 51 -13 41 -3 -4 4 -19 8 -34 10 -23 2 -24 1 -7
-7z"/>
<path d="M2600 2286 c0 -2 7 -6 15 -10 8 -3 15 -1 15 4 0 6 -7 10 -15 10 -8 0
-15 -2 -15 -4z"/>
<path d="M2596 2255 c4 -8 10 -15 15 -15 4 0 6 7 3 15 -4 8 -10 15 -15 15 -4
0 -6 -7 -3 -15z"/>
<path d="M2665 2200 c4 -6 11 -8 16 -5 14 9 11 15 -7 15 -8 0 -12 -5 -9 -10z"/>
<path d="M2652 2165 c0 -16 2 -22 5 -12 2 9 2 23 0 30 -3 6 -5 -1 -5 -18z"/>
<path d="M2670 2150 c0 -5 5 -10 10 -10 6 0 10 5 10 10 0 6 -4 10 -10 10 -5 0
-10 -4 -10 -10z"/>
<path d="M2678 2123 c6 -2 18 -2 25 0 6 3 1 5 -13 5 -14 0 -19 -2 -12 -5z"/>
<path d="M525 2430 c-3 -5 -1 -10 4 -10 6 0 11 5 11 10 0 6 -2 10 -4 10 -3 0
-8 -4 -11 -10z"/>
<path d="M516 2254 c-8 -22 -4 -25 11 -9 7 8 9 16 4 19 -5 3 -12 -1 -15 -10z"/>
<path d="M1263 2198 c-48 -34 -67 -85 -59 -154 6 -57 39 -119 57 -109 5 4 6
-1 3 -9 -9 -23 72 -55 157 -62 68 -7 69 -7 99 26 109 116 82 245 -64 311 -60
27 -152 25 -193 -3z m64 -9 c-1 -12 4 -24 11 -26 7 -3 10 1 6 11 -8 21 34 30
71 15 17 -7 35 -11 40 -10 6 0 2 -5 -7 -12 -11 -9 -14 -18 -7 -28 7 -11 9 -11
9 4 0 21 28 23 36 2 4 -8 9 -13 13 -10 4 2 6 -10 4 -28 -2 -24 -1 -27 5 -10 6
19 9 20 26 8 15 -11 20 -28 21 -75 1 -33 0 -58 -3 -55 -5 5 -27 -28 -38 -57
-8 -24 -21 -23 -29 2 -3 11 -11 20 -17 20 -5 0 -8 6 -5 14 4 9 0 13 -11 11 -9
-2 -19 -4 -22 -4 -3 -1 5 -9 16 -19 21 -16 42 -62 29 -62 -14 0 -45 21 -45 31
0 6 5 7 10 4 6 -3 10 -1 10 4 0 13 -10 14 -29 2 -11 -7 -12 -13 -3 -23 8 -11
7 -14 -8 -14 -10 0 -16 4 -13 9 3 5 -4 6 -17 2 -17 -6 -21 -4 -14 6 6 11 4 11
-9 0 -15 -12 -20 -12 -33 5 -9 10 -13 13 -9 7 11 -23 -5 -14 -41 24 -24 24
-34 43 -30 55 3 13 0 18 -8 15 -9 -4 -12 3 -10 19 1 13 -2 26 -7 30 -5 3 -9
11 -9 17 1 7 10 1 20 -12 23 -27 27 -15 5 15 -13 19 -12 25 5 59 19 38 20 38
29 14 5 -13 10 -22 11 -19 7 25 7 40 -1 40 -5 0 -9 4 -9 10 0 5 7 7 15 4 8 -4
17 1 21 10 9 23 24 20 21 -5z"/>
<path d="M1390 2161 c0 -5 7 -11 15 -15 8 -3 15 -1 15 3 0 5 -7 11 -15 15 -8
3 -15 1 -15 -3z"/>
<path d="M1310 2126 c0 -9 5 -16 10 -16 6 0 10 4 10 9 0 6 -4 13 -10 16 -5 3
-10 -1 -10 -9z"/>
<path d="M1246 2121 c-3 -5 1 -11 9 -15 8 -3 15 -1 15 4 0 13 -18 22 -24 11z"/>
<path d="M1442 2106 c7 -8 15 -12 17 -11 5 6 -10 25 -20 25 -5 0 -4 -6 3 -14z"/>
<path d="M1330 2095 c-7 -9 -10 -19 -6 -22 4 -4 11 -1 16 7 5 8 12 11 17 7 4
-4 3 -16 -3 -25 -12 -19 -8 -42 7 -42 5 0 10 10 10 23 1 16 2 18 6 5 2 -10 9
-18 14 -18 14 0 11 16 -6 30 -8 7 -15 16 -15 21 0 16 21 9 46 -16 34 -34 19
-65 -31 -65 -19 0 -35 -4 -35 -10 0 -5 9 -10 20 -10 11 0 23 -7 26 -15 9 -23
26 -18 19 6 -5 15 -4 19 5 14 6 -4 18 1 26 11 11 14 14 15 11 4 -6 -21 28 -24
44 -4 9 11 9 14 -1 14 -9 0 -10 4 -2 13 8 10 6 13 -8 13 -14 0 -16 -4 -9 -17
12 -22 11 -29 -1 -29 -5 0 -14 19 -20 43 -7 23 -21 50 -33 59 -27 22 -80 23
-97 3z"/>
<path d="M1255 2081 c-3 -5 -1 -12 4 -16 6 -3 7 -13 4 -21 -4 -10 2 -17 16
-21 14 -4 20 -11 17 -20 -3 -8 -6 -19 -6 -24 0 -5 -5 -9 -11 -9 -5 0 -8 4 -4
9 3 5 1 12 -4 16 -10 6 -7 -27 4 -45 9 -15 25 -2 25 21 0 10 6 19 14 19 22 0
31 21 13 32 -9 5 -14 15 -11 23 4 9 0 15 -10 15 -9 0 -16 -7 -16 -15 0 -8 -4
-15 -10 -15 -5 0 -8 14 -6 30 3 29 -7 40 -19 21z"/>
<path d="M1480 2070 c0 -5 13 -13 29 -18 24 -8 29 -8 25 3 -6 14 -54 27 -54
15z"/>
<path d="M1525 2020 c-3 -5 -1 -10 4 -10 6 0 11 5 11 10 0 6 -2 10 -4 10 -3 0
-8 -4 -11 -10z"/>
<path d="M1492 1964 c-7 -8 -8 -14 -3 -14 10 0 25 19 20 25 -2 1 -10 -3 -17
-11z"/>
<path d="M1333 1939 c-1 -10 2 -21 8 -24 5 -3 6 1 3 10 -5 13 -2 14 21 5 24
-9 26 -8 16 4 -19 23 -47 26 -48 5z"/>
<path d="M3544 2200 c-126 -62 -162 -165 -96 -272 40 -64 54 -72 125 -65 102
10 157 35 189 87 62 100 49 197 -32 253 -35 25 -133 23 -186 -3z m148 -9 c-2
-8 3 -11 12 -8 8 3 24 -3 37 -14 12 -10 19 -19 15 -19 -3 0 3 -19 15 -41 14
-28 17 -45 11 -51 -6 -6 -8 -17 -5 -24 3 -8 -2 -16 -10 -20 -8 -3 -13 -13 -10
-23 5 -19 -28 -66 -59 -82 -16 -9 -19 -8 -13 3 3 7 0 5 -8 -4 -18 -22 -32 -11
-15 12 7 9 3 5 -10 -8 l-22 -23 -37 22 c-20 13 -33 17 -29 10 9 -14 -11 -41
-31 -41 -18 0 -8 40 15 58 15 11 15 14 2 22 -23 15 -34 12 -20 -5 8 -9 9 -15
2 -15 -6 0 -14 5 -17 10 -3 6 -11 10 -18 10 -6 0 -3 -6 7 -13 13 -10 16 -20
12 -35 -9 -28 -26 -29 -26 -2 0 11 -4 20 -9 20 -10 0 -44 91 -36 98 2 3 11 -1
20 -8 10 -8 15 -9 15 -1 0 6 -4 11 -10 11 -5 0 -10 5 -10 11 0 6 9 9 19 6 12
-3 27 3 38 16 10 11 12 17 4 12 -8 -4 -17 -2 -23 6 -8 12 -9 11 -5 -1 3 -10
-3 -15 -19 -16 -32 -2 -32 29 -1 43 19 9 25 8 33 -5 9 -13 12 -13 19 -2 5 8 4
11 -2 7 -6 -4 -13 -1 -16 6 -7 18 -8 27 -2 25 2 -2 10 6 18 16 10 13 16 15 21
8 4 -7 4 -16 1 -22 -3 -5 -2 -10 4 -10 15 0 26 23 13 28 -7 2 -12 7 -12 11 0
12 76 32 94 25 9 -3 16 -1 16 6 0 6 8 10 18 8 9 -2 16 -10 14 -17z m-88 -299
c2 -4 -4 -9 -15 -9 -11 -1 -17 2 -14 8 7 11 22 12 29 1z"/>
<path d="M3667 2194 c-4 -4 -7 -14 -7 -23 0 -11 3 -12 11 -4 6 6 10 16 7 23
-2 6 -7 8 -11 4z"/>
<path d="M3635 2168 c4 -10 3 -18 -3 -18 -5 0 -13 -8 -16 -17 -6 -14 -2 -13
16 4 18 18 20 25 10 35 -11 11 -12 10 -7 -4z"/>
<path d="M3710 2170 c0 -5 5 -10 11 -10 5 0 7 5 4 10 -3 6 -8 10 -11 10 -2 0
-4 -4 -4 -10z"/>
<path d="M3598 2163 c-22 -5 -24 -20 -3 -20 8 0 16 6 19 14 3 7 4 12 3 12 -1
-1 -10 -3 -19 -6z"/>
<path d="M3715 2140 c3 -5 8 -10 11 -10 2 0 4 5 4 10 0 6 -5 10 -11 10 -5 0
-7 -4 -4 -10z"/>
<path d="M3676 2125 c-3 -8 -1 -15 4 -15 6 0 10 7 10 15 0 8 -2 15 -4 15 -2 0
-6 -7 -10 -15z"/>
<path d="M3730 2120 c-12 -8 -10 -10 8 -10 13 0 20 4 17 10 -7 12 -6 12 -25 0z"/>
<path d="M3546 2104 c-5 -14 -4 -15 9 -4 17 14 19 20 6 20 -5 0 -12 -7 -15
-16z"/>
<path d="M3579 2095 c-15 -8 -29 -23 -31 -33 -7 -25 19 -85 32 -77 7 4 9 -2 5
-17 -4 -15 -1 -29 7 -36 15 -12 58 -5 58 9 0 12 -14 11 -27 -2 -15 -15 -32 -4
-29 19 2 10 13 18 29 20 40 5 33 20 -10 24 -33 3 -38 7 -41 30 -2 20 3 31 22
43 14 9 31 13 37 9 8 -4 9 -3 5 4 -11 17 5 14 26 -5 10 -9 18 -11 18 -5 0 14
-33 32 -57 32 -10 -1 -30 -7 -44 -15z"/>
<path d="M3720 2080 c0 -6 7 -13 15 -16 12 -5 12 -8 0 -20 -18 -19 -36 -18
-29 1 4 11 0 15 -16 15 -18 0 -20 -3 -11 -14 9 -10 8 -16 -4 -26 -8 -7 -15
-22 -15 -34 1 -20 2 -19 25 7 13 15 28 27 33 27 15 0 52 41 52 58 0 13 -2 14
-9 3 -6 -9 -11 -10 -15 -2 -9 14 -26 14 -26 1z"/>
<path d="M3614 2055 c-7 -18 3 -35 21 -35 18 0 28 32 13 42 -19 11 -28 10 -34
-7z m26 -16 c0 -6 -4 -7 -10 -4 -5 3 -10 11 -10 16 0 6 5 7 10 4 6 -3 10 -11
10 -16z"/>
<path d="M3507 2022 c-13 -14 -14 -21 -5 -30 17 -17 33 -15 18 3 -10 12 -10
18 0 30 18 21 6 19 -13 -3z"/>
<path d="M3700 1975 c0 -8 4 -15 10 -15 5 0 7 7 4 15 -4 8 -8 15 -10 15 -2 0
-4 -7 -4 -15z"/>
<path d="M540 2194 c0 -8 5 -12 10 -9 6 4 8 11 5 16 -9 14 -15 11 -15 -7z"/>
<path d="M1573 2183 c0 -9 4 -10 14 -2 7 6 13 12 13 14 0 1 -6 2 -13 2 -8 0
-14 -6 -14 -14z"/>
<path d="M550 2109 c0 -5 5 -7 10 -4 6 3 10 8 10 11 0 2 -4 4 -10 4 -5 0 -10
-5 -10 -11z"/>
<path d="M2330 2065 c-7 -8 -17 -12 -24 -8 -8 4 -7 2 1 -7 6 -7 9 -19 6 -26
-3 -8 -1 -14 3 -14 5 0 14 16 20 35 12 39 12 41 -6 20z"/>
<path d="M566 2043 c-6 -14 -5 -15 5 -6 7 7 10 15 7 18 -3 3 -9 -2 -12 -12z"/>
<path d="M610 1990 c0 -5 5 -10 11 -10 5 0 7 5 4 10 -3 6 -8 10 -11 10 -2 0
-4 -4 -4 -10z"/>
<path d="M2721 1954 c13 -16 29 -19 29 -5 0 5 -9 11 -21 14 -16 4 -18 3 -8 -9z"/>
<path d="M2771 1954 c13 -16 29 -19 29 -5 0 5 -9 11 -21 14 -16 4 -18 3 -8 -9z"/>
<path d="M665 1890 c-3 -5 -1 -10 4 -10 6 0 11 5 11 10 0 6 -2 10 -4 10 -3 0
-8 -4 -11 -10z"/>
<path d="M2780 1886 c0 -2 7 -7 16 -10 8 -3 12 -2 9 4 -6 10 -25 14 -25 6z"/>
<path d="M670 1850 c0 -5 5 -10 11 -10 5 0 7 5 4 10 -3 6 -8 10 -11 10 -2 0
-4 -4 -4 -10z"/>
<path d="M2830 1835 c7 -8 16 -12 21 -9 13 8 1 24 -18 24 -13 0 -13 -3 -3 -15z"/>
<path d="M2785 1820 c-9 -14 4 -32 17 -24 7 4 8 2 4 -4 -9 -15 88 -117 103
-108 8 5 7 11 -2 20 -6 8 -15 12 -18 10 -3 -1 -4 11 -2 29 3 30 3 30 -7 8
l-10 -23 -23 28 c-12 16 -22 31 -22 34 0 14 -34 40 -40 30z"/>
<path d="M2870 1816 c0 -9 5 -16 10 -16 6 0 10 4 10 9 0 6 -4 13 -10 16 -5 3
-10 -1 -10 -9z"/>
<path d="M2840 1782 c0 -12 19 -26 26 -19 2 2 -2 10 -11 17 -9 8 -15 8 -15 2z"/>
<path d="M2937 1750 c7 -8 23 -15 35 -17 12 -2 19 -1 16 3 -3 3 -12 6 -20 8
-7 1 -20 5 -28 10 -12 7 -13 6 -3 -4z"/>
<path d="M2076 1721 c-3 -5 1 -11 9 -15 8 -3 15 -1 15 4 0 13 -18 22 -24 11z"/>
<path d="M2990 1699 c0 -13 5 -31 10 -39 7 -11 8 -5 4 20 -8 43 -14 51 -14 19z"/>
<path d="M1966 1661 c-3 -5 1 -14 8 -20 10 -9 16 -9 21 -1 4 6 3 10 -2 9 -20
-3 -27 2 -13 11 9 6 10 10 3 10 -6 0 -14 -4 -17 -9z"/>
<path d="M860 1635 c-7 -9 -8 -15 -2 -15 5 0 12 7 16 15 3 8 4 15 2 15 -2 0
-9 -7 -16 -15z"/>
<path d="M892 1586 c7 -8 17 -12 22 -9 4 3 2 9 -5 14 -22 13 -31 11 -17 -5z"/>
<path d="M1863 1551 c-1 -14 3 -18 13 -14 11 4 12 9 3 19 -15 18 -14 18 -16
-5z"/>
<path d="M1035 1532 c-3 -9 -3 -13 1 -9 4 4 12 3 18 -3 7 -5 17 -5 24 -1 9 5
5 11 -12 19 -20 9 -25 8 -31 -6z"/>
<path d="M3280 1532 c0 -6 -6 -9 -14 -6 -8 3 -23 0 -33 -6 -17 -11 -17 -11 1
-6 10 4 24 2 31 -4 9 -8 14 -6 19 6 4 9 4 19 1 22 -3 3 -5 0 -5 -6z"/>
<path d="M990 1520 c0 -5 5 -10 10 -10 6 0 10 5 10 10 0 6 -4 10 -10 10 -5 0
-10 -4 -10 -10z"/>
<path d="M1725 1520 c-23 -10 -21 -11 18 -14 15 -1 26 3 24 8 -5 14 -19 16
-42 6z"/>
<path d="M1655 1510 c-3 -5 1 -10 9 -10 9 0 16 5 16 10 0 6 -4 10 -9 10 -6 0
-13 -4 -16 -10z"/>
<path d="M1137 1490 c-3 -11 -1 -20 4 -20 5 0 9 6 9 14 0 8 8 17 18 19 13 4
13 5 -4 6 -14 1 -24 -6 -27 -19z"/>
<path d="M1264 1476 c-3 -8 -2 -22 3 -30 8 -14 11 -15 28 -1 18 13 18 14 3 15
-21 0 -24 16 -5 23 7 3 5 6 -6 6 -10 1 -20 -5 -23 -13z"/>
<path d="M1588 1483 c12 -2 30 -2 40 0 9 3 -1 5 -23 4 -22 0 -30 -2 -17 -4z"/>
<path d="M3416 1479 c3 -5 12 -9 21 -9 19 0 9 13 -12 16 -8 1 -13 -2 -9 -7z"/>
<path d="M1380 1458 c0 -19 2 -20 10 -8 13 19 13 30 0 30 -5 0 -10 -10 -10
-22z"/>
<path d="M1515 1470 c3 -5 8 -10 11 -10 2 0 4 5 4 10 0 6 -5 10 -11 10 -5 0
-7 -4 -4 -10z"/>
<path d="M3545 1464 c9 -9 19 -13 23 -10 3 4 0 11 -8 16 -24 15 -33 11 -15 -6z"/>
<path d="M1405 1460 c-3 -5 -1 -10 4 -10 6 0 11 5 11 10 0 6 -2 10 -4 10 -3 0
-8 -4 -11 -10z"/>
<path d="M3356 1455 c4 -8 11 -15 16 -15 6 0 5 6 -2 15 -7 8 -14 15 -16 15 -2
0 -1 -7 2 -15z"/>
<path d="M3396 1454 c-5 -12 -2 -15 10 -10 8 3 18 6 20 6 3 0 2 5 -1 10 -9 15
-22 12 -29 -6z"/>
<path d="M3580 1454 c0 -8 5 -12 10 -9 6 4 8 11 5 16 -9 14 -15 11 -15 -7z"/>
<path d="M1326 1451 c-4 -5 -2 -12 3 -15 5 -4 12 -2 15 3 4 5 2 12 -3 15 -5 4
-12 2 -15 -3z"/>
<path d="M1470 1450 c0 -5 5 -10 10 -10 6 0 10 5 10 10 0 6 -4 10 -10 10 -5 0
-10 -4 -10 -10z"/>
<path d="M1502 1434 c-7 -8 -8 -14 -3 -14 10 0 25 19 20 25 -2 1 -10 -3 -17
-11z"/>
<path d="M3440 1446 c0 -2 7 -9 15 -16 9 -7 15 -8 15 -2 0 5 -7 12 -15 16 -8
3 -15 4 -15 2z"/>
<path d="M1538 1433 c7 -3 16 -2 19 1 4 3 -2 6 -13 5 -11 0 -14 -3 -6 -6z"/>
<path d="M1430 1420 c0 -5 4 -10 9 -10 6 0 13 5 16 10 3 6 -1 10 -9 10 -9 0
-16 -4 -16 -10z"/>
</g>
</svg>
