<?xml version="1.0" standalone="no"?>
<!DOCTYPE svg PUBLIC "-//W3C//DTD SVG 20010904//EN"
 "http://www.w3.org/TR/2001/REC-SVG-20010904/DTD/svg10.dtd">
<svg version="1.0" xmlns="http://www.w3.org/2000/svg"
 width="60" height="60" viewBox="0 0 1042 958"
 preserveAspectRatio="xMidYMid meet">
<g transform="translate(0,958) scale(0.1,-0.1)"
 fill="none" stroke="#DC143C" stroke-width="12">
  
    
<path d="M6395 8227 c-22 -5 -53 -15 -70 -22 -16 -7 -46 -18 -65 -25 -52 -20
-251 -125 -363 -191 -170 -101 -222 -122 -312 -127 -80 -4 -125 5 -330 65
-223 65 -286 76 -465 76 -177 1 -253 -10 -400 -60 -99 -34 -266 -118 -363
-182 -89 -59 -249 -216 -336 -330 -133 -175 -294 -447 -384 -651 -105 -238
-129 -297 -217 -530 -18 -47 -52 -137 -77 -200 -25 -63 -57 -151 -73 -195 -79
-227 -226 -542 -313 -672 -32 -49 -112 -137 -214 -238 -90 -88 -163 -168 -163
-176 0 -9 26 -47 58 -85 150 -180 347 -472 395 -585 8 -19 24 -56 37 -84 51
-114 102 -261 154 -445 35 -122 79 -234 114 -286 117 -179 199 -261 377 -381
112 -75 302 -162 403 -184 23 -5 61 -13 85 -18 75 -17 209 -40 321 -56 61 -9
118 -21 127 -26 11 -6 20 -26 24 -57 13 -97 40 -204 102 -407 91 -296 205
-550 330 -737 67 -100 246 -289 338 -356 181 -132 284 -179 580 -262 100 -28
296 -42 510 -37 121 3 247 10 280 17 212 40 320 69 423 116 29 13 57 24 63 24
31 0 331 176 415 245 205 166 446 468 537 675 38 87 99 236 112 274 23 69 74
274 90 364 52 291 44 679 -21 1037 -93 510 -267 898 -565 1257 -98 119 -319
360 -440 481 -52 52 -50 43 -18 122 41 104 152 418 170 480 4 17 17 64 29 105
40 140 48 175 73 310 43 227 51 307 51 505 -1 214 -9 286 -60 490 -57 225
-229 571 -368 738 -97 118 -199 190 -317 226 -43 13 -209 12 -264 -2z m335
-175 c0 -13 -3 -12 -15 4 -19 25 -19 40 0 24 8 -7 15 -20 15 -28z m-226 -8
c17 -3 40 -9 51 -14 11 -4 36 -14 55 -21 96 -34 282 -183 363 -291 67 -88 158
-310 190 -463 31 -145 59 -469 56 -640 -3 -127 -2 -136 19 -158 12 -13 22 -31
22 -40 0 -9 5 -19 10 -22 15 -9 12 -55 -6 -109 -13 -36 -24 -51 -53 -66 -42
-21 -72 -51 -56 -57 29 -10 38 -22 28 -35 -6 -7 -13 -40 -17 -73 -7 -63 -35
-174 -67 -263 -10 -30 -19 -63 -19 -73 0 -11 -9 -39 -21 -62 -11 -23 -32 -73
-46 -112 -43 -117 -60 -145 -89 -145 -29 0 -167 65 -185 87 -6 7 -17 13 -24
13 -7 0 -26 15 -41 33 -17 20 -29 27 -31 19 -7 -19 -33 -42 -48 -42 -7 0 -20
6 -28 14 -9 10 -28 12 -59 9 -56 -6 -70 10 -28 32 18 9 30 23 30 35 0 11 5 20
10 20 6 0 10 7 10 15 0 8 -4 15 -10 15 -5 0 -10 6 -10 14 0 21 -20 30 -33 16
-9 -10 -9 -14 1 -17 6 -3 12 -10 12 -17 0 -9 -15 -13 -45 -12 -47 1 -59 18
-33 44 7 7 9 12 4 12 -17 0 -37 -32 -38 -60 -1 -17 9 -44 21 -60 27 -37 9 -40
-40 -7 -20 14 -40 39 -49 63 -13 36 -18 40 -37 33 -23 -8 -46 -9 -283 -4 -178
4 -403 -10 -490 -31 -36 -8 -96 -21 -135 -29 -38 -7 -83 -20 -100 -29 -16 -9
-38 -16 -48 -16 -10 0 -20 -6 -23 -14 -3 -8 -13 -12 -23 -9 -9 2 -23 -3 -30
-11 -8 -9 -23 -16 -35 -16 -26 0 -71 -32 -131 -93 -31 -30 -55 -46 -80 -50
-38 -6 -135 7 -170 23 -71 32 -267 60 -422 60 -100 0 -123 -5 -123 -26 0 -18
-20 -18 -46 1 -22 15 -39 15 -189 0 -44 -5 -74 -10 -67 -12 6 -3 12 -9 12 -15
0 -7 -17 -9 -47 -5 -33 4 -54 1 -67 -9 -11 -8 -32 -14 -48 -14 -15 0 -28 -4
-28 -10 0 -5 -11 -10 -24 -10 -14 0 -27 -4 -31 -9 -3 -5 -20 -13 -37 -17 -18
-3 -39 -10 -48 -14 -60 -28 -120 -61 -140 -77 -11 -8 -20 -9 -30 -2 -11 8 -12
12 -3 15 7 3 10 11 7 19 -3 7 4 18 15 25 12 6 21 17 21 26 0 8 6 17 14 20 7 3
24 28 37 57 13 29 27 54 31 57 3 3 10 18 13 33 4 15 16 32 26 38 11 6 21 25
25 49 5 32 9 38 20 30 9 -9 16 -2 29 27 38 89 79 162 92 167 11 4 13 14 8 36
-6 29 -6 30 27 28 20 -1 44 -13 61 -30 16 -15 37 -28 48 -28 10 0 19 -4 19
-10 0 -5 20 -10 44 -10 25 0 47 -4 50 -9 12 -19 205 27 248 59 62 45 175 63
216 34 16 -11 27 -13 35 -5 8 6 18 6 27 1 42 -27 246 22 345 83 11 6 44 27 73
45 63 40 110 49 154 31 18 -7 38 -14 43 -14 6 0 30 -11 53 -23 24 -13 76 -29
115 -37 241 -46 373 -25 558 87 62 37 70 38 184 12 95 -22 283 -14 375 16 36
12 69 25 75 31 5 5 15 9 22 9 8 0 19 5 26 10 39 33 122 90 132 90 7 0 24 9 39
21 23 18 29 19 56 7 23 -10 28 -17 23 -33 -4 -13 3 -9 22 13 46 55 103 85 154
83 25 -1 52 -8 61 -16 25 -23 34 -18 16 10 -21 32 -20 98 1 133 30 49 56 72
80 72 17 0 23 6 23 23 0 25 -23 105 -39 133 -5 11 -12 31 -15 45 -9 43 -105
177 -160 223 -119 100 -189 121 -391 120 -159 -1 -230 -13 -430 -74 -33 -10
-94 -28 -135 -40 -41 -12 -86 -25 -100 -30 -41 -14 -241 -62 -295 -70 -27 -5
-90 -15 -140 -23 -49 -9 -117 -18 -150 -21 -455 -45 -703 -82 -815 -123 -200
-72 -412 -233 -568 -432 -91 -116 -110 -147 -209 -340 -120 -234 -136 -261
-255 -440 -71 -106 -91 -134 -105 -146 -7 -5 -26 -27 -42 -49 -37 -46 -220
-245 -276 -299 -22 -21 -59 -52 -82 -68 -24 -16 -43 -34 -43 -39 0 -10 6 -12
105 -36 38 -9 100 -30 137 -45 37 -16 71 -29 77 -29 5 0 42 -15 83 -34 40 -18
80 -36 88 -40 8 -3 52 -26 96 -49 228 -123 385 -300 535 -607 71 -145 100
-222 141 -379 17 -63 40 -132 52 -155 18 -35 20 -48 12 -84 -7 -35 -6 -46 6
-59 22 -22 38 -8 38 33 0 19 5 34 10 34 17 0 11 -54 -11 -100 -23 -47 -24 -35
21 -275 5 -27 14 -79 20 -115 6 -36 13 -75 16 -86 2 -12 -3 -28 -12 -35 -22
-18 -234 11 -334 46 -112 39 -137 44 -149 32 -7 -7 -11 -8 -11 -1 0 12 -151
114 -169 114 -13 0 -57 -44 -64 -63 -4 -14 -27 1 -27 18 0 8 11 22 25 31 37
24 31 46 -27 89 -50 38 -111 96 -133 128 -5 8 -32 43 -58 78 -57 75 -133 228
-175 354 -75 220 -150 399 -209 495 -45 72 -62 96 -197 275 -100 133 -233 282
-296 331 -33 26 -60 52 -60 59 0 6 31 35 69 63 194 145 450 492 642 872 98
193 104 207 199 470 56 154 64 180 120 355 28 88 55 169 60 180 15 38 49 130
55 155 15 55 168 352 236 455 80 124 229 280 319 336 206 128 396 189 615 197
136 4 194 -1 350 -33 198 -41 578 -84 629 -71 18 4 24 11 19 22 -7 18 12 34
40 34 25 0 186 64 259 104 152 81 180 95 250 122 82 31 141 44 177 37 13 -2
37 -6 55 -9z m-258 -1149 c-15 -8 -38 -15 -50 -15 -12 0 -27 -5 -33 -11 -6 -6
-16 -8 -22 -5 -23 14 -10 26 28 26 22 0 43 5 46 10 3 6 18 10 33 10 l27 0 -29
-15z m-166 -39 c0 -25 -12 -46 -26 -46 -7 0 -35 -13 -61 -29 -27 -16 -64 -32
-83 -36 -35 -6 -44 -9 -113 -40 -64 -28 -149 -47 -207 -45 -142 2 -239 49
-133 64 43 7 92 19 133 34 8 4 35 7 60 7 57 1 238 43 266 62 24 15 78 20 112
9 21 -7 23 -5 17 13 -5 17 -2 21 14 21 12 0 21 -6 21 -14z m539 -46 c84 -14
146 -47 205 -110 74 -79 154 -270 112 -270 -8 0 -31 -14 -50 -31 -39 -34 -82
-49 -139 -49 -50 0 -81 32 -91 90 -7 41 -9 43 -21 27 -7 -10 -18 -46 -24 -80
-19 -105 -77 -165 -206 -208 -157 -53 -361 -49 -454 9 -42 25 -46 32 -46 67 0
57 -18 52 -45 -12 -41 -98 -130 -172 -245 -202 -155 -41 -482 28 -535 114 -14
23 -20 50 -20 93 0 59 -15 91 -26 55 -26 -86 -97 -169 -212 -245 -80 -54 -151
-81 -253 -99 -69 -11 -82 -11 -122 5 -51 19 -77 60 -77 120 0 39 -25 52 -36
19 -25 -75 -58 -123 -103 -153 -62 -39 -177 -76 -261 -84 -36 -3 -78 -7 -95
-8 -24 -2 -29 1 -27 15 2 10 9 26 17 35 7 9 47 62 88 117 182 246 371 395 607
479 173 61 318 68 695 32 215 -21 314 -20 438 4 133 26 197 47 363 120 221 98
314 130 434 149 30 5 57 9 60 10 3 0 34 -4 69 -9z m-3328 -502 c31 -34 34 -43
20 -52 -12 -8 -71 48 -71 68 0 25 18 19 51 -16z m-51 -143 c0 -8 -4 -15 -10
-15 -5 0 -10 7 -10 15 0 8 5 15 10 15 6 0 10 -7 10 -15z m-40 -81 c0 -16 -16
-19 -25 -4 -8 13 4 32 16 25 5 -4 9 -13 9 -21z m-4 -35 c10 -17 -13 -36 -27
-22 -12 12 -4 33 11 33 5 0 12 -5 16 -11z m-118 -250 c-18 -12 -23 8 -6 28 12
15 13 15 16 -2 2 -10 -2 -21 -10 -26z m3032 -254 c161 -18 197 -25 360 -74
166 -50 309 -120 416 -205 46 -36 142 -133 225 -227 79 -89 172 -193 205 -230
346 -382 536 -865 613 -1561 27 -237 8 -655 -39 -895 -21 -108 -82 -329 -99
-360 -6 -10 -26 -54 -45 -98 -53 -121 -120 -242 -178 -320 -95 -128 -283 -303
-387 -360 -20 -11 -56 -32 -81 -46 -91 -54 -357 -153 -502 -188 -160 -38 -228
-49 -376 -61 -272 -23 -550 25 -772 134 -491 241 -789 719 -968 1551 -50 230
-72 358 -117 676 -32 228 -48 320 -80 454 -134 558 -390 966 -700 1120 -97 47
-156 64 -250 71 -103 7 -111 10 -95 29 7 9 10 19 6 22 -9 9 -26 -16 -26 -37 0
-20 106 -110 130 -110 10 0 23 -7 30 -15 7 -8 20 -15 30 -15 23 0 91 -28 112
-47 9 -8 43 -27 75 -43 58 -29 123 -81 123 -99 0 -5 13 -19 30 -31 17 -12 30
-26 30 -32 0 -6 14 -26 31 -45 22 -25 27 -39 20 -46 -16 -16 -13 -40 4 -33 16
6 19 -3 9 -28 -7 -19 -24 -21 -24 -3 0 7 -9 20 -20 30 -11 9 -20 22 -20 29 0
12 -29 33 -81 63 -10 5 -20 16 -22 25 -2 8 -22 24 -43 35 -22 10 -55 32 -75
47 -20 15 -44 28 -53 28 -9 0 -16 4 -16 9 0 5 -15 12 -34 15 -18 4 -42 16 -52
27 -28 31 -82 50 -121 43 -32 -6 -48 9 -20 19 20 7 3 16 -39 21 -35 3 -77 21
-121 52 -24 16 -9 114 18 114 12 0 19 7 19 20 0 15 7 20 25 20 18 0 23 -4 19
-15 -4 -10 0 -15 14 -15 11 0 22 7 26 15 4 11 13 14 30 9 20 -5 43 6 108 52
302 210 339 228 598 275 102 19 541 19 625 1 241 -54 425 -116 599 -204 194
-97 364 -256 528 -493 72 -104 89 -136 226 -410 122 -246 176 -363 199 -435
41 -129 104 -347 126 -435 24 -97 31 -132 57 -260 18 -89 19 -90 33 -76 17 17
22 299 7 420 -26 216 -76 409 -160 621 -36 91 -141 309 -187 390 -195 340
-382 565 -595 713 -128 90 -333 186 -394 187 -20 0 -34 17 -34 41 0 5 7 9 15
9 8 0 64 16 123 36 378 126 664 164 982 129z m-2890 -525 c0 -5 -7 -10 -15
-10 -8 0 -15 5 -15 10 0 6 7 10 15 10 8 0 15 -4 15 -10z m696 -661 c3 -6 -1
-18 -9 -27 -13 -13 -19 -13 -31 -2 -9 7 -16 19 -16 26 0 17 46 19 56 3z m-988
-387 c12 -9 13 -15 4 -24 -8 -8 -14 -5 -22 16 -5 15 -10 33 -9 39 0 7 3 5 6
-3 3 -8 12 -21 21 -28z m84 -155 c-15 -17 -1 -71 26 -101 12 -15 22 -32 22
-40 0 -8 7 -17 15 -20 12 -4 14 -10 5 -25 -13 -26 -13 -52 1 -48 7 1 28 -44
48 -103 19 -58 43 -114 53 -124 10 -11 18 -25 18 -32 0 -7 6 -15 13 -18 6 -3
2 -3 -10 0 -17 4 -23 1 -23 -10 0 -9 -5 -16 -11 -16 -6 0 -9 12 -7 28 2 17 -2
26 -10 24 -6 -1 -12 6 -12 17 0 10 -6 24 -14 30 -17 14 -56 86 -56 103 0 6 -8
16 -17 23 -12 9 -17 28 -18 66 0 34 -5 58 -14 65 -13 10 -21 43 -38 157 -5 33
-3 37 17 37 17 0 20 -3 12 -13z m38 -57 c0 -11 -4 -20 -10 -20 -5 0 -10 9 -10
20 0 11 5 20 10 20 6 0 10 -9 10 -20z m1210 -198 c0 -55 -16 -72 -24 -28 -8
41 0 79 15 71 5 -4 9 -23 9 -43z"/>
<path d="M6585 7910 c-15 -7 -16 -9 -4 -9 9 -1 45 -23 80 -49 35 -27 98 -73
139 -103 88 -66 120 -113 102 -154 -29 -64 -67 -47 -219 96 -70 66 -138 125
-150 130 -18 7 -23 16 -23 46 0 28 -3 34 -10 23 -5 -8 -10 -35 -10 -60 1 -38
7 -52 40 -90 22 -24 40 -50 40 -57 0 -7 4 -13 9 -13 6 0 39 -30 76 -66 60 -60
68 -65 98 -59 24 5 28 4 17 -5 -13 -9 -12 -12 4 -25 11 -8 25 -15 30 -15 6 0
5 4 -3 9 -7 5 -10 14 -6 21 5 8 11 8 23 -3 21 -17 55 -30 48 -18 -3 5 10 25
29 44 19 19 35 43 35 54 0 48 -23 93 -70 137 -28 26 -50 51 -50 56 0 6 -6 10
-14 10 -8 0 -28 14 -46 30 -18 17 -41 30 -52 30 -11 0 -34 11 -52 25 -18 14
-35 25 -37 24 -2 0 -13 -4 -24 -9z"/>
<path d="M4310 7051 c-8 -6 -51 -22 -95 -37 -44 -15 -84 -32 -90 -39 -5 -6
-23 -18 -40 -26 -17 -9 -29 -22 -29 -32 1 -10 -5 -17 -16 -17 -24 0 -91 -66
-114 -112 -11 -21 -25 -38 -32 -38 -7 0 -16 -16 -20 -35 -4 -26 -11 -35 -25
-35 -16 0 -20 -7 -19 -32 0 -18 -2 -47 -6 -64 -4 -21 -1 -36 10 -47 9 -8 16
-20 16 -25 0 -16 36 -42 61 -43 17 -1 19 -3 7 -6 -10 -2 -18 -9 -18 -14 0 -17
27 -9 55 16 15 15 32 24 38 22 5 -1 25 13 44 33 100 105 158 160 166 160 6 0
28 15 51 33 49 39 112 77 130 77 7 0 31 9 54 20 22 11 52 20 66 20 13 0 31 6
38 14 8 7 35 16 61 20 31 5 50 13 54 24 7 18 32 41 46 42 4 0 7 -7 7 -15 0 -8
9 -15 19 -15 11 0 27 -7 36 -16 12 -12 41 -16 132 -18 101 -2 119 0 135 16 10
10 22 18 27 18 5 0 7 10 3 22 -4 17 -2 20 11 15 18 -7 33 8 17 18 -5 3 -10 15
-10 26 0 10 -4 19 -10 19 -5 0 -10 6 -10 14 0 36 -202 56 -265 26 -16 -8 -41
-15 -55 -16 -14 -1 -35 -5 -47 -9 -15 -5 -28 0 -43 15 -21 21 -34 23 -174 26
-88 3 -157 0 -166 -5z m734 -47 c29 -11 19 -57 -17 -81 -31 -22 -39 -22 -159
-16 -112 5 -127 8 -131 25 -4 14 0 53 7 59 0 1 57 5 126 9 69 3 133 7 142 8 9
1 23 -1 32 -4z m-400 -10 c16 -6 21 -39 10 -68 -5 -13 -22 -16 -83 -16 -204 0
-424 -133 -573 -346 -28 -40 -56 -75 -63 -78 -25 -9 -60 19 -63 51 -3 25 9 51
56 120 121 179 249 271 462 331 39 11 229 15 254 6z"/>
<path d="M7122 6433 c-18 -7 -42 -57 -42 -89 l0 -28 35 34 c44 42 48 97 7 83z"/>
<path d="M7222 6377 c-25 -26 -31 -87 -9 -87 12 0 43 97 34 106 -2 2 -13 -6
-25 -19z"/>
<path d="M7073 6206 c5 -16 54 -42 63 -33 4 3 2 13 -5 21 -15 17 -63 28 -58
12z"/>
<path d="M6907 6189 c-28 -21 -54 -59 -40 -59 4 1 28 19 52 40 45 41 37 55
-12 19z"/>
<path d="M6967 6105 c-20 -25 -24 -35 -13 -35 18 0 56 38 56 57 0 22 -14 15
-43 -22z"/>
<path d="M6518 5788 c9 -9 15 -9 24 0 9 9 7 12 -12 12 -19 0 -21 -3 -12 -12z"/>
<path d="M6169 5409 c-10 -6 -7 -9 14 -9 29 0 35 5 14 13 -8 3 -20 1 -28 -4z"/>
<path d="M6095 5298 c17 -6 42 -19 57 -29 32 -23 42 -24 58 -4 10 12 7 15 -17
20 -15 4 -41 11 -57 16 -16 5 -38 9 -50 8 -16 0 -14 -3 9 -11z"/>
<path d="M6240 5264 c0 -15 32 -34 58 -34 17 0 32 -6 36 -15 3 -8 17 -15 31
-15 14 0 28 -7 31 -15 4 -8 10 -12 15 -9 14 8 51 -6 46 -19 -3 -11 92 -51 153
-64 22 -5 23 -4 10 10 -8 8 -31 24 -50 34 -19 10 -53 30 -75 44 -51 31 -76 43
-145 69 -52 19 -110 27 -110 14z"/>
<path d="M5041 2057 c-1 -10 12 -37 27 -60 29 -44 42 -69 63 -127 19 -50 68
-130 105 -170 18 -19 50 -57 72 -83 43 -53 78 -79 162 -123 30 -15 72 -38 92
-51 163 -100 238 -124 392 -124 111 0 137 4 124 16 -2 3 -63 10 -134 16 -142
13 -174 21 -174 44 0 10 -10 15 -33 15 -18 0 -57 13 -87 30 -30 16 -73 38 -95
48 -22 10 -46 26 -54 35 -7 10 -25 17 -38 17 -18 0 -24 4 -19 15 3 9 0 15 -10
15 -27 0 -129 88 -146 125 -6 14 -15 25 -20 25 -4 0 -8 7 -8 15 0 8 -12 25
-26 38 -27 23 -74 106 -74 131 0 8 -9 17 -19 21 -12 3 -23 19 -27 38 -3 18
-16 41 -28 53 -11 11 -26 29 -33 40 -11 18 -12 18 -12 1z"/>
<path d="M4950 1970 c0 -11 4 -20 8 -20 5 0 14 -16 22 -35 9 -22 17 -32 23
-26 6 6 1 21 -12 39 -11 17 -21 37 -21 46 0 9 -4 16 -10 16 -5 0 -10 -9 -10
-20z"/>
<path d="M4997 1864 c-10 -10 5 -68 20 -77 7 -4 13 -17 13 -27 0 -10 5 -22 10
-25 6 -3 10 -15 10 -27 0 -19 18 -47 73 -110 15 -18 27 -38 27 -45 0 -7 6 -13
13 -13 7 0 30 -25 52 -55 24 -32 48 -55 58 -55 11 0 21 -9 24 -20 3 -11 10
-20 16 -20 6 0 18 -6 26 -14 9 -8 39 -26 66 -40 52 -28 73 -40 117 -68 14 -10
36 -18 47 -18 12 0 21 -6 21 -13 0 -20 59 -44 197 -82 60 -17 93 -15 93 4 0 5
-30 14 -67 20 -66 12 -194 63 -221 89 -7 6 -18 12 -23 12 -6 0 -25 11 -43 25
-18 14 -36 25 -39 25 -4 0 -46 23 -94 52 -91 53 -164 119 -207 185 -13 21 -37
52 -53 68 -38 39 -77 108 -94 168 -14 48 -30 72 -42 61z"/>
<path d="M6090 1334 c0 -3 12 -20 26 -37 24 -28 26 -37 21 -86 -6 -51 -5 -53
11 -37 25 25 20 112 -9 143 -21 21 -49 31 -49 17z"/>
<path d="M6330 1330 c-8 -5 -24 -12 -35 -16 -39 -14 15 -17 69 -4 28 6 73 10
100 8 44 -3 51 -6 67 -38 11 -19 19 -27 19 -18 0 9 -4 20 -10 23 -5 3 -10 14
-10 24 0 13 -10 20 -32 24 -51 9 -151 7 -168 -3z"/>
<path d="M6257 1293 c-4 -3 -7 -18 -6 -32 1 -26 1 -25 10 3 9 31 7 41 -4 29z"/>
<path d="M6525 1229 c-4 -6 -5 -13 -2 -16 7 -7 27 6 27 18 0 12 -17 12 -25 -2z"/>
<path d="M6250 1206 c0 -8 5 -18 10 -21 6 -3 10 3 10 14 0 12 -4 21 -10 21 -5
0 -10 -6 -10 -14z"/>
<path d="M6344 1161 c6 -9 74 -7 84 3 3 3 -16 6 -42 6 -26 0 -45 -4 -42 -9z"/>
<path d="M5916 1152 c-3 -6 -2 -13 2 -16 15 -9 172 -4 178 5 3 5 -8 9 -24 9
-16 0 -56 3 -89 6 -38 4 -63 3 -67 -4z"/>
</g>
</svg>
